{
.appVersion = "1075";
copyright = "Copyright © 2018 by Cadson Demak Co.,Ltd.. All rights reserved.";
customParameters = (
{
name = vendorID;
value = CDK;
},
{
name = description;
value = "Copyright (c) 2018, Cadson Demak (info@cadsondemak.com)";
},
{
name = license;

glyphs = (
{
glyphname = A;
lastChange = "2018-02-23 06:46:14 +0000";
layers = (
{
anchors = (
{
name = bottom;
position = "{418, 0}";
},
{
name = ogonek;
position = "{746, 10}";
},
{
name = top;
position = "{505, 700}";
}
);
layerId = "0B1DFD06-3317-40CA-B510-4969A0718C16";
paths = (
{
closed = 1;
nodes = (
"170 -11 OFFCURVE",
"237 57 OFFCURVE",
"324 251 CURVE SMOOTH",
"366 345 OFFCURVE",
"451 550 OFFCURVE",
"498 645 CURVE",
"491 645 LINE",
"491 617 OFFCURVE",
"543 362 OFFCURVE",
"559 286 CURVE",
"548 286 OFFCURVE",
"491 283 OFFCURVE",
"433 283 CURVE SMOOTH",
"379 283 OFFCURVE",
"256 294 OFFCURVE",
"224 306 CURVE",
"219 301 OFFCURVE",
"213 285 OFFCURVE",
"217 270 CURVE SMOOTH",
"221 254 OFFCURVE",
"277 245 OFFCURVE",
"337 245 CURVE SMOOTH",
"412 245 OFFCURVE",
"511 246 OFFCURVE",
"535 246 CURVE SMOOTH",
"560 246 OFFCURVE",
"572 240 OFFCURVE",
"580 212 CURVE SMOOTH",
"609 109 OFFCURVE",
"662 -6 OFFCURVE",
"731 -6 CURVE SMOOTH",
"771 -6 OFFCURVE",
"820 38 OFFCURVE",
"834 67 CURVE SMOOTH",
"838 75 OFFCURVE",
"837 86 OFFCURVE",
"836 96 CURVE SMOOTH",
"835 103 OFFCURVE",
"832 109 OFFCURVE",
"829 114 CURVE",
"805 79 OFFCURVE",
"774 52 OFFCURVE",
"746 52 CURVE SMOOTH",
"673 52 OFFCURVE",
"632 211 OFFCURVE",
"601 334 CURVE SMOOTH",
"576 433 OFFCURVE",
"556 539 OFFCURVE",
"546 610 CURVE SMOOTH",
"539 658 OFFCURVE",
"535 705 OFFCURVE",
"547 735 CURVE",
"539 737 OFFCURVE",
"525 740 OFFCURVE",
"515 740 CURVE SMOOTH",
"496 740 OFFCURVE",
"486 730 OFFCURVE",
"475 706 CURVE SMOOTH",
"426 600 OFFCURVE",
"346 404 OFFCURVE",
"280 259 CURVE SMOOTH",
"205 94 OFFCURVE",
"152 36 OFFCURVE",
"73 36 CURVE SMOOTH",
"30 36 OFFCURVE",
"1 62 OFFCURVE",
"-2 114 CURVE",
"-17 106 OFFCURVE",
"-28 92 OFFCURVE",
"-28 63 CURVE SMOOTH",
"-28 22 OFFCURVE",
"5 -11 OFFCURVE",
"61 -11 CURVE SMOOTH"
);
}
);
width = 800;
},
{
anchors = (
{
name = bottom;
position = "{343, 0}";
},
{
name = ogonek;
position = "{681, 10}";
},
{
name = top;
position = "{595, 700}";
}
);
layerId = "4C458150-A1D2-4ED7-A293-C8767657F79E";
paths = (
{
closed = 1;
nodes = (
"162 -11 OFFCURVE",
"223 96 OFFCURVE",
"324 256 CURVE SMOOTH",
"409 391 OFFCURVE",
"504 551 OFFCURVE",
"563 650 CURVE",
"555 655 LINE",
"557 628 OFFCURVE",
"560 362 OFFCURVE",
"562 286 CURVE",
"538 285 OFFCURVE",
"494 283 OFFCURVE",
"436 283 CURVE SMOOTH",
"382 283 OFFCURVE",
"260 294 OFFCURVE",
"230 306 CURVE",
"224 299 OFFCURVE",
"216 286 OFFCURVE",
"217 271 CURVE SMOOTH",
"218 255 OFFCURVE",
"299 245 OFFCURVE",
"373 245 CURVE SMOOTH",
"448 245 OFFCURVE",
"507 246 OFFCURVE",
"531 246 CURVE SMOOTH",
"556 246 OFFCURVE",
"567 240 OFFCURVE",
"570 212 CURVE SMOOTH",
"581 109 OFFCURVE",
"613 -6 OFFCURVE",
"683 -6 CURVE SMOOTH",
"723 -6 OFFCURVE",
"780 32 OFFCURVE",
"799 62 CURVE SMOOTH",
"804 70 OFFCURVE",
"806 81 OFFCURVE",
"806 91 CURVE SMOOTH",
"806 98 OFFCURVE",
"804 104 OFFCURVE",
"802 109 CURVE",
"772 74 OFFCURVE",
"731 47 OFFCURVE",
"703 47 CURVE SMOOTH",
"630 47 OFFCURVE",
"622 211 OFFCURVE",
"613 334 CURVE SMOOTH",
"606 433 OFFCURVE",
"605 539 OFFCURVE",
"606 610 CURVE SMOOTH",
"606 658 OFFCURVE",
"612 705 OFFCURVE",
"629 735 CURVE",
"622 737 OFFCURVE",
"608 740 OFFCURVE",
"598 740 CURVE SMOOTH",
"579 740 OFFCURVE",
"568 734 OFFCURVE",
"553 710 CURVE SMOOTH",
"473 580 OFFCURVE",
"367 405 OFFCURVE",
"278 259 CURVE SMOOTH",
"191 117 OFFCURVE",
"126 36 OFFCURVE",
"42 36 CURVE SMOOTH",
"-3 36 OFFCURVE",
"-33 75 OFFCURVE",
"-33 132 CURVE",
"-50 124 OFFCURVE",
"-68 100 OFFCURVE",
"-66 71 CURVE SMOOTH",
"-63 31 OFFCURVE",
"-22 -11 OFFCURVE",
"32 -11 CURVE SMOOTH"
);
}
);
width = 802;
}
);
note = A;
unicode = 0041;
},
{
glyphname = B;
lastChange = "2018-02-21 16:44:51 +0000";
layers = (
{
layerId = "0B1DFD06-3317-40CA-B510-4969A0718C16";
paths = (
{
closed = 1;
nodes = (
"621 -16 OFFCURVE",
"725 78 OFFCURVE",
"725 179 CURVE SMOOTH",
"725 326 OFFCURVE",
"589 370 OFFCURVE",
"508 376 CURVE",
"511 366 LINE",
"627 401 OFFCURVE",
"669 459 OFFCURVE",
"669 533 CURVE SMOOTH",
"669 662 OFFCURVE",
"529 707 OFFCURVE",
"294 707 CURVE SMOOTH",
"205 707 OFFCURVE",
"163 710 OFFCURVE",
"96 710 CURVE SMOOTH",
"40 710 OFFCURVE",
"34 717 OFFCURVE",
"20 724 CURVE",
"16 715 OFFCURVE",
"13 698 OFFCURVE",
"13 680 CURVE SMOOTH",
"13 660 OFFCURVE",
"25 655 OFFCURVE",
"48 655 CURVE SMOOTH",
"77 655 OFFCURVE",
"172 675 OFFCURVE",
"229 675 CURVE SMOOTH",
"241 675 OFFCURVE",
"244 667 OFFCURVE",
"244 657 CURVE SMOOTH",
"244 440 OFFCURVE",
"241 295 OFFCURVE",
"228 86 CURVE SMOOTH",
"226 53 OFFCURVE",
"226 33 OFFCURVE",
"212 5 CURVE",
"226 0 OFFCURVE",
"238 -3 OFFCURVE",
"252 -3 CURVE SMOOTH",
"280 -3 OFFCURVE",
"288 22 OFFCURVE",
"287 41 CURVE SMOOTH",
"280 213 OFFCURVE",
"279 397 OFFCURVE",
"293 564 CURVE SMOOTH",
"300 653 OFFCURVE",
"304 676 OFFCURVE",
"367 676 CURVE SMOOTH",
"479 676 OFFCURVE",
"609 641 OFFCURVE",
"609 531 CURVE SMOOTH",
"609 443 OFFCURVE",
"545 387 OFFCURVE",
"444 387 CURVE SMOOTH",
"418 387 OFFCURVE",
"388 390 OFFCURVE",
"371 391 CURVE",
"365 385 OFFCURVE",
"367 373 OFFCURVE",
"370 361 CURVE SMOOTH",
"373 345 OFFCURVE",
"380 338 OFFCURVE",
"386 337 CURVE",
"417 341 OFFCURVE",
"453 341 OFFCURVE",
"483 341 CURVE SMOOTH",
"591 341 OFFCURVE",
"660 281 OFFCURVE",
"660 188 CURVE SMOOTH",
"660 98 OFFCURVE",
"589 27 OFFCURVE",
"472 26 CURVE SMOOTH",
"383 25 OFFCURVE",
"327 45 OFFCURVE",
"265 100 CURVE",
"259 94 OFFCURVE",
"247 83 OFFCURVE",
"247 63 CURVE SMOOTH",
"247 29 OFFCURVE",
"355 -18 OFFCURVE",
"477 -17 CURVE SMOOTH"
);
}
);
width = 806;
},
{
layerId = "4C458150-A1D2-4ED7-A293-C8767657F79E";
paths = (
{
closed = 1;
nodes = (
"625 -17 OFFCURVE",
"708 109 OFFCURVE",
"708 203 CURVE SMOOTH",
"708 319 OFFCURVE",
"582 370 OFFCURVE",
"512 376 CURVE",
"513 366 LINE",
"625 401 OFFCURVE",
"676 485 OFFCURVE",
"676 563 CURVE SMOOTH",
"676 680 OFFCURVE",
"551 707 OFFCURVE",
"356 707 CURVE SMOOTH",
"267 707 OFFCURVE",
"226 710 OFFCURVE",
"159 710 CURVE SMOOTH",
"98 710 OFFCURVE",
"93 717 OFFCURVE",
"85 724 CURVE",
"82 715 OFFCURVE",
"78 694 OFFCURVE",
"79 678 CURVE SMOOTH",
"80 662 OFFCURVE",
"93 655 OFFCURVE",
"110 655 CURVE SMOOTH",
"139 655 OFFCURVE",
"239 675 OFFCURVE",
"296 675 CURVE SMOOTH",
"305 675 OFFCURVE",
"309 672 OFFCURVE",
"309 662 CURVE SMOOTH",
"309 624 OFFCURVE",
"214 224 OFFCURVE",
"183 96 CURVE SMOOTH",
"175 63 OFFCURVE",
"166 42 OFFCURVE",
"151 15 CURVE",
"158 12 OFFCURVE",
"168 7 OFFCURVE",
"177 7 CURVE SMOOTH",
"199 7 OFFCURVE",
"217 12 OFFCURVE",
"226 62 CURVE SMOOTH",
"250 198 OFFCURVE",
"304 445 OFFCURVE",
"335 564 CURVE SMOOTH",
"358 653 OFFCURVE",
"361 676 OFFCURVE",
"424 676 CURVE SMOOTH",
"523 676 OFFCURVE",
"614 650 OFFCURVE",
"614 551 CURVE SMOOTH",
"614 455 OFFCURVE",
"551 387 OFFCURVE",
"450 387 CURVE SMOOTH",
"424 387 OFFCURVE",
"394 390 OFFCURVE",
"378 391 CURVE",
"371 385 OFFCURVE",
"370 373 OFFCURVE",
"371 361 CURVE SMOOTH",
"372 345 OFFCURVE",
"377 338 OFFCURVE",
"383 337 CURVE",
"415 341 OFFCURVE",
"451 341 OFFCURVE",
"481 341 CURVE SMOOTH",
"584 341 OFFCURVE",
"645 287 OFFCURVE",
"645 212 CURVE SMOOTH",
"645 105 OFFCURVE",
"558 24 OFFCURVE",
"422 24 CURVE SMOOTH",
"321 24 OFFCURVE",
"261 66 OFFCURVE",
"220 102 CURVE",
"204 99 OFFCURVE",
"197 85 OFFCURVE",
"197 73 CURVE SMOOTH",
"197 38 OFFCURVE",
"303 -17 OFFCURVE",
"427 -17 CURVE SMOOTH"
);
}
);
width = 806;
}
);
note = B;
unicode = 0042;
},
{
glyphname = C;
lastChange = "2018-02-25 14:03:17 +0000";
layers = (
{
anchors = (
{
name = bottom;
position = "{395, 0}";
},
{
name = top;
position = "{410, 700}";
}
);
hints = (
{
horizontal = 1;
origin = "{0, 15}";
target = "{0, 24}";
},
{
horizontal = 1;
origin = "{0, 9}";
target = "{0, 30}";
},
{
origin = "{0, 12}";
target = "{0, 27}";
},
{
origin = "{0, 36}";
target = "{0, 0}";
},
{
origin = "{0, 21}";
target = "{0, 18}";
}
);
layerId = "0B1DFD06-3317-40CA-B510-4969A0718C16";
paths = (
{
closed = 1;
nodes = (
"633 504 LINE",
"630 526 OFFCURVE",
"628 550 OFFCURVE",
"628 573 CURVE SMOOTH",
"628 600 OFFCURVE",
"630 625 OFFCURVE",
"634 644 CURVE",
"596 690 OFFCURVE",
"496 716 OFFCURVE",
"411 716 CURVE SMOOTH",
"198 716 OFFCURVE",
"66 550 OFFCURVE",
"66 329 CURVE SMOOTH",
"66 129 OFFCURVE",
"187 -17 OFFCURVE",
"379 -17 CURVE SMOOTH",
"569 -17 OFFCURVE",
"700 139 OFFCURVE",
"700 232 CURVE SMOOTH",
"700 269 OFFCURVE",
"685 285 OFFCURVE",
"666 285 CURVE",
"641 134 OFFCURVE",
"531 31 OFFCURVE",
"381 31 CURVE SMOOTH",
"229 31 OFFCURVE",
"124 160 OFFCURVE",
"124 325 CURVE SMOOTH",
"124 518 OFFCURVE",
"235 674 OFFCURVE",
"412 674 CURVE SMOOTH",
"513 674 OFFCURVE",
"568 645 OFFCURVE",
"589 577 CURVE SMOOTH",
"595 558 OFFCURVE",
"606 513 OFFCURVE",
"608 500 CURVE"
);
}
);
width = 760;
},
{
anchors = (
{
name = bottom;
position = "{333, 0}";
},
{
name = top;
position = "{496, 700}";
}
);
layerId = "4C458150-A1D2-4ED7-A293-C8767657F79E";
paths = (
{
closed = 1;
nodes = (
"680 504 LINE",
"682 551 OFFCURVE",
"693 609 OFFCURVE",
"706 644 CURVE",
"676 690 OFFCURVE",
"591 716 OFFCURVE",
"506 716 CURVE SMOOTH",
"265 716 OFFCURVE",
"75 491 OFFCURVE",
"75 246 CURVE SMOOTH",
"75 70 OFFCURVE",
"193 -17 OFFCURVE",
"334 -17 CURVE SMOOTH",
"535 -17 OFFCURVE",
"723 157 OFFCURVE",
"723 258 CURVE SMOOTH",
"723 284 OFFCURVE",
"712 295 OFFCURVE",
"696 295 CURVE",
"631 124 OFFCURVE",
"485 31 OFFCURVE",
"335 31 CURVE SMOOTH",
"226 31 OFFCURVE",
"133 105 OFFCURVE",
"133 250 CURVE SMOOTH",
"133 461 OFFCURVE",
"298 674 OFFCURVE",
"499 674 CURVE SMOOTH",
"600 674 OFFCURVE",
"638 644 OFFCURVE",
"649 577 CURVE SMOOTH",
"652 558 OFFCURVE",
"655 513 OFFCURVE",
"655 500 CURVE"
);
}
);
width = 760;
}
);
note = C;
unicode = 0043;
},
{
glyphname = D;
lastChange = "2018-02-21 15:02:35 +0000";
layers = (
{
anchors = (
{
name = bottom;
position = "{486, 0}";
},
{
name = center;
position = "{486, 350}";
},
{
name = top;
position = "{507, 700}";
}
);
layerId = "0B1DFD06-3317-40CA-B510-4969A0718C16";
paths = (
{
closed = 1;
nodes = (
"668 -13 OFFCURVE",
"793 133 OFFCURVE",
"793 335 CURVE SMOOTH",
"793 587 OFFCURVE",
"652 707 OFFCURVE",
"382 707 CURVE SMOOTH",
"277 707 OFFCURVE",
"205 694 OFFCURVE",
"84 694 CURVE SMOOTH",
"54 694 OFFCURVE",
"12 713 OFFCURVE",
"9 713 CURVE SMOOTH",
"7 713 OFFCURVE",
"7 710 OFFCURVE",
"7 705 CURVE SMOOTH",
"11 687 OFFCURVE",
"32 644 OFFCURVE",
"47 644 CURVE SMOOTH",
"115 645 OFFCURVE",
"174 665 OFFCURVE",
"206 665 CURVE SMOOTH",
"220 665 OFFCURVE",
"223 661 OFFCURVE",
"223 645 CURVE SMOOTH",
"226 546 OFFCURVE",
"223 134 OFFCURVE",
"217 69 CURVE SMOOTH",
"215 46 OFFCURVE",
"210 37 OFFCURVE",
"202 23 CURVE",
"214 16 OFFCURVE",
"227 8 OFFCURVE",
"246 8 CURVE SMOOTH",
"299 8 OFFCURVE",
"328 -13 OFFCURVE",
"456 -13 CURVE SMOOTH"
);
},
{
closed = 1;
nodes = (
"385 30 OFFCURVE",
"353 34 OFFCURVE",
"298 55 CURVE SMOOTH",
"282 61 OFFCURVE",
"276 75 OFFCURVE",
"276 88 CURVE SMOOTH",
"276 91 OFFCURVE",
"276 94 OFFCURVE",
"276 97 CURVE SMOOTH",
"276 260 OFFCURVE",
"284 544 OFFCURVE",
"284 639 CURVE SMOOTH",
"288 658 OFFCURVE",
"290 670 OFFCURVE",
"372 670 CURVE SMOOTH",
"617 670 OFFCURVE",
"734 560 OFFCURVE",
"734 330 CURVE SMOOTH",
"734 157 OFFCURVE",
"625 30 OFFCURVE",
"452 30 CURVE SMOOTH"
);
}
);
width = 841;
},
{
anchors = (
{
name = bottom;
position = "{424, 0}";
},
{
name = center;
position = "{486, 350}";
},
{
name = top;
position = "{569, 700}";
}
);
layerId = "4C458150-A1D2-4ED7-A293-C8767657F79E";
paths = (
{
closed = 1;
nodes = (
"627 -13 OFFCURVE",
"798 123 OFFCURVE",
"798 367 CURVE SMOOTH",
"798 618 OFFCURVE",
"638 707 OFFCURVE",
"445 707 CURVE SMOOTH",
"340 707 OFFCURVE",
"266 694 OFFCURVE",
"145 694 CURVE SMOOTH",
"115 694 OFFCURVE",
"76 713 OFFCURVE",
"73 713 CURVE SMOOTH",
"71 713 OFFCURVE",
"70 710 OFFCURVE",
"70 705 CURVE SMOOTH",
"70 687 OFFCURVE",
"84 644 OFFCURVE",
"99 644 CURVE SMOOTH",
"167 645 OFFCURVE",
"227 665 OFFCURVE",
"295 665 CURVE SMOOTH",
"299 665 OFFCURVE",
"308 663 OFFCURVE",
"310 657 CURVE",
"297 558 OFFCURVE",
"189 161 OFFCURVE",
"172 96 CURVE SMOOTH",
"165 73 OFFCURVE",
"160 64 OFFCURVE",
"149 50 CURVE",
"160 43 OFFCURVE",
"171 35 OFFCURVE",
"190 35 CURVE SMOOTH",
"243 35 OFFCURVE",
"304 -13 OFFCURVE",
"432 -13 CURVE SMOOTH"
);
},
{
closed = 1;
nodes = (
"359 30 OFFCURVE",
"300 49 OFFCURVE",
"251 82 CURVE SMOOTH",
"239 90 OFFCURVE",
"234 100 OFFCURVE",
"234 111 CURVE SMOOTH",
"234 115 OFFCURVE",
"235 119 OFFCURVE",
"236 124 CURVE SMOOTH",
"269 287 OFFCURVE",
"321 478 OFFCURVE",
"370 651 CURVE",
"377 670 OFFCURVE",
"403 670 OFFCURVE",
"428 670 CURVE SMOOTH",
"608 670 OFFCURVE",
"741 599 OFFCURVE",
"741 371 CURVE SMOOTH",
"741 169 OFFCURVE",
"600 30 OFFCURVE",
"426 30 CURVE SMOOTH"
);
}
);
width = 841;
}
);
note = D;
unicode = 0044;
},
{
glyphname = E;
lastChange = "2018-02-22 15:49:47 +0000";
layers = (
{
anchors = (
{
name = bottom;
position = "{427, 0}";
},
{
name = ogonek;
position = "{756, 43}";
},
{
name = top;
position = "{427, 700}";
},
{
name = topleft;
position = "{44, 700}";
}
);
layerId = "0B1DFD06-3317-40CA-B510-4969A0718C16";
paths = (
{
closed = 1;
nodes = (
"493 -13 OFFCURVE",
"583 -4 OFFCURVE",
"678 15 CURVE SMOOTH",
"713 22 OFFCURVE",
"716 36 OFFCURVE",
"716 72 CURVE SMOOTH",
"716 92 OFFCURVE",
"718 104 OFFCURVE",
"723 113 CURVE",
"722 115 OFFCURVE",
"719 117 OFFCURVE",
"715 118 CURVE",
"647 42 OFFCURVE",
"476 32 OFFCURVE",
"377 32 CURVE SMOOTH",
"251 32 OFFCURVE",
"236 65 OFFCURVE",
"236 210 CURVE SMOOTH",
"236 307 OFFCURVE",
"247 546 OFFCURVE",
"262 644 CURVE SMOOTH",
"264 657 OFFCURVE",
"272 661 OFFCURVE",
"290 661 CURVE SMOOTH",
"367 661 OFFCURVE",
"506 657 OFFCURVE",
"591 646 CURVE SMOOTH",
"615 643 OFFCURVE",
"622 626 OFFCURVE",
"629 611 CURVE",
"639 613 LINE",
"637 635 OFFCURVE",
"652 677 OFFCURVE",
"654 687 CURVE",
"649 694 OFFCURVE",
"639 702 OFFCURVE",
"631 702 CURVE SMOOTH",
"531 702 OFFCURVE",
"280 701 OFFCURVE",
"236 701 CURVE SMOOTH",
"169 701 OFFCURVE",
"91 703 OFFCURVE",
"23 708 CURVE",
"20 703 OFFCURVE",
"17 684 OFFCURVE",
"17 667 CURVE SMOOTH",
"17 658 OFFCURVE",
"17 650 OFFCURVE",
"19 644 CURVE",
"23 643 LINE",
"62 656 OFFCURVE",
"108 659 OFFCURVE",
"174 659 CURVE SMOOTH",
"199 659 OFFCURVE",
"201 647 OFFCURVE",
"201 573 CURVE SMOOTH",
"201 443 OFFCURVE",
"184 304 OFFCURVE",
"184 177 CURVE SMOOTH",
"184 13 OFFCURVE",
"216 -13 OFFCURVE",
"385 -13 CURVE SMOOTH"
);
},
{
closed = 1;
nodes = (
"207 349 OFFCURVE",
"517 349 OFFCURVE",
"581 349 CURVE SMOOTH",
"593 349 OFFCURVE",
"598 352 OFFCURVE",
"598 367 CURVE SMOOTH",
"598 382 OFFCURVE",
"600 399 OFFCURVE",
"603 408 CURVE",
"597 413 LINE",
"550 398 OFFCURVE",
"505 395 OFFCURVE",
"366 395 CURVE SMOOTH",
"287 395 OFFCURVE",
"196 395 OFFCURVE",
"169 395 CURVE SMOOTH",
"158 395 OFFCURVE",
"144 367 OFFCURVE",
"144 357 CURVE SMOOTH",
"144 352 OFFCURVE",
"148 349 OFFCURVE",
"159 349 CURVE"
);
}
);
width = 732;
},
{
anchors = (
{
name = bottom;
position = "{403, 0}";
},
{
name = ogonek;
position = "{702, 43}";
},
{
name = top;
position = "{505, 700}";
}
);
layerId = "4C458150-A1D2-4ED7-A293-C8767657F79E";
paths = (
{
closed = 1;
nodes = (
"469 -13 OFFCURVE",
"553 -5 OFFCURVE",
"651 15 CURVE SMOOTH",
"671 19 OFFCURVE",
"685 30 OFFCURVE",
"689 44 CURVE SMOOTH",
"692 55 OFFCURVE",
"697 102 OFFCURVE",
"708 114 CURVE",
"706 117 OFFCURVE",
"703 120 OFFCURVE",
"700 120 CURVE",
"619 44 OFFCURVE",
"450 32 OFFCURVE",
"331 32 CURVE SMOOTH",
"265 32 OFFCURVE",
"224 37 OFFCURVE",
"220 86 CURVE SMOOTH",
"217 140 OFFCURVE",
"238 225 OFFCURVE",
"276 372 CURVE SMOOTH",
"301 465 OFFCURVE",
"327 553 OFFCURVE",
"361 645 CURVE SMOOTH",
"366 658 OFFCURVE",
"374 662 OFFCURVE",
"392 662 CURVE SMOOTH",
"469 662 OFFCURVE",
"581 658 OFFCURVE",
"664 647 CURVE SMOOTH",
"687 644 OFFCURVE",
"692 630 OFFCURVE",
"696 615 CURVE",
"706 614 LINE",
"708 636 OFFCURVE",
"730 678 OFFCURVE",
"734 688 CURVE",
"730 695 OFFCURVE",
"722 703 OFFCURVE",
"714 703 CURVE SMOOTH",
"614 703 OFFCURVE",
"362 702 OFFCURVE",
"318 702 CURVE SMOOTH",
"251 702 OFFCURVE",
"174 704 OFFCURVE",
"107 709 CURVE",
"100 702 OFFCURVE",
"90 664 OFFCURVE",
"91 645 CURVE",
"95 644 LINE",
"136 657 OFFCURVE",
"210 660 OFFCURVE",
"276 660 CURVE SMOOTH",
"281 660 OFFCURVE",
"285 658 OFFCURVE",
"287 655 CURVE SMOOTH",
"295 633 OFFCURVE",
"234 403 OFFCURVE",
"227 374 CURVE SMOOTH",
"190 228 OFFCURVE",
"159 113 OFFCURVE",
"162 63 CURVE SMOOTH",
"165 20 OFFCURVE",
"189 -13 OFFCURVE",
"361 -13 CURVE SMOOTH"
);
},
{
closed = 1;
nodes = (
"244 349 OFFCURVE",
"543 349 OFFCURVE",
"607 349 CURVE SMOOTH",
"616 349 OFFCURVE",
"621 353 OFFCURVE",
"622 360 CURVE SMOOTH",
"626 386 OFFCURVE",
"629 399 OFFCURVE",
"634 408 CURVE",
"628 413 LINE",
"563 395 OFFCURVE",
"504 395 OFFCURVE",
"392 395 CURVE SMOOTH",
"361 395 OFFCURVE",
"235 395 OFFCURVE",
"207 395 CURVE SMOOTH",
"194 395 OFFCURVE",
"176 368 OFFCURVE",
"176 360 CURVE SMOOTH",
"176 352 OFFCURVE",
"184 349 OFFCURVE",
"196 349 CURVE"
);
}
);
width = 732;
}
);
note = E;
unicode = 0045;
},
{
glyphname = F;
lastChange = "2018-02-21 15:03:26 +0000";
layers = (
{
layerId = "0B1DFD06-3317-40CA-B510-4969A0718C16";
paths = (
{
closed = 1;
nodes = (
"177 -10 OFFCURVE",
"199 -7 OFFCURVE",
"209 0 CURVE",
"204 17 OFFCURVE",
"201 50 OFFCURVE",
"203 71 CURVE SMOOTH",
"204 88 OFFCURVE",
"218 630 OFFCURVE",
"220 641 CURVE SMOOTH",
"223 655 OFFCURVE",
"225 662 OFFCURVE",
"243 662 CURVE SMOOTH",
"307 662 OFFCURVE",
"479 650 OFFCURVE",
"551 650 CURVE SMOOTH",
"560 650 OFFCURVE",
"563 656 OFFCURVE",
"563 667 CURVE SMOOTH",
"562 680 OFFCURVE",
"561 711 OFFCURVE",
"567 721 CURVE",
"566 725 OFFCURVE",
"563 727 OFFCURVE",
"557 727 CURVE SMOOTH",
"556 727 OFFCURVE",
"553 726 OFFCURVE",
"549 725 CURVE",
"486 690 OFFCURVE",
"233 697 OFFCURVE",
"73 707 CURVE",
"66 692 OFFCURVE",
"65 677 OFFCURVE",
"66 671 CURVE SMOOTH",
"66 668 OFFCURVE",
"70 666 OFFCURVE",
"79 666 CURVE SMOOTH",
"97 666 OFFCURVE",
"135 665 OFFCURVE",
"149 664 CURVE SMOOTH",
"159 663 OFFCURVE",
"166 651 OFFCURVE",
"166 640 CURVE SMOOTH",
"165 493 OFFCURVE",
"156 258 OFFCURVE",
"145 44 CURVE SMOOTH",
"143 15 OFFCURVE",
"137 -7 OFFCURVE",
"165 -9 CURVE SMOOTH"
);
},
{
closed = 1;
nodes = (
"554 329 OFFCURVE",
"551 378 OFFCURVE",
"550 382 CURVE",
"545 386 LINE",
"491 369 OFFCURVE",
"419 362 OFFCURVE",
"343 362 CURVE SMOOTH",
"278 362 OFFCURVE",
"237 365 OFFCURVE",
"202 368 CURVE",
"199 325 LINE",
"280 325 OFFCURVE",
"515 323 OFFCURVE",
"547 323 CURVE"
);
}
);
width = 563;
},
{
layerId = "4C458150-A1D2-4ED7-A293-C8767657F79E";
paths = (
{
closed = 1;
nodes = (
"112 -10 OFFCURVE",
"134 -7 OFFCURVE",
"146 0 CURVE",
"144 17 OFFCURVE",
"147 50 OFFCURVE",
"152 71 CURVE SMOOTH",
"156 88 OFFCURVE",
"266 630 OFFCURVE",
"270 641 CURVE SMOOTH",
"275 655 OFFCURVE",
"278 662 OFFCURVE",
"296 662 CURVE SMOOTH",
"360 662 OFFCURVE",
"530 650 OFFCURVE",
"602 650 CURVE SMOOTH",
"611 650 OFFCURVE",
"615 656 OFFCURVE",
"617 667 CURVE SMOOTH",
"619 680 OFFCURVE",
"623 711 OFFCURVE",
"631 721 CURVE",
"631 725 OFFCURVE",
"628 727 OFFCURVE",
"622 727 CURVE SMOOTH",
"621 727 OFFCURVE",
"618 726 OFFCURVE",
"614 725 CURVE",
"544 690 OFFCURVE",
"293 697 OFFCURVE",
"134 707 CURVE",
"125 692 OFFCURVE",
"121 677 OFFCURVE",
"121 671 CURVE SMOOTH",
"121 668 OFFCURVE",
"124 666 OFFCURVE",
"133 666 CURVE SMOOTH",
"151 666 OFFCURVE",
"189 665 OFFCURVE",
"203 664 CURVE SMOOTH",
"213 663 OFFCURVE",
"218 651 OFFCURVE",
"216 640 CURVE SMOOTH",
"189 493 OFFCURVE",
"138 258 OFFCURVE",
"89 44 CURVE SMOOTH",
"82 15 OFFCURVE",
"72 -7 OFFCURVE",
"100 -9 CURVE SMOOTH"
);
},
{
closed = 1;
nodes = (
"549 329 OFFCURVE",
"554 378 OFFCURVE",
"554 382 CURVE",
"550 386 LINE",
"493 369 OFFCURVE",
"420 362 OFFCURVE",
"344 362 CURVE SMOOTH",
"279 362 OFFCURVE",
"238 365 OFFCURVE",
"204 368 CURVE",
"193 325 LINE",
"274 325 OFFCURVE",
"509 323 OFFCURVE",
"541 323 CURVE"
);
}
);
width = 563;
}
);
note = F;
unicode = 0046;
},
{
glyphname = G;
lastChange = "2018-02-21 17:33:24 +0000";
layers = (
{
anchors = (
{
name = bottom;
position = "{401, 0}";
},
{
name = top;
position = "{507, 700}";
}
);
hints = (
{
horizontal = 1;
origin = "{0, 72}";
target = "{0, 63}";
},
{
horizontal = 1;
origin = "{0, 56}";
target = "{0, 26}";
},
{
horizontal = 1;
origin = "{0, 20}";
target = "{0, 14}";
},
{
horizontal = 1;
origin = "{0, 50}";
target = "{0, 32}";
},
{
origin = "{0, 53}";
target = "{0, 29}";
},
{
place = "{767, 71}";
},
{
origin = "{0, 23}";
target = "{0, 8}";
}
);
layerId = "0B1DFD06-3317-40CA-B510-4969A0718C16";
paths = (
{
closed = 1;
nodes = (
"541 -414 OFFCURVE",
"618 -282 OFFCURVE",
"640 -226 CURVE SMOOTH",
"690 -102 OFFCURVE",
"712 122 OFFCURVE",
"712 280 CURVE SMOOTH",
"712 309 OFFCURVE",
"721 317 OFFCURVE",
"753 326 CURVE",
"753 336 OFFCURVE",
"747 353 OFFCURVE",
"742 362 CURVE",
"679 339 OFFCURVE",
"569 337 OFFCURVE",
"483 337 CURVE",
"479 325 OFFCURVE",
"476 309 OFFCURVE",
"476 296 CURVE",
"535 300 OFFCURVE",
"594 306 OFFCURVE",
"629 306 CURVE SMOOTH",
"651 306 OFFCURVE",
"660 286 OFFCURVE",
"660 253 CURVE SMOOTH",
"660 144 OFFCURVE",
"593 24 OFFCURVE",
"426 24 CURVE SMOOTH",
"245 24 OFFCURVE",
"162 157 OFFCURVE",
"162 343 CURVE SMOOTH",
"162 521 OFFCURVE",
"268 667 OFFCURVE",
"444 667 CURVE SMOOTH",
"540 667 OFFCURVE",
"628 645 OFFCURVE",
"658 565 CURVE SMOOTH",
"664 549 OFFCURVE",
"674 498 OFFCURVE",
"677 484 CURVE",
"682 481 OFFCURVE",
"689 479 OFFCURVE",
"697 479 CURVE SMOOTH",
"707 479 OFFCURVE",
"710 481 OFFCURVE",
"713 483 CURVE",
"712 522 OFFCURVE",
"702 600 OFFCURVE",
"694 639 CURVE",
"628 684 OFFCURVE",
"528 713 OFFCURVE",
"455 713 CURVE SMOOTH",
"209 713 OFFCURVE",
"102 537 OFFCURVE",
"102 343 CURVE SMOOTH",
"102 137 OFFCURVE",
"208 -21 OFFCURVE",
"426 -21 CURVE SMOOTH",
"576 -21 OFFCURVE",
"647 62 OFFCURVE",
"664 136 CURVE",
"659 155 LINE",
"637 -183 OFFCURVE",
"581 -382 OFFCURVE",
"334 -382 CURVE SMOOTH",
"285 -382 OFFCURVE",
"229 -367 OFFCURVE",
"198 -349 CURVE",
"196 -352 OFFCURVE",
"195 -356 OFFCURVE",
"196 -360 CURVE SMOOTH",
"201 -379 OFFCURVE",
"268 -414 OFFCURVE",
"337 -414 CURVE SMOOTH"
);
}
);
width = 895;
},
{
anchors = (
{
name = bottom;
position = "{375, 0}";
},
{
name = top;
position = "{604, 700}";
}
);
hints = (
{
horizontal = 1;
origin = "{0, 72}";
target = "{0, 63}";
},
{
horizontal = 1;
origin = "{0, 56}";
target = "{0, 26}";
},
{
horizontal = 1;
origin = "{0, 20}";
target = "{0, 14}";
},
{
horizontal = 1;
origin = "{0, 50}";
target = "{0, 32}";
},
{
origin = "{0, 53}";
target = "{0, 29}";
},
{
place = "{741, 45}";
},
{
origin = "{0, 23}";
target = "{0, 8}";
}
);
layerId = "4C458150-A1D2-4ED7-A293-C8767657F79E";
paths = (
{
closed = 1;
nodes = (
"448 -414 OFFCURVE",
"540 -303 OFFCURVE",
"570 -246 CURVE SMOOTH",
"630 -132 OFFCURVE",
"697 122 OFFCURVE",
"735 280 CURVE SMOOTH",
"742 309 OFFCURVE",
"751 317 OFFCURVE",
"784 326 CURVE",
"787 332 OFFCURVE",
"782 358 OFFCURVE",
"779 362 CURVE",
"712 339 OFFCURVE",
"598 337 OFFCURVE",
"512 337 CURVE",
"505 323 OFFCURVE",
"504 309 OFFCURVE",
"505 296 CURVE",
"565 300 OFFCURVE",
"622 306 OFFCURVE",
"657 306 CURVE SMOOTH",
"675 306 OFFCURVE",
"680 297 OFFCURVE",
"680 269 CURVE SMOOTH",
"680 194 OFFCURVE",
"567 24 OFFCURVE",
"394 24 CURVE SMOOTH",
"250 24 OFFCURVE",
"188 112 OFFCURVE",
"188 256 CURVE SMOOTH",
"188 476 OFFCURVE",
"343 667 OFFCURVE",
"555 667 CURVE SMOOTH",
"651 667 OFFCURVE",
"726 645 OFFCURVE",
"741 565 CURVE SMOOTH",
"744 549 OFFCURVE",
"745 498 OFFCURVE",
"746 484 CURVE",
"750 481 OFFCURVE",
"757 479 OFFCURVE",
"765 479 CURVE SMOOTH",
"775 479 OFFCURVE",
"778 481 OFFCURVE",
"782 483 CURVE",
"788 522 OFFCURVE",
"791 600 OFFCURVE",
"790 639 CURVE",
"732 684 OFFCURVE",
"647 713 OFFCURVE",
"574 713 CURVE SMOOTH",
"282 713 OFFCURVE",
"126 484 OFFCURVE",
"126 270 CURVE SMOOTH",
"126 91 OFFCURVE",
"200 -21 OFFCURVE",
"386 -21 CURVE SMOOTH",
"525 -21 OFFCURVE",
"623 71 OFFCURVE",
"662 136 CURVE",
"660 155 LINE",
"567 -144 OFFCURVE",
"517 -382 OFFCURVE",
"250 -382 CURVE SMOOTH",
"201 -382 OFFCURVE",
"148 -367 OFFCURVE",
"120 -349 CURVE",
"117 -352 OFFCURVE",
"116 -356 OFFCURVE",
"116 -360 CURVE SMOOTH",
"116 -379 OFFCURVE",
"185 -414 OFFCURVE",
"254 -414 CURVE SMOOTH"
);
}
);
width = 895;
}
);
note = G;
unicode = 0047;
},
{
glyphname = H;
lastChange = "2018-02-22 12:57:06 +0000";
layers = (
{
anchors = (
{
name = bottom;
position = "{405, 0}";
},
{
name = center;
position = "{405, 350}";
},
{
name = top;
position = "{405, 700}";
},
{
name = topleft;
position = "{36, 700}";
}
);
layerId = "0B1DFD06-3317-40CA-B510-4969A0718C16";
paths = (
{
closed = 1;
nodes = (
"796 -6 OFFCURVE",
"874 27 OFFCURVE",
"849 79 CURVE",
"823 59 OFFCURVE",
"774 41 OFFCURVE",
"726 41 CURVE SMOOTH",
"667 41 OFFCURVE",
"643 53 OFFCURVE",
"635 98 CURVE SMOOTH",
"628 140 OFFCURVE",
"618 219 OFFCURVE",
"625 389 CURVE SMOOTH",
"630 512 OFFCURVE",
"646 676 OFFCURVE",
"664 702 CURVE SMOOTH",
"684 731 OFFCURVE",
"762 760 OFFCURVE",
"794 760 CURVE",
"792 770 OFFCURVE",
"783 787 OFFCURVE",
"766 787 CURVE SMOOTH",
"722 787 OFFCURVE",
"653 760 OFFCURVE",
"618 735 CURVE SMOOTH",
"611 730 OFFCURVE",
"607 719 OFFCURVE",
"605 706 CURVE SMOOTH",
"589 605 OFFCURVE",
"582 483 OFFCURVE",
"577 369 CURVE SMOOTH",
"572 254 OFFCURVE",
"574 148 OFFCURVE",
"586 81 CURVE SMOOTH",
"595 32 OFFCURVE",
"641 -6 OFFCURVE",
"698 -6 CURVE SMOOTH"
);
},
{
closed = 1;
nodes = (
"169 4 OFFCURVE",
"184 7 OFFCURVE",
"195 7 CURVE SMOOTH",
"206 7 OFFCURVE",
"209 11 OFFCURVE",
"210 24 CURVE SMOOTH",
"214 81 OFFCURVE",
"221 197 OFFCURVE",
"230 367 CURVE SMOOTH",
"237 507 OFFCURVE",
"238 607 OFFCURVE",
"250 686 CURVE SMOOTH",
"252 699 OFFCURVE",
"247 706 OFFCURVE",
"236 706 CURVE SMOOTH",
"205 706 OFFCURVE",
"152 696 OFFCURVE",
"45 696 CURVE SMOOTH",
"37 696 OFFCURVE",
"34 693 OFFCURVE",
"36 681 CURVE SMOOTH",
"37 674 OFFCURVE",
"44 665 OFFCURVE",
"51 654 CURVE",
"74 658 OFFCURVE",
"119 662 OFFCURVE",
"141 662 CURVE SMOOTH",
"171 662 OFFCURVE",
"180 656 OFFCURVE",
"186 634 CURVE SMOOTH",
"195 600 OFFCURVE",
"193 512 OFFCURVE",
"185 367 CURVE SMOOTH",
"175 194 OFFCURVE",
"163 83 OFFCURVE",
"146 -5 CURVE",
"152 -7 LINE"
);
},
{
closed = 1;
nodes = (
"250 339 OFFCURVE",
"341 340 OFFCURVE",
"398 340 CURVE SMOOTH",
"484 340 OFFCURVE",
"574 339 OFFCURVE",
"592 337 CURVE",
"595 383 LINE",
"549 381 OFFCURVE",
"487 380 OFFCURVE",
"395 380 CURVE SMOOTH",
"267 380 OFFCURVE",
"175 386 OFFCURVE",
"147 386 CURVE SMOOTH",
"140 386 OFFCURVE",
"137 383 OFFCURVE",
"138 376 CURVE SMOOTH",
"140 359 OFFCURVE",
"164 339 OFFCURVE",
"177 339 CURVE SMOOTH"
);
}
);
width = 799;
},
{
anchors = (
{
name = bottom;
position = "{363, 0}";
},
{
name = center;
position = "{435, 350}";
},
{
name = top;
position = "{506, 700}";
},
{
name = topleft;
position = "{91, 700}";
}
);
layerId = "4C458150-A1D2-4ED7-A293-C8767657F79E";
paths = (
{
closed = 1;
nodes = (
"746 -6 OFFCURVE",
"830 27 OFFCURVE",
"814 79 CURVE",
"785 59 OFFCURVE",
"732 41 OFFCURVE",
"684 41 CURVE SMOOTH",
"625 41 OFFCURVE",
"604 53 OFFCURVE",
"604 98 CURVE SMOOTH",
"604 140 OFFCURVE",
"608 219 OFFCURVE",
"645 389 CURVE SMOOTH",
"672 512 OFFCURVE",
"716 676 OFFCURVE",
"739 702 CURVE SMOOTH",
"765 731 OFFCURVE",
"847 760 OFFCURVE",
"879 760 CURVE",
"879 770 OFFCURVE",
"873 787 OFFCURVE",
"856 787 CURVE SMOOTH",
"812 787 OFFCURVE",
"739 759 OFFCURVE",
"699 735 CURVE SMOOTH",
"691 730 OFFCURVE",
"685 719 OFFCURVE",
"681 706 CURVE SMOOTH",
"650 606 OFFCURVE",
"618 484 OFFCURVE",
"594 370 CURVE SMOOTH",
"569 255 OFFCURVE",
"552 148 OFFCURVE",
"552 81 CURVE SMOOTH",
"552 32 OFFCURVE",
"591 -6 OFFCURVE",
"648 -6 CURVE SMOOTH"
);
},
{
closed = 1;
nodes = (
"116 4 OFFCURVE",
"131 7 OFFCURVE",
"142 7 CURVE SMOOTH",
"153 7 OFFCURVE",
"158 11 OFFCURVE",
"160 24 CURVE SMOOTH",
"177 124 OFFCURVE",
"210 240 OFFCURVE",
"246 367 CURVE SMOOTH",
"286 507 OFFCURVE",
"313 607 OFFCURVE",
"337 686 CURVE SMOOTH",
"341 699 OFFCURVE",
"338 706 OFFCURVE",
"327 706 CURVE SMOOTH",
"296 706 OFFCURVE",
"241 696 OFFCURVE",
"134 696 CURVE SMOOTH",
"126 696 OFFCURVE",
"122 693 OFFCURVE",
"122 681 CURVE SMOOTH",
"122 674 OFFCURVE",
"127 665 OFFCURVE",
"133 654 CURVE",
"156 658 OFFCURVE",
"202 662 OFFCURVE",
"224 662 CURVE SMOOTH",
"254 662 OFFCURVE",
"262 656 OFFCURVE",
"264 634 CURVE SMOOTH",
"267 600 OFFCURVE",
"241 512 OFFCURVE",
"201 367 CURVE SMOOTH",
"134 126 OFFCURVE",
"124 83 OFFCURVE",
"91 -5 CURVE",
"97 -7 LINE"
);
},
{
closed = 1;
nodes = (
"261 339 OFFCURVE",
"352 340 OFFCURVE",
"409 340 CURVE SMOOTH",
"495 340 OFFCURVE",
"585 339 OFFCURVE",
"603 337 CURVE",
"614 383 LINE",
"567 381 OFFCURVE",
"505 380 OFFCURVE",
"413 380 CURVE SMOOTH",
"285 380 OFFCURVE",
"194 386 OFFCURVE",
"166 386 CURVE SMOOTH",
"159 386 OFFCURVE",
"156 383 OFFCURVE",
"156 376 CURVE SMOOTH",
"156 359 OFFCURVE",
"175 339 OFFCURVE",
"188 339 CURVE SMOOTH"
);
}
);
width = 799;
}
);
note = H;
unicode = 0048;
},
{
glyphname = I;
lastChange = "2018-02-21 15:04:06 +0000";
layers = (
{
anchors = (
{
name = bottom;
position = "{200, 0}";
},
{
name = ogonek;
position = "{225, 10}";
},
{
name = top;
position = "{221, 700}";
},
{
name = topleft;
position = "{84, 700}";
}
);
layerId = "0B1DFD06-3317-40CA-B510-4969A0718C16";
paths = (
{
closed = 1;
nodes = (
"211 -7 OFFCURVE",
"239 -1 OFFCURVE",
"241 40 CURVE SMOOTH",
"248 228 OFFCURVE",
"249 486 OFFCURVE",
"263 648 CURVE SMOOTH",
"265 663 OFFCURVE",
"286 672 OFFCURVE",
"307 674 CURVE",
"306 682 OFFCURVE",
"301 701 OFFCURVE",
"293 704 CURVE",
"256 698 OFFCURVE",
"186 693 OFFCURVE",
"85 693 CURVE SMOOTH",
"69 693 OFFCURVE",
"65 678 OFFCURVE",
"70 650 CURVE",
"94 655 OFFCURVE",
"139 657 OFFCURVE",
"166 657 CURVE SMOOTH",
"198 657 OFFCURVE",
"207 651 OFFCURVE",
"212 621 CURVE SMOOTH",
"223 558 OFFCURVE",
"197 218 OFFCURVE",
"183 32 CURVE SMOOTH",
"182 17 OFFCURVE",
"169 10 OFFCURVE",
"151 8 CURVE",
"163 -4 LINE"
);
}
);
width = 394;
},
{
anchors = (
{
name = bottom;
position = "{138, 0}";
},
{
name = ogonek;
position = "{165, 10}";
},
{
name = top;
position = "{283, 700}";
},
{
name = topleft;
position = "{146, 700}";
}
);
layerId = "4C458150-A1D2-4ED7-A293-C8767657F79E";
paths = (
{
closed = 1;
nodes = (
"148 -7 OFFCURVE",
"177 -1 OFFCURVE",
"186 40 CURVE SMOOTH",
"227 228 OFFCURVE",
"273 486 OFFCURVE",
"316 648 CURVE SMOOTH",
"320 663 OFFCURVE",
"343 672 OFFCURVE",
"364 674 CURVE",
"365 682 OFFCURVE",
"363 701 OFFCURVE",
"355 704 CURVE",
"317 698 OFFCURVE",
"247 693 OFFCURVE",
"146 693 CURVE SMOOTH",
"130 693 OFFCURVE",
"123 678 OFFCURVE",
"123 650 CURVE",
"148 655 OFFCURVE",
"193 657 OFFCURVE",
"220 657 CURVE SMOOTH",
"252 657 OFFCURVE",
"260 651 OFFCURVE",
"260 621 CURVE SMOOTH",
"260 558 OFFCURVE",
"174 218 OFFCURVE",
"127 32 CURVE SMOOTH",
"123 17 OFFCURVE",
"109 10 OFFCURVE",
"91 8 CURVE",
"101 -4 LINE"
);
}
);
width = 394;
}
);
note = I;
unicode = 0049;
},
{
glyphname = J;
lastChange = "2018-02-22 12:56:35 +0000";
layers = (
{
anchors = (
{
name = bottom;
position = "{349, 0}";
},
{
name = top;
position = "{389, 700}";
}
);
layerId = "0B1DFD06-3317-40CA-B510-4969A0718C16";
paths = (
{
closed = 1;
nodes = (
"272 -168 OFFCURVE",
"381 -91 OFFCURVE",
"389 90 CURVE SMOOTH",
"395 223 OFFCURVE",
"403 430 OFFCURVE",
"407 586 CURVE SMOOTH",
"409 664 OFFCURVE",
"414 681 OFFCURVE",
"452 681 CURVE SMOOTH",
"481 681 OFFCURVE",
"527 679 OFFCURVE",
"536 679 CURVE",
"531 700 OFFCURVE",
"522 715 OFFCURVE",
"512 715 CURVE SMOOTH",
"197 715 OFFCURVE",
"14 649 OFFCURVE",
"14 526 CURVE SMOOTH",
"14 460 OFFCURVE",
"56 421 OFFCURVE",
"110 405 CURVE",
"117 405 OFFCURVE",
"125 406 OFFCURVE",
"128 408 CURVE",
"87 428 OFFCURVE",
"63 468 OFFCURVE",
"63 518 CURVE SMOOTH",
"63 612 OFFCURVE",
"187 673 OFFCURVE",
"340 673 CURVE SMOOTH",
"354 673 OFFCURVE",
"361 666 OFFCURVE",
"361 647 CURVE SMOOTH",
"361 500 OFFCURVE",
"349 240 OFFCURVE",
"338 102 CURVE SMOOTH",
"324 -70 OFFCURVE",
"248 -139 OFFCURVE",
"139 -139 CURVE SMOOTH",
"37 -139 OFFCURVE",
"-4 -94 OFFCURVE",
"-41 -37 CURVE",
"-57 -41 LINE",
"-48 -76 OFFCURVE",
"-37 -106 OFFCURVE",
"-24 -135 CURVE",
"15 -150 OFFCURVE",
"75 -168 OFFCURVE",
"123 -168 CURVE SMOOTH"
);
}
);
width = 540;
},
{
anchors = (
{
name = bottom;
position = "{284, 0}";
},
{
name = top;
position = "{470, 700}";
}
);
layerId = "4C458150-A1D2-4ED7-A293-C8767657F79E";
paths = (
{
closed = 1;
nodes = (
"184 -168 OFFCURVE",
"281 -81 OFFCURVE",
"328 60 CURVE SMOOTH",
"390 245 OFFCURVE",
"435 430 OFFCURVE",
"471 586 CURVE SMOOTH",
"489 664 OFFCURVE",
"495 681 OFFCURVE",
"534 681 CURVE SMOOTH",
"563 681 OFFCURVE",
"599 679 OFFCURVE",
"608 679 CURVE",
"606 700 OFFCURVE",
"600 715 OFFCURVE",
"590 715 CURVE SMOOTH",
"284 715 OFFCURVE",
"46 697 OFFCURVE",
"56 546 CURVE SMOOTH",
"59 499 OFFCURVE",
"92 462 OFFCURVE",
"131 450 CURVE",
"138 450 OFFCURVE",
"146 451 OFFCURVE",
"150 453 CURVE",
"117 471 OFFCURVE",
"104 500 OFFCURVE",
"102 528 CURVE SMOOTH",
"94 645 OFFCURVE",
"274 673 OFFCURVE",
"419 673 CURVE SMOOTH",
"433 673 OFFCURVE",
"439 666 OFFCURVE",
"436 647 CURVE SMOOTH",
"413 500 OFFCURVE",
"344 262 OFFCURVE",
"279 72 CURVE SMOOTH",
"234 -60 OFFCURVE",
"165 -139 OFFCURVE",
"39 -139 CURVE SMOOTH",
"-63 -139 OFFCURVE",
"-109 -94 OFFCURVE",
"-136 -37 CURVE",
"-152 -41 LINE",
"-150 -76 OFFCURVE",
"-144 -106 OFFCURVE",
"-136 -135 CURVE",
"-100 -150 OFFCURVE",
"-30 -168 OFFCURVE",
"18 -168 CURVE SMOOTH"
);
}
);
width = 500;
}
);
note = J;
unicode = 004A;
},
{
glyphname = K;
lastChange = "2018-02-22 15:36:46 +0000";
layers = (
{
anchors = (
{
name = bottom;
position = "{414, 0}";
},
{
name = top;
position = "{413, 700}";
}
);
layerId = "0B1DFD06-3317-40CA-B510-4969A0718C16";
paths = (
{
closed = 1;
nodes = (
"286 457 OFFCURVE",
"303 655 CURVE SMOOTH",
"304 664 OFFCURVE",
"311 668 OFFCURVE",
"318 668 CURVE SMOOTH",
"344 668 OFFCURVE",
"380 670 OFFCURVE",
"398 670 CURVE",
"398 679 OFFCURVE",
"398 700 OFFCURVE",
"396 712 CURVE",
"280 702 OFFCURVE",
"189 690 OFFCURVE",
"81 708 CURVE",
"71 711 OFFCURVE",
"62 717 OFFCURVE",
"60 726 CURVE",
"44 726 OFFCURVE",
"40 684 OFFCURVE",
"45 665 CURVE SMOOTH",
"47 658 OFFCURVE",
"54 655 OFFCURVE",
"67 655 CURVE SMOOTH",
"115 655 OFFCURVE",
"173 664 OFFCURVE",
"233 664 CURVE SMOOTH",
"242 664 OFFCURVE",
"245 658 OFFCURVE",
"246 651 CURVE SMOOTH",
"248 635 OFFCURVE",
"246 190 OFFCURVE",
"201 -5 CURVE",
"202 -10 OFFCURVE",
"207 -12 OFFCURVE",
"213 -12 CURVE",
"220 -3 OFFCURVE",
"241 0 OFFCURVE",
"255 0 CURVE SMOOTH",
"269 0 OFFCURVE",
"275 5 OFFCURVE",
"275 25 CURVE SMOOTH",
"281 224 OFFCURVE"
);
},
{
closed = 1;
nodes = (
"506 30 OFFCURVE",
"880 -224 OFFCURVE",
"1233 -224 CURVE SMOOTH",
"1301 -224 OFFCURVE",
"1393 -216 OFFCURVE",
"1438 -192 CURVE SMOOTH",
"1489 -165 OFFCURVE",
"1496 -143 OFFCURVE",
"1491 -124 CURVE SMOOTH",
"1488 -113 OFFCURVE",
"1482 -103 OFFCURVE",
"1475 -99 CURVE",
"1439 -134 OFFCURVE",
"1345 -184 OFFCURVE",
"1235 -184 CURVE SMOOTH",
"907 -184 OFFCURVE",
"579 45 OFFCURVE",
"326 340 CURVE",
"328 329 LINE",
"407 404 OFFCURVE",
"729 695 OFFCURVE",
"766 689 CURVE",
"765 697 LINE",
"749 702 OFFCURVE",
"721 711 OFFCURVE",
"706 718 CURVE",
"700 718 LINE",
"543 600 OFFCURVE",
"408 450 OFFCURVE",
"270 336 CURVE"
);
}
);
width = 807;
},
{
anchors = (
{
name = bottom;
position = "{367, 0}";
},
{
name = top;
position = "{490, 700}";
}
);
layerId = "4C458150-A1D2-4ED7-A293-C8767657F79E";
paths = (
{
closed = 1;
nodes = (
"333 455 OFFCURVE",
"381 655 CURVE SMOOTH",
"383 664 OFFCURVE",
"391 668 OFFCURVE",
"398 668 CURVE SMOOTH",
"424 669 OFFCURVE",
"451 670 OFFCURVE",
"469 670 CURVE",
"471 679 OFFCURVE",
"475 700 OFFCURVE",
"475 712 CURVE",
"366 702 OFFCURVE",
"268 690 OFFCURVE",
"159 708 CURVE",
"149 711 OFFCURVE",
"142 717 OFFCURVE",
"141 726 CURVE",
"125 726 OFFCURVE",
"114 684 OFFCURVE",
"115 665 CURVE SMOOTH",
"116 658 OFFCURVE",
"123 655 OFFCURVE",
"136 655 CURVE SMOOTH",
"184 655 OFFCURVE",
"252 664 OFFCURVE",
"312 664 CURVE SMOOTH",
"321 664 OFFCURVE",
"323 658 OFFCURVE",
"323 651 CURVE SMOOTH",
"323 635 OFFCURVE",
"233 190 OFFCURVE",
"153 -5 CURVE",
"153 -10 OFFCURVE",
"158 -12 OFFCURVE",
"164 -12 CURVE",
"173 -3 OFFCURVE",
"194 0 OFFCURVE",
"208 0 CURVE SMOOTH",
"222 0 OFFCURVE",
"229 5 OFFCURVE",
"233 25 CURVE SMOOTH",
"274 224 OFFCURVE"
);
},
{
closed = 1;
nodes = (
"488 25 OFFCURVE",
"909 -194 OFFCURVE",
"1182 -194 CURVE SMOOTH",
"1250 -194 OFFCURVE",
"1313 -186 OFFCURVE",
"1363 -162 CURVE SMOOTH",
"1418 -135 OFFCURVE",
"1430 -113 OFFCURVE",
"1428 -94 CURVE SMOOTH",
"1427 -83 OFFCURVE",
"1422 -73 OFFCURVE",
"1416 -69 CURVE",
"1374 -104 OFFCURVE",
"1301 -154 OFFCURVE",
"1191 -154 CURVE SMOOTH",
"893 -154 OFFCURVE",
"557 40 OFFCURVE",
"332 340 CURVE",
"332 329 LINE",
"424 404 OFFCURVE",
"801 695 OFFCURVE",
"837 689 CURVE",
"837 697 LINE",
"822 702 OFFCURVE",
"799 711 OFFCURVE",
"786 718 CURVE",
"780 718 LINE",
"602 600 OFFCURVE",
"443 450 OFFCURVE",
"282 336 CURVE"
);
}
);
width = 807;
}
);
note = K;
unicode = 004B;
},
{
glyphname = L;
lastChange = "2018-02-25 14:24:59 +0000";
layers = (
{
anchors = (
{
name = bottom;
position = "{373, 0}";
},
{
name = center;
position = "{373, 350}";
},
{
name = top;
position = "{299, 700}";
},
{
name = topright;
position = "{438, 485}";
}
);
layerId = "0B1DFD06-3317-40CA-B510-4969A0718C16";
paths = (
{
closed = 1;
nodes = (
"398 680 OFFCURVE",
"386 721 OFFCURVE",
"375 724 CURVE",
"319 724 OFFCURVE",
"255 712 OFFCURVE",
"225 699 CURVE SMOOTH",
"216 695 OFFCURVE",
"209 688 OFFCURVE",
"209 675 CURVE SMOOTH",
"209 414 OFFCURVE",
"250 37 OFFCURVE",
"30 37 CURVE SMOOTH",
"22 37 OFFCURVE",
"22 33 OFFCURVE",
"23 27 CURVE SMOOTH",
"24 19 OFFCURVE",
"45 -13 OFFCURVE",
"55 -13 CURVE",
"123 7 OFFCURVE",
"269 18 OFFCURVE",
"408 18 CURVE SMOOTH",
"502 18 OFFCURVE",
"589 14 OFFCURVE",
"649 -6 CURVE SMOOTH",
"664 -11 OFFCURVE",
"666 -24 OFFCURVE",
"667 -33 CURVE",
"673 -37 OFFCURVE",
"678 -38 OFFCURVE",
"682 -38 CURVE",
"684 -23 OFFCURVE",
"678 22 OFFCURVE",
"673 36 CURVE SMOOTH",
"663 64 OFFCURVE",
"608 65 OFFCURVE",
"546 65 CURVE SMOOTH",
"420 65 OFFCURVE",
"240 46 OFFCURVE",
"137 46 CURVE",
"143 35 LINE",
"238 75 OFFCURVE",
"266 337 OFFCURVE",
"266 625 CURVE SMOOTH",
"266 669 OFFCURVE",
"278 683 OFFCURVE",
"324 683 CURVE SMOOTH",
"348 683 OFFCURVE",
"377 680 OFFCURVE",
"395 677 CURVE"
);
}
);
width = 707;
},
{
anchors = (
{
name = bottom;
position = "{313, 0}";
},
{
name = center;
position = "{374, 350}";
},
{
name = top;
position = "{436, 700}";
},
{
name = topright;
position = "{595, 485}";
}
);
layerId = "4C458150-A1D2-4ED7-A293-C8767657F79E";
paths = (
{
closed = 1;
nodes = (
"528 680 OFFCURVE",
"519 721 OFFCURVE",
"506 724 CURVE",
"450 724 OFFCURVE",
"398 716 OFFCURVE",
"358 700 CURVE SMOOTH",
"348 696 OFFCURVE",
"341 691 OFFCURVE",
"337 672 CURVE SMOOTH",
"302 505 OFFCURVE",
"270 37 OFFCURVE",
"36 37 CURVE SMOOTH",
"28 37 OFFCURVE",
"27 33 OFFCURVE",
"27 27 CURVE SMOOTH",
"27 19 OFFCURVE",
"42 -13 OFFCURVE",
"52 -13 CURVE",
"124 7 OFFCURVE",
"263 18 OFFCURVE",
"412 18 CURVE SMOOTH",
"506 18 OFFCURVE",
"606 17 OFFCURVE",
"663 -2 CURVE SMOOTH",
"677 -6 OFFCURVE",
"679 -26 OFFCURVE",
"679 -35 CURVE",
"682 -37 OFFCURVE",
"689 -38 OFFCURVE",
"693 -38 CURVE",
"693 -4 OFFCURVE",
"694 21 OFFCURVE",
"690 40 CURVE SMOOTH",
"685 62 OFFCURVE",
"632 69 OFFCURVE",
"570 69 CURVE SMOOTH",
"463 69 OFFCURVE",
"250 46 OFFCURVE",
"138 43 CURVE",
"142 32 LINE",
"247 82 OFFCURVE",
"308 261 OFFCURVE",
"386 625 CURVE SMOOTH",
"393 657 OFFCURVE",
"411 682 OFFCURVE",
"450 682 CURVE SMOOTH",
"475 682 OFFCURVE",
"509 680 OFFCURVE",
"524 676 CURVE"
);
}
);
width = 707;
}
);
note = L;
unicode = 004C;
},
{
glyphname = M;
lastChange = "2018-02-25 10:07:36 +0000";
layers = (
{
anchors = (
{
name = bottom;
position = "{699, 0}";
},
{
name = top;
position = "{699, 700}";
}
);
layerId = "0B1DFD06-3317-40CA-B510-4969A0718C16";
paths = (
{
closed = 1;
nodes = (
"1201 -31 OFFCURVE",
"1241 64 OFFCURVE",
"1228 140 CURVE SMOOTH",
"1224 164 OFFCURVE",
"1215 175 OFFCURVE",
"1205 180 CURVE",
"1204 84 OFFCURVE",
"1168 18 OFFCURVE",
"1101 18 CURVE SMOOTH",
"1019 18 OFFCURVE",
"969 116 OFFCURVE",
"947 240 CURVE SMOOTH",
"926 361 OFFCURVE",
"920 523 OFFCURVE",
"953 620 CURVE SMOOTH",
"976 688 OFFCURVE",
"993 704 OFFCURVE",
"1026 704 CURVE SMOOTH",
"1035 704 OFFCURVE",
"1043 703 OFFCURVE",
"1052 702 CURVE",
"1046 726 OFFCURVE",
"1022 761 OFFCURVE",
"994 761 CURVE SMOOTH",
"956 761 OFFCURVE",
"933 709 OFFCURVE",
"890 626 CURVE SMOOTH",
"835 519 OFFCURVE",
"691 186 OFFCURVE",
"655 91 CURVE",
"673 92 LINE",
"645 178 OFFCURVE",
"557 451 OFFCURVE",
"524 553 CURVE",
"519 611 OFFCURVE",
"512 654 OFFCURVE",
"505 688 CURVE SMOOTH",
"501 708 OFFCURVE",
"477 725 OFFCURVE",
"455 725 CURVE SMOOTH",
"437 725 OFFCURVE",
"429 716 OFFCURVE",
"433 695 CURVE SMOOTH",
"439 662 OFFCURVE",
"454 618 OFFCURVE",
"474 559 CURVE",
"418 234 OFFCURVE",
"348 30 OFFCURVE",
"180 30 CURVE SMOOTH",
"94 30 OFFCURVE",
"22 68 OFFCURVE",
"22 153 CURVE SMOOTH",
"22 198 OFFCURVE",
"33 245 OFFCURVE",
"62 282 CURVE",
"56 286 OFFCURVE",
"50 287 OFFCURVE",
"45 287 CURVE SMOOTH",
"27 287 OFFCURVE",
"-19 247 OFFCURVE",
"-19 167 CURVE SMOOTH",
"-19 28 OFFCURVE",
"97 -14 OFFCURVE",
"175 -14 CURVE SMOOTH",
"393 -14 OFFCURVE",
"445 216 OFFCURVE",
"511 510 CURVE",
"494 511 LINE",
"524 425 OFFCURVE",
"616 129 OFFCURVE",
"632 64 CURVE SMOOTH",
"634 56 OFFCURVE",
"636 49 OFFCURVE",
"637 44 CURVE SMOOTH",
"643 15 OFFCURVE",
"636 11 OFFCURVE",
"633 8 CURVE",
"634 6 OFFCURVE",
"644 -2 OFFCURVE",
"651 -2 CURVE SMOOTH",
"658 -2 OFFCURVE",
"668 11 OFFCURVE",
"696 18 CURVE SMOOTH",
"700 19 OFFCURVE",
"700 22 OFFCURVE",
"700 25 CURVE SMOOTH",
"700 28 OFFCURVE",
"695 34 OFFCURVE",
"694 42 CURVE SMOOTH",
"692 57 OFFCURVE",
"700 81 OFFCURVE",
"707 95 CURVE SMOOTH",
"763 207 OFFCURVE",
"847 453 OFFCURVE",
"903 542 CURVE",
"895 548 LINE",
"883 474 OFFCURVE",
"876 338 OFFCURVE",
"897 220 CURVE SMOOTH",
"921 87 OFFCURVE",
"993 -31 OFFCURVE",
"1100 -31 CURVE SMOOTH"
);
}
);
width = 1141;
},
{
anchors = (
{
name = bottom;
position = "{635, 0}";
},
{
name = top;
position = "{758, 700}";
}
);
layerId = "4C458150-A1D2-4ED7-A293-C8767657F79E";
paths = (
{
closed = 1;
nodes = (
"1141 -31 OFFCURVE",
"1198 64 OFFCURVE",
"1198 140 CURVE SMOOTH",
"1198 164 OFFCURVE",
"1191 175 OFFCURVE",
"1182 180 CURVE",
"1164 84 OFFCURVE",
"1117 18 OFFCURVE",
"1050 18 CURVE SMOOTH",
"968 18 OFFCURVE",
"935 116 OFFCURVE",
"935 240 CURVE SMOOTH",
"935 361 OFFCURVE",
"958 523 OFFCURVE",
"1008 620 CURVE SMOOTH",
"1043 688 OFFCURVE",
"1063 704 OFFCURVE",
"1096 704 CURVE SMOOTH",
"1105 704 OFFCURVE",
"1113 703 OFFCURVE",
"1121 702 CURVE",
"1120 726 OFFCURVE",
"1102 761 OFFCURVE",
"1074 761 CURVE SMOOTH",
"1036 761 OFFCURVE",
"1007 729 OFFCURVE",
"950 646 CURVE SMOOTH",
"876 539 OFFCURVE",
"673 206 OFFCURVE",
"620 111 CURVE",
"635 92 LINE",
"622 178 OFFCURVE",
"582 451 OFFCURVE",
"567 553 CURVE",
"572 611 OFFCURVE",
"582 654 OFFCURVE",
"582 688 CURVE SMOOTH",
"582 708 OFFCURVE",
"550 725 OFFCURVE",
"528 725 CURVE SMOOTH",
"510 725 OFFCURVE",
"501 716 OFFCURVE",
"501 695 CURVE SMOOTH",
"501 662 OFFCURVE",
"508 625 OFFCURVE",
"517 566 CURVE",
"384 241 OFFCURVE",
"291 40 OFFCURVE",
"133 40 CURVE SMOOTH",
"47 40 OFFCURVE",
"-2 88 OFFCURVE",
"-2 173 CURVE SMOOTH",
"-2 217 OFFCURVE",
"14 255 OFFCURVE",
"49 292 CURVE",
"44 296 OFFCURVE",
"38 297 OFFCURVE",
"33 297 CURVE SMOOTH",
"-5 297 OFFCURVE",
"-47 240 OFFCURVE",
"-47 147 CURVE SMOOTH",
"-47 49 OFFCURVE",
"39 -22 OFFCURVE",
"117 -22 CURVE SMOOTH",
"335 -22 OFFCURVE",
"426 226 OFFCURVE",
"544 520 CURVE",
"527 521 LINE",
"542 435 OFFCURVE",
"585 129 OFFCURVE",
"589 64 CURVE SMOOTH",
"590 56 OFFCURVE",
"590 49 OFFCURVE",
"590 44 CURVE SMOOTH",
"590 15 OFFCURVE",
"584 11 OFFCURVE",
"580 8 CURVE",
"581 6 OFFCURVE",
"589 -2 OFFCURVE",
"596 -2 CURVE SMOOTH",
"603 -2 OFFCURVE",
"616 13 OFFCURVE",
"645 18 CURVE SMOOTH",
"649 19 OFFCURVE",
"650 22 OFFCURVE",
"650 25 CURVE SMOOTH",
"650 28 OFFCURVE",
"647 34 OFFCURVE",
"647 42 CURVE SMOOTH",
"647 57 OFFCURVE",
"660 81 OFFCURVE",
"669 95 CURVE SMOOTH",
"731 213 OFFCURVE",
"873 446 OFFCURVE",
"945 535 CURVE",
"938 541 LINE",
"913 467 OFFCURVE",
"881 338 OFFCURVE",
"881 220 CURVE SMOOTH",
"881 87 OFFCURVE",
"933 -31 OFFCURVE",
"1040 -31 CURVE SMOOTH"
);
}
);
width = 1141;
}
);
note = M;
unicode = 004D;
},
{
glyphname = N;
lastChange = "2018-02-23 07:14:04 +0000";
layers = (
{
anchors = (
{
name = bottom;
position = "{438, 0}";
},
{
name = top;
position = "{476, 650}";
}
);
layerId = "0B1DFD06-3317-40CA-B510-4969A0718C16";
paths = (
{
closed = 1;
nodes = (
"231 -11 LINE",
"231 206 OFFCURVE",
"231 393 OFFCURVE",
"244 619 CURVE",
"233 612 LINE",
"349 440 OFFCURVE",
"450 284 OFFCURVE",
"634 -8 CURVE",
"649 -8 OFFCURVE",
"665 -6 OFFCURVE",
"677 -2 CURVE",
"677 457 OFFCURVE",
"654 768 OFFCURVE",
"839 768 CURVE",
"831 778 OFFCURVE",
"788 805 OFFCURVE",
"772 805 CURVE SMOOTH",
"623 805 OFFCURVE",
"627 475 OFFCURVE",
"627 63 CURVE",
"638 76 LINE",
"484 311 OFFCURVE",
"382 467 OFFCURVE",
"243 678 CURVE SMOOTH",
"236 689 OFFCURVE",
"228 694 OFFCURVE",
"222 694 CURVE",
"196 684 OFFCURVE",
"169 677 OFFCURVE",
"131 677 CURVE SMOOTH",
"99 677 OFFCURVE",
"67 678 OFFCURVE",
"42 687 CURVE",
"40 677 OFFCURVE",
"40 668 OFFCURVE",
"41 660 CURVE SMOOTH",
"44 642 OFFCURVE",
"55 636 OFFCURVE",
"72 636 CURVE SMOOTH",
"96 636 OFFCURVE",
"139 639 OFFCURVE",
"164 639 CURVE SMOOTH",
"192 639 OFFCURVE",
"199 629 OFFCURVE",
"199 602 CURVE SMOOTH",
"199 458 OFFCURVE",
"178 169 OFFCURVE",
"178 34 CURVE SMOOTH",
"178 7 OFFCURVE",
"195 -3 OFFCURVE",
"226 -11 CURVE"
);
}
);
width = 780;
},
{
anchors = (
{
name = bottom;
position = "{368, 0}";
},
{
name = top;
position = "{521, 650}";
}
);
layerId = "4C458150-A1D2-4ED7-A293-C8767657F79E";
paths = (
{
closed = 1;
nodes = (
"167 -15 LINE",
"167 202 OFFCURVE",
"230 388 OFFCURVE",
"288 614 CURVE",
"275 607 LINE",
"363 436 OFFCURVE",
"430 284 OFFCURVE",
"563 -8 CURVE",
"578 -8 OFFCURVE",
"594 -6 OFFCURVE",
"607 -2 CURVE",
"685 457 OFFCURVE",
"723 768 OFFCURVE",
"910 768 CURVE",
"904 778 OFFCURVE",
"860 805 OFFCURVE",
"844 805 CURVE SMOOTH",
"699 805 OFFCURVE",
"634 470 OFFCURVE",
"571 55 CURVE",
"583 72 LINE",
"471 310 OFFCURVE",
"397 468 OFFCURVE",
"293 678 CURVE SMOOTH",
"287 689 OFFCURVE",
"281 694 OFFCURVE",
"275 694 CURVE",
"247 684 OFFCURVE",
"219 677 OFFCURVE",
"181 677 CURVE SMOOTH",
"149 677 OFFCURVE",
"117 678 OFFCURVE",
"93 687 CURVE",
"90 677 OFFCURVE",
"88 668 OFFCURVE",
"88 660 CURVE SMOOTH",
"88 642 OFFCURVE",
"97 636 OFFCURVE",
"114 636 CURVE SMOOTH",
"138 636 OFFCURVE",
"165 639 OFFCURVE",
"190 639 CURVE SMOOTH",
"222 639 OFFCURVE",
"228 629 OFFCURVE",
"228 604 CURVE SMOOTH",
"228 500 OFFCURVE",
"109 178 OFFCURVE",
"109 43 CURVE SMOOTH",
"109 35 OFFCURVE",
"110 27 OFFCURVE",
"111 20 CURVE",
"118 4 OFFCURVE",
"149 -9 OFFCURVE",
"162 -15 CURVE"
);
}
);
width = 780;
}
);
note = N;
unicode = 004E;
},
{
glyphname = O;
lastChange = "2018-02-21 16:17:12 +0000";
layers = (
{
anchors = (
{
name = bottom;
position = "{451, 0}";
},
{
name = center;
position = "{433, 350}";
},
{
name = ogonek;
position = "{559, 10}";
},
{
name = top;
position = "{447, 700}";
},
{
name = topleft;
position = "{39, 700}";
},
{
name = topright;
position = "{702, 625}";
}
);
hints = (
{
horizontal = 1;
origin = "{0, 11}";
target = "{1, 11}";
},
{
horizontal = 1;
origin = "{0, 5}";
target = "{1, 5}";
},
{
origin = "{0, 8}";
target = "{1, 2}";
},
{
origin = "{1, 8}";
target = "{0, 2}";
}
);
layerId = "0B1DFD06-3317-40CA-B510-4969A0718C16";
paths = (
{
closed = 1;
nodes = (
"663 -15 OFFCURVE",
"792 155 OFFCURVE",
"792 358 CURVE SMOOTH",
"792 573 OFFCURVE",
"676 719 OFFCURVE",
"465 719 CURVE SMOOTH",
"243 719 OFFCURVE",
"108 556 OFFCURVE",
"108 351 CURVE SMOOTH",
"108 135 OFFCURVE",
"227 -15 OFFCURVE",
"438 -15 CURVE SMOOTH"
);
},
{
closed = 1;
nodes = (
"275 30 OFFCURVE",
"171 167 OFFCURVE",
"171 342 CURVE SMOOTH",
"171 529 OFFCURVE",
"256 677 OFFCURVE",
"463 677 CURVE SMOOTH",
"627 677 OFFCURVE",
"729 541 OFFCURVE",
"729 360 CURVE SMOOTH",
"729 168 OFFCURVE",
"638 30 OFFCURVE",
"433 30 CURVE SMOOTH"
);
}
);
width = 846;
},
{
anchors = (
{
name = bottom;
position = "{389, 0}";
},
{
name = center;
position = "{433, 350}";
},
{
name = ogonek;
position = "{499, 10}";
},
{
name = top;
position = "{508, 700}";
},
{
name = topleft;
position = "{100, 700}";
},
{
name = topright;
position = "{728, 625}";
}
);
layerId = "4C458150-A1D2-4ED7-A293-C8767657F79E";
paths = (
{
closed = 1;
nodes = (
"654 -15 OFFCURVE",
"795 186 OFFCURVE",
"795 413 CURVE SMOOTH",
"795 605 OFFCURVE",
"680 719 OFFCURVE",
"494 719 CURVE SMOOTH",
"252 719 OFFCURVE",
"105 526 OFFCURVE",
"105 296 CURVE SMOOTH",
"105 106 OFFCURVE",
"221 -15 OFFCURVE",
"409 -15 CURVE SMOOTH"
);
},
{
closed = 1;
nodes = (
"265 30 OFFCURVE",
"167 126 OFFCURVE",
"167 282 CURVE SMOOTH",
"167 496 OFFCURVE",
"278 677 OFFCURVE",
"507 677 CURVE SMOOTH",
"635 677 OFFCURVE",
"733 583 OFFCURVE",
"733 421 CURVE SMOOTH",
"733 198 OFFCURVE",
"615 30 OFFCURVE",
"389 30 CURVE SMOOTH"
);
}
);
width = 846;
}
);
note = O;
unicode = 004F;
},
{
glyphname = P;
lastChange = "2018-02-23 06:42:02 +0000";
layers = (
{
hints = (
{
horizontal = 1;
origin = "{0, 65}";
target = up;
type = BottomGhost;
},
{
horizontal = 1;
origin = "{0, 32}";
target = "{0, 20}";
},
{
horizontal = 1;
origin = "{0, 44}";
target = "{0, 14}";
},
{
horizontal = 1;
origin = "{0, 50}";
target = "{0, 41}";
},
{
origin = "{0, 59}";
target = "{0, 5}";
},
{
origin = "{0, 17}";
target = "{0, 35}";
}
);
layerId = "0B1DFD06-3317-40CA-B510-4969A0718C16";
paths = (
{
closed = 1;
nodes = (
"246 -12 OFFCURVE",
"256 -11 OFFCURVE",
"267 -8 CURVE",
"265 1 OFFCURVE",
"260 9 OFFCURVE",
"259 17 CURVE SMOOTH",
"257 28 OFFCURVE",
"255 51 OFFCURVE",
"255 78 CURVE SMOOTH",
"256 138 OFFCURVE",
"269 523 OFFCURVE",
"275 632 CURVE SMOOTH",
"277 661 OFFCURVE",
"294 670 OFFCURVE",
"402 670 CURVE SMOOTH",
"508 670 OFFCURVE",
"593 620 OFFCURVE",
"593 508 CURVE SMOOTH",
"593 393 OFFCURVE",
"513 336 OFFCURVE",
"409 336 CURVE SMOOTH",
"379 336 OFFCURVE",
"336 343 OFFCURVE",
"322 347 CURVE SMOOTH",
"319 348 OFFCURVE",
"314 340 OFFCURVE",
"317 330 CURVE SMOOTH",
"319 322 OFFCURVE",
"325 312 OFFCURVE",
"341 306 CURVE SMOOTH",
"360 299 OFFCURVE",
"393 293 OFFCURVE",
"420 293 CURVE SMOOTH",
"582 293 OFFCURVE",
"651 390 OFFCURVE",
"651 502 CURVE SMOOTH",
"651 645 OFFCURVE",
"546 716 OFFCURVE",
"402 716 CURVE SMOOTH",
"290 716 OFFCURVE",
"198 694 OFFCURVE",
"100 694 CURVE SMOOTH",
"59 694 OFFCURVE",
"39 694 OFFCURVE",
"0 716 CURVE",
"-2 704 OFFCURVE",
"-4 682 OFFCURVE",
"1 664 CURVE SMOOTH",
"4 652 OFFCURVE",
"20 646 OFFCURVE",
"40 646 CURVE SMOOTH",
"104 646 OFFCURVE",
"177 661 OFFCURVE",
"210 661 CURVE SMOOTH",
"219 661 OFFCURVE",
"223 656 OFFCURVE",
"223 643 CURVE SMOOTH",
"223 609 OFFCURVE",
"198 93 OFFCURVE",
"198 60 CURVE SMOOTH",
"198 43 OFFCURVE",
"199 26 OFFCURVE",
"201 13 CURVE SMOOTH",
"203 -3 OFFCURVE",
"211 -12 OFFCURVE",
"236 -12 CURVE SMOOTH"
);
}
);
width = 647;
},
{
layerId = "4C458150-A1D2-4ED7-A293-C8767657F79E";
paths = (
{
closed = 1;
nodes = (
"184 -12 OFFCURVE",
"194 -11 OFFCURVE",
"206 -8 CURVE",
"205 1 OFFCURVE",
"203 9 OFFCURVE",
"202 17 CURVE SMOOTH",
"200 31 OFFCURVE",
"202 51 OFFCURVE",
"207 78 CURVE SMOOTH",
"218 138 OFFCURVE",
"307 502 OFFCURVE",
"345 634 CURVE SMOOTH",
"355 669 OFFCURVE",
"403 670 OFFCURVE",
"468 670 CURVE SMOOTH",
"554 670 OFFCURVE",
"625 626 OFFCURVE",
"625 535 CURVE SMOOTH",
"625 410 OFFCURVE",
"540 336 OFFCURVE",
"406 336 CURVE SMOOTH",
"376 336 OFFCURVE",
"334 343 OFFCURVE",
"321 347 CURVE SMOOTH",
"318 348 OFFCURVE",
"312 340 OFFCURVE",
"313 330 CURVE SMOOTH",
"314 322 OFFCURVE",
"318 312 OFFCURVE",
"333 306 CURVE SMOOTH",
"351 299 OFFCURVE",
"383 293 OFFCURVE",
"410 293 CURVE SMOOTH",
"602 293 OFFCURVE",
"682 407 OFFCURVE",
"682 529 CURVE SMOOTH",
"682 650 OFFCURVE",
"600 716 OFFCURVE",
"476 716 CURVE SMOOTH",
"384 716 OFFCURVE",
"278 694 OFFCURVE",
"160 694 CURVE SMOOTH",
"119 694 OFFCURVE",
"99 694 OFFCURVE",
"64 716 CURVE",
"60 704 OFFCURVE",
"54 682 OFFCURVE",
"56 664 CURVE SMOOTH",
"57 652 OFFCURVE",
"72 646 OFFCURVE",
"92 646 CURVE SMOOTH",
"161 646 OFFCURVE",
"230 661 OFFCURVE",
"279 661 CURVE SMOOTH",
"288 661 OFFCURVE",
"294 656 OFFCURVE",
"294 643 CURVE SMOOTH",
"294 613 OFFCURVE",
"206 309 OFFCURVE",
"147 60 CURVE SMOOTH",
"143 43 OFFCURVE",
"142 29 OFFCURVE",
"143 13 CURVE SMOOTH",
"144 -3 OFFCURVE",
"149 -12 OFFCURVE",
"174 -12 CURVE SMOOTH"
);
}
);
width = 647;
}
);
note = P;
unicode = 0050;
},
{
glyphname = Q;
lastChange = "2018-02-22 08:21:19 +0000";
layers = (
{
hints = (
{
horizontal = 1;
origin = "{0, 48}";
target = "{0, 8}";
},
{
horizontal = 1;
origin = "{0, 23}";
target = "{0, 32}";
},
{
horizontal = 1;
place = "{43, 89}";
},
{
origin = "{0, 14}";
target = "{0, 41}";
},
{
origin = "{0, 35}";
target = "{0, 20}";
}
);
layerId = "0B1DFD06-3317-40CA-B510-4969A0718C16";
paths = (
{
closed = 1;
nodes = (
"903 -144 OFFCURVE",
"986 -97 OFFCURVE",
"986 -46 CURVE SMOOTH",
"986 -21 OFFCURVE",
"969 -19 OFFCURVE",
"960 -12 CURVE",
"931 -68 OFFCURVE",
"872 -114 OFFCURVE",
"789 -114 CURVE SMOOTH",
"578 -114 OFFCURVE",
"432 114 OFFCURVE",
"290 365 CURVE",
"221 352 OFFCURVE",
"171 304 OFFCURVE",
"171 214 CURVE SMOOTH",
"171 80 OFFCURVE",
"303 -8 OFFCURVE",
"454 -8 CURVE SMOOTH",
"667 -8 OFFCURVE",
"786 158 OFFCURVE",
"786 374 CURVE SMOOTH",
"786 590 OFFCURVE",
"647 713 OFFCURVE",
"467 713 CURVE SMOOTH",
"227 713 OFFCURVE",
"138 537 OFFCURVE",
"138 415 CURVE SMOOTH",
"138 384 OFFCURVE",
"158 374 OFFCURVE",
"181 374 CURVE",
"181 541 OFFCURVE",
"283 684 OFFCURVE",
"460 684 CURVE SMOOTH",
"610 684 OFFCURVE",
"725 577 OFFCURVE",
"726 374 CURVE SMOOTH",
"727 189 OFFCURVE",
"636 28 OFFCURVE",
"468 28 CURVE SMOOTH",
"344 28 OFFCURVE",
"219 97 OFFCURVE",
"219 210 CURVE SMOOTH",
"219 276 OFFCURVE",
"242 305 OFFCURVE",
"278 326 CURVE",
"247 325 LINE",
"374 94 OFFCURVE",
"540 -144 OFFCURVE",
"795 -144 CURVE SMOOTH"
);
}
);
width = 879;
},
{
layerId = "4C458150-A1D2-4ED7-A293-C8767657F79E";
paths = (
{
closed = 1;
nodes = (
"838 -140 OFFCURVE",
"937 -97 OFFCURVE",
"937 -46 CURVE SMOOTH",
"937 -37 OFFCURVE",
"924 -27 OFFCURVE",
"916 -17 CURVE",
"878 -73 OFFCURVE",
"809 -114 OFFCURVE",
"726 -114 CURVE SMOOTH",
"515 -114 OFFCURVE",
"383 121 OFFCURVE",
"285 372 CURVE",
"213 353 OFFCURVE",
"165 276 OFFCURVE",
"165 198 CURVE SMOOTH",
"165 74 OFFCURVE",
"271 -8 OFFCURVE",
"422 -8 CURVE SMOOTH",
"655 -8 OFFCURVE",
"814 188 OFFCURVE",
"814 445 CURVE SMOOTH",
"814 598 OFFCURVE",
"692 713 OFFCURVE",
"522 713 CURVE SMOOTH",
"252 713 OFFCURVE",
"172 507 OFFCURVE",
"172 425 CURVE SMOOTH",
"172 394 OFFCURVE",
"185 384 OFFCURVE",
"208 384 CURVE",
"224 513 OFFCURVE",
"313 684 OFFCURVE",
"520 684 CURVE SMOOTH",
"660 684 OFFCURVE",
"750 585 OFFCURVE",
"750 423 CURVE SMOOTH",
"750 219 OFFCURVE",
"630 28 OFFCURVE",
"442 28 CURVE SMOOTH",
"318 28 OFFCURVE",
"211 81 OFFCURVE",
"211 194 CURVE SMOOTH",
"211 252 OFFCURVE",
"224 300 OFFCURVE",
"265 326 CURVE",
"234 325 LINE",
"320 94 OFFCURVE",
"475 -140 OFFCURVE",
"730 -140 CURVE SMOOTH"
);
}
);
width = 879;
}
);
note = Q;
unicode = 0051;
},
{
glyphname = R;
lastChange = "2018-02-23 06:39:14 +0000";
layers = (
{
anchors = (
{
name = bottom;
position = "{406, 0}";
},
{
name = top;
position = "{406, 700}";
}
);
hints = (
{
horizontal = 1;
origin = "{0, 38}";
target = "{0, 47}";
},
{
horizontal = 1;
place = "{373, 73}";
},
{
horizontal = 1;
origin = "{0, 57}";
target = "{0, 26}";
},
{
horizontal = 1;
origin = "{0, 57}";
target = "{0, 5}";
},
{
origin = "{0, 60}";
target = "{0, 2}";
},
{
origin = "{0, 29}";
target = "{0, 54}";
},
{
origin = "{0, 44}";
target = "{0, 41}";
}
);
layerId = "0B1DFD06-3317-40CA-B510-4969A0718C16";
paths = (
{
closed = 1;
nodes = (
"95 443 OFFCURVE",
"67 484 OFFCURVE",
"67 530 CURVE SMOOTH",
"67 606 OFFCURVE",
"143 671 OFFCURVE",
"239 671 CURVE SMOOTH",
"253 671 OFFCURVE",
"259 667 OFFCURVE",
"259 647 CURVE SMOOTH",
"259 496 OFFCURVE",
"258 264 OFFCURVE",
"235 -27 CURVE",
"239 -29 OFFCURVE",
"246 -33 OFFCURVE",
"249 -33 CURVE",
"256 -14 OFFCURVE",
"270 7 OFFCURVE",
"304 4 CURVE",
"303 79 OFFCURVE",
"302 151 OFFCURVE",
"302 221 CURVE SMOOTH",
"302 395 OFFCURVE",
"307 548 OFFCURVE",
"318 658 CURVE SMOOTH",
"320 677 OFFCURVE",
"335 679 OFFCURVE",
"381 679 CURVE SMOOTH",
"513 679 OFFCURVE",
"631 614 OFFCURVE",
"631 497 CURVE SMOOTH",
"631 410 OFFCURVE",
"541 362 OFFCURVE",
"394 362 CURVE SMOOTH",
"385 362 OFFCURVE",
"382 359 OFFCURVE",
"382 350 CURVE",
"629 59 OFFCURVE",
"985 -249 OFFCURVE",
"1337 -249 CURVE SMOOTH",
"1455 -249 OFFCURVE",
"1520 -207 OFFCURVE",
"1520 -172 CURVE SMOOTH",
"1520 -164 OFFCURVE",
"1518 -150 OFFCURVE",
"1506 -143 CURVE",
"1482 -179 OFFCURVE",
"1422 -204 OFFCURVE",
"1318 -204 CURVE SMOOTH",
"1008 -204 OFFCURVE",
"613 137 OFFCURVE",
"472 340 CURVE",
"472 329 LINE",
"617 354 OFFCURVE",
"686 434 OFFCURVE",
"686 515 CURVE SMOOTH",
"686 659 OFFCURVE",
"513 713 OFFCURVE",
"329 713 CURVE SMOOTH",
"182 713 OFFCURVE",
"16 651 OFFCURVE",
"16 531 CURVE SMOOTH",
"16 486 OFFCURVE",
"39 436 OFFCURVE",
"84 417 CURVE SMOOTH",
"98 411 OFFCURVE",
"110 408 OFFCURVE",
"127 408 CURVE"
);
}
);
width = 800;
},
{
anchors = (
{
name = bottom;
position = "{329, 0}";
},
{
name = top;
position = "{551, 700}";
}
);
layerId = "4C458150-A1D2-4ED7-A293-C8767657F79E";
paths = (
{
closed = 1;
nodes = (
"133 441 OFFCURVE",
"125 466 OFFCURVE",
"125 496 CURVE SMOOTH",
"125 586 OFFCURVE",
"231 671 OFFCURVE",
"341 671 CURVE SMOOTH",
"349 671 OFFCURVE",
"356 670 OFFCURVE",
"356 662 CURVE SMOOTH",
"356 659 OFFCURVE",
"355 651 OFFCURVE",
"354 647 CURVE SMOOTH",
"321 496 OFFCURVE",
"246 264 OFFCURVE",
"140 -27 CURVE",
"144 -29 OFFCURVE",
"150 -33 OFFCURVE",
"153 -33 CURVE",
"166 -14 OFFCURVE",
"185 7 OFFCURVE",
"218 4 CURVE",
"287 264 OFFCURVE",
"359 504 OFFCURVE",
"416 658 CURVE SMOOTH",
"423 677 OFFCURVE",
"439 679 OFFCURVE",
"485 679 CURVE SMOOTH",
"610 679 OFFCURVE",
"690 625 OFFCURVE",
"690 539 CURVE SMOOTH",
"690 425 OFFCURVE",
"578 362 OFFCURVE",
"409 362 CURVE SMOOTH",
"397 362 OFFCURVE",
"394 356 OFFCURVE",
"394 350 CURVE",
"628 59 OFFCURVE",
"912 -239 OFFCURVE",
"1244 -239 CURVE SMOOTH",
"1370 -239 OFFCURVE",
"1419 -184 OFFCURVE",
"1419 -147 CURVE SMOOTH",
"1419 -141 OFFCURVE",
"1415 -135 OFFCURVE",
"1411 -132 CURVE",
"1377 -168 OFFCURVE",
"1333 -199 OFFCURVE",
"1236 -199 CURVE SMOOTH",
"946 -199 OFFCURVE",
"625 137 OFFCURVE",
"473 340 CURVE",
"470 329 LINE",
"645 358 OFFCURVE",
"750 459 OFFCURVE",
"750 552 CURVE SMOOTH",
"750 661 OFFCURVE",
"639 713 OFFCURVE",
"443 713 CURVE SMOOTH",
"280 713 OFFCURVE",
"73 637 OFFCURVE",
"73 491 CURVE SMOOTH",
"73 455 OFFCURVE",
"90 429 OFFCURVE",
"115 417 CURVE SMOOTH",
"127 411 OFFCURVE",
"138 408 OFFCURVE",
"155 408 CURVE"
);
}
);
width = 822;
}
);
note = R;
unicode = 0052;
},
{
glyphname = S;
lastChange = "2018-02-23 06:41:38 +0000";
layers = (
{
anchors = (
{
name = bottom;
position = "{289, 0}";
},
{
name = top;
position = "{287, 700}";
}
);
hints = (
{
horizontal = 1;
origin = "{0, 50}";
target = "{0, 38}";
},
{
horizontal = 1;
origin = "{0, 26}";
target = "{0, 11}";
},
{
origin = "{0, 44}";
target = "{0, 41}";
},
{
origin = "{0, 29}";
target = "{0, 8}";
},
{
origin = "{0, 35}";
target = "{0, 2}";
},
{
origin = "{0, 14}";
target = "{0, 23}";
}
);
layerId = "0B1DFD06-3317-40CA-B510-4969A0718C16";
paths = (
{
closed = 1;
nodes = (
"366 -12 OFFCURVE",
"481 63 OFFCURVE",
"481 188 CURVE SMOOTH",
"481 280 OFFCURVE",
"415 329 OFFCURVE",
"313 381 CURVE SMOOTH",
"219 429 OFFCURVE",
"139 468 OFFCURVE",
"139 558 CURVE SMOOTH",
"139 622 OFFCURVE",
"193 665 OFFCURVE",
"277 665 CURVE SMOOTH",
"368 665 OFFCURVE",
"415 634 OFFCURVE",
"415 592 CURVE SMOOTH",
"415 573 OFFCURVE",
"414 544 OFFCURVE",
"413 532 CURVE",
"420 529 OFFCURVE",
"433 525 OFFCURVE",
"442 525 CURVE",
"444 557 OFFCURVE",
"448 621 OFFCURVE",
"448 649 CURVE",
"433 673 OFFCURVE",
"373 707 OFFCURVE",
"285 707 CURVE SMOOTH",
"175 707 OFFCURVE",
"88 646 OFFCURVE",
"88 543 CURVE SMOOTH",
"88 446 OFFCURVE",
"158 403 OFFCURVE",
"268 345 CURVE SMOOTH",
"354 300 OFFCURVE",
"422 256 OFFCURVE",
"422 185 CURVE SMOOTH",
"422 92 OFFCURVE",
"353 28 OFFCURVE",
"254 28 CURVE SMOOTH",
"142 28 OFFCURVE",
"81 75 OFFCURVE",
"66 182 CURVE",
"59 179 OFFCURVE",
"50 173 OFFCURVE",
"45 167 CURVE",
"50 138 OFFCURVE",
"54 86 OFFCURVE",
"53 52 CURVE",
"71 25 OFFCURVE",
"141 -12 OFFCURVE",
"244 -12 CURVE SMOOTH"
);
}
);
width = 530;
},
{
anchors = (
{
name = bottom;
position = "{228, 0}";
},
{
name = top;
position = "{407, 700}";
}
);
layerId = "4C458150-A1D2-4ED7-A293-C8767657F79E";
paths = (
{
closed = 1;
nodes = (
"329 -12 OFFCURVE",
"486 55 OFFCURVE",
"480 195 CURVE SMOOTH",
"476 261 OFFCURVE",
"457 292 OFFCURVE",
"369 371 CURVE SMOOTH",
"300 433 OFFCURVE",
"242 478 OFFCURVE",
"242 547 CURVE SMOOTH",
"242 623 OFFCURVE",
"320 665 OFFCURVE",
"390 665 CURVE SMOOTH",
"461 665 OFFCURVE",
"503 641 OFFCURVE",
"503 600 CURVE SMOOTH",
"503 581 OFFCURVE",
"502 548 OFFCURVE",
"498 529 CURVE",
"504 527 OFFCURVE",
"514 525 OFFCURVE",
"523 525 CURVE",
"528 548 OFFCURVE",
"543 603 OFFCURVE",
"543 640 CURVE",
"530 673 OFFCURVE",
"466 707 OFFCURVE",
"398 707 CURVE SMOOTH",
"265 707 OFFCURVE",
"192 632 OFFCURVE",
"192 534 CURVE SMOOTH",
"192 455 OFFCURVE",
"246 413 OFFCURVE",
"320 345 CURVE SMOOTH",
"401 271 OFFCURVE",
"420 225 OFFCURVE",
"420 176 CURVE SMOOTH",
"420 79 OFFCURVE",
"310 28 OFFCURVE",
"214 28 CURVE SMOOTH",
"96 28 OFFCURVE",
"65 61 OFFCURVE",
"65 178 CURVE",
"57 178 OFFCURVE",
"48 176 OFFCURVE",
"42 171 CURVE",
"42 143 OFFCURVE",
"36 76 OFFCURVE",
"29 42 CURVE",
"42 15 OFFCURVE",
"133 -12 OFFCURVE",
"206 -12 CURVE SMOOTH"
);
}
);
width = 530;
}
);
note = S;
unicode = 0053;
},
{
glyphname = T;
lastChange = "2018-02-22 15:39:49 +0000";
layers = (
{
anchors = (
{
name = bottom;
position = "{221, 0}";
},
{
name = center;
position = "{413, 350}";
},
{
name = top;
position = "{489, 700}";
}
);
layerId = "0B1DFD06-3317-40CA-B510-4969A0718C16";
paths = (
{
closed = 1;
nodes = (
"169 299 OFFCURVE",
"184 299 OFFCURVE",
"207 299 CURVE",
"210 304 LINE",
"106 360 OFFCURVE",
"57 412 OFFCURVE",
"57 496 CURVE SMOOTH",
"57 597 OFFCURVE",
"131 680 OFFCURVE",
"235 680 CURVE SMOOTH",
"344 680 OFFCURVE",
"542 632 OFFCURVE",
"639 632 CURVE SMOOTH",
"736 632 OFFCURVE",
"774 678 OFFCURVE",
"777 740 CURVE",
"753 692 OFFCURVE",
"700 679 OFFCURVE",
"643 679 CURVE SMOOTH",
"568 679 OFFCURVE",
"432 722 OFFCURVE",
"312 722 CURVE SMOOTH",
"73 722 OFFCURVE",
"5 601 OFFCURVE",
"4 482 CURVE SMOOTH",
"3 400 OFFCURVE",
"72 321 OFFCURVE",
"148 291 CURVE"
);
},
{
closed = 1;
nodes = (
"312 -15 OFFCURVE",
"430 63 OFFCURVE",
"441 256 CURVE SMOOTH",
"447 365 OFFCURVE",
"440 560 OFFCURVE",
"461 637 CURVE",
"452 640 LINE",
"434 628 OFFCURVE",
"411 607 OFFCURVE",
"396 589 CURVE",
"388 510 OFFCURVE",
"392 359 OFFCURVE",
"386 253 CURVE SMOOTH",
"377 89 OFFCURVE",
"272 13 OFFCURVE",
"160 13 CURVE SMOOTH",
"96 13 OFFCURVE",
"34 37 OFFCURVE",
"1 68 CURVE",
"-3 57 LINE",
"3 42 OFFCURVE",
"10 22 OFFCURVE",
"18 8 CURVE",
"47 -4 OFFCURVE",
"101 -15 OFFCURVE",
"173 -15 CURVE SMOOTH"
);
}
);
width = 607;
},
{
anchors = (
{
name = bottom;
position = "{98, 0}";
},
{
name = center;
position = "{401, 350}";
},
{
name = top;
position = "{539, 700}";
}
);
layerId = "4C458150-A1D2-4ED7-A293-C8767657F79E";
paths = (
{
closed = 1;
nodes = (
"168 299 OFFCURVE",
"183 299 OFFCURVE",
"206 299 CURVE",
"210 304 LINE",
"118 370 OFFCURVE",
"73 424 OFFCURVE",
"73 508 CURVE SMOOTH",
"73 608 OFFCURVE",
"177 680 OFFCURVE",
"281 680 CURVE SMOOTH",
"390 680 OFFCURVE",
"580 632 OFFCURVE",
"677 632 CURVE SMOOTH",
"774 632 OFFCURVE",
"820 678 OFFCURVE",
"834 740 CURVE",
"802 692 OFFCURVE",
"746 679 OFFCURVE",
"689 679 CURVE SMOOTH",
"614 679 OFFCURVE",
"486 722 OFFCURVE",
"366 722 CURVE SMOOTH",
"117 722 OFFCURVE",
"19 619 OFFCURVE",
"19 502 CURVE SMOOTH",
"19 420 OFFCURVE",
"77 331 OFFCURVE",
"146 291 CURVE"
);
},
{
closed = 1;
nodes = (
"259 -15 OFFCURVE",
"361 79 OFFCURVE",
"408 274 CURVE SMOOTH",
"434 383 OFFCURVE",
"473 580 OFFCURVE",
"516 637 CURVE",
"507 640 LINE",
"479 628 OFFCURVE",
"454 617 OFFCURVE",
"430 589 CURVE",
"406 510 OFFCURVE",
"378 382 OFFCURVE",
"353 276 CURVE SMOOTH",
"299 48 OFFCURVE",
"205 14 OFFCURVE",
"91 14 CURVE SMOOTH",
"28 14 OFFCURVE",
"-23 46 OFFCURVE",
"-55 79 CURVE",
"-64 69 LINE",
"-60 51 OFFCURVE",
"-55 35 OFFCURVE",
"-47 14 CURVE",
"-14 -1 OFFCURVE",
"55 -15 OFFCURVE",
"105 -15 CURVE SMOOTH"
);
}
);
width = 597;
}
);
note = T;
unicode = 0054;
},
{
glyphname = U;
lastChange = "2018-02-26 10:42:15 +0000";
layers = (
{
anchors = (
{
name = bottom;
position = "{378, 0}";
},
{
name = ogonek;
position = "{882, 10}";
},
{
name = top;
position = "{465, 660}";
},
{
name = topright;
position = "{739, 686}";
}
);
layerId = "0B1DFD06-3317-40CA-B510-4969A0718C16";
paths = (
{
closed = 1;
nodes = (
"891 -9 OFFCURVE",
"972 49 OFFCURVE",
"965 88 CURVE SMOOTH",
"964 93 OFFCURVE",
"960 100 OFFCURVE",
"956 103 CURVE",
"935 75 OFFCURVE",
"887 39 OFFCURVE",
"825 39 CURVE SMOOTH",
"752 39 OFFCURVE",
"714 66 OFFCURVE",
"698 127 CURVE SMOOTH",
"686 174 OFFCURVE",
"686 217 OFFCURVE",
"686 277 CURVE SMOOTH",
"686 400 OFFCURVE",
"694 528 OFFCURVE",
"713 641 CURVE SMOOTH",
"719 676 OFFCURVE",
"729 691 OFFCURVE",
"739 700 CURVE",
"721 705 OFFCURVE",
"705 709 OFFCURVE",
"692 709 CURVE SMOOTH",
"661 709 OFFCURVE",
"659 690 OFFCURVE",
"650 611 CURVE SMOOTH",
"638 502 OFFCURVE",
"630 420 OFFCURVE",
"630 308 CURVE SMOOTH",
"630 169 OFFCURVE",
"519 45 OFFCURVE",
"395 45 CURVE SMOOTH",
"306 45 OFFCURVE",
"246 103 OFFCURVE",
"246 203 CURVE SMOOTH",
"246 283 OFFCURVE",
"248 452 OFFCURVE",
"254 564 CURVE SMOOTH",
"256 604 OFFCURVE",
"258 637 OFFCURVE",
"258 656 CURVE SMOOTH",
"258 693 OFFCURVE",
"241 702 OFFCURVE",
"213 702 CURVE SMOOTH",
"174 702 OFFCURVE",
"120 692 OFFCURVE",
"78 692 CURVE SMOOTH",
"57 692 OFFCURVE",
"46 696 OFFCURVE",
"36 702 CURVE",
"34 694 OFFCURVE",
"33 681 OFFCURVE",
"37 665 CURVE SMOOTH",
"41 650 OFFCURVE",
"57 641 OFFCURVE",
"75 641 CURVE SMOOTH",
"105 641 OFFCURVE",
"146 657 OFFCURVE",
"176 657 CURVE SMOOTH",
"200 657 OFFCURVE",
"205 650 OFFCURVE",
"205 623 CURVE SMOOTH",
"205 613 OFFCURVE",
"204 591 OFFCURVE",
"202 562 CURVE SMOOTH",
"195 465 OFFCURVE",
"192 286 OFFCURVE",
"191 197 CURVE SMOOTH",
"190 83 OFFCURVE",
"265 -8 OFFCURVE",
"380 -8 CURVE SMOOTH",
"541 -8 OFFCURVE",
"628 93 OFFCURVE",
"666 280 CURVE",
"649 282 LINE",
"640 228 OFFCURVE",
"637 164 OFFCURVE",
"650 112 CURVE SMOOTH",
"670 33 OFFCURVE",
"727 -9 OFFCURVE",
"809 -9 CURVE SMOOTH"
);
}
);
width = 846;
},
{
anchors = (
{
name = bottom;
position = "{316, 0}";
},
{
name = ogonek;
position = "{822, 10}";
},
{
name = top;
position = "{540, 660}";
},
{
name = topright;
position = "{798, 686}";
}
);
layerId = "4C458150-A1D2-4ED7-A293-C8767657F79E";
paths = (
{
closed = 1;
nodes = (
"828 -9 OFFCURVE",
"919 49 OFFCURVE",
"919 88 CURVE SMOOTH",
"919 93 OFFCURVE",
"916 100 OFFCURVE",
"912 103 CURVE",
"886 75 OFFCURVE",
"832 39 OFFCURVE",
"770 39 CURVE SMOOTH",
"697 39 OFFCURVE",
"664 66 OFFCURVE",
"659 127 CURVE SMOOTH",
"655 174 OFFCURVE",
"665 217 OFFCURVE",
"677 277 CURVE SMOOTH",
"705 416 OFFCURVE",
"736 511 OFFCURVE",
"788 641 CURVE SMOOTH",
"802 676 OFFCURVE",
"813 691 OFFCURVE",
"825 700 CURVE",
"808 705 OFFCURVE",
"788 709 OFFCURVE",
"775 709 CURVE SMOOTH",
"744 709 OFFCURVE",
"739 690 OFFCURVE",
"716 611 CURVE SMOOTH",
"684 502 OFFCURVE",
"663 428 OFFCURVE",
"623 308 CURVE SMOOTH",
"577 170 OFFCURVE",
"445 45 OFFCURVE",
"321 45 CURVE SMOOTH",
"248 45 OFFCURVE",
"219 86 OFFCURVE",
"219 166 CURVE SMOOTH",
"219 280 OFFCURVE",
"285 438 OFFCURVE",
"342 636 CURVE SMOOTH",
"346 649 OFFCURVE",
"350 661 OFFCURVE",
"349 673 CURVE SMOOTH",
"348 694 OFFCURVE",
"331 702 OFFCURVE",
"309 702 CURVE SMOOTH",
"270 702 OFFCURVE",
"212 700 OFFCURVE",
"170 700 CURVE SMOOTH",
"149 700 OFFCURVE",
"138 704 OFFCURVE",
"129 710 CURVE",
"126 702 OFFCURVE",
"123 689 OFFCURVE",
"124 673 CURVE SMOOTH",
"125 658 OFFCURVE",
"140 649 OFFCURVE",
"158 649 CURVE SMOOTH",
"188 649 OFFCURVE",
"225 657 OFFCURVE",
"255 657 CURVE SMOOTH",
"277 657 OFFCURVE",
"284 650 OFFCURVE",
"285 637 CURVE SMOOTH",
"285 625 OFFCURVE",
"282 611 OFFCURVE",
"277 593 CURVE SMOOTH",
"224 408 OFFCURVE",
"156 274 OFFCURVE",
"156 139 CURVE SMOOTH",
"156 50 OFFCURVE",
"217 -8 OFFCURVE",
"297 -8 CURVE SMOOTH",
"432 -8 OFFCURVE",
"573 93 OFFCURVE",
"644 280 CURVE",
"637 282 LINE",
"618 228 OFFCURVE",
"604 164 OFFCURVE",
"608 112 CURVE SMOOTH",
"614 33 OFFCURVE",
"664 -9 OFFCURVE",
"746 -9 CURVE SMOOTH"
);
}
);
width = 846;
}
);
note = U;
unicode = 0055;
},
{
glyphname = V;
lastChange = "2018-02-21 15:43:31 +0000";
layers = (
{
layerId = "0B1DFD06-3317-40CA-B510-4969A0718C16";
paths = (
{
closed = 1;
nodes = (
"396 71 LINE",
"388 115 OFFCURVE",
"376 198 OFFCURVE",
"360 286 CURVE SMOOTH",
"338 402 OFFCURVE",
"312 512 OFFCURVE",
"283 595 CURVE SMOOTH",
"260 663 OFFCURVE",
"206 708 OFFCURVE",
"126 708 CURVE SMOOTH",
"30 708 OFFCURVE",
"-62 662 OFFCURVE",
"-54 617 CURVE SMOOTH",
"-53 608 OFFCURVE",
"-47 601 OFFCURVE",
"-40 598 CURVE",
"-10 637 OFFCURVE",
"44 661 OFFCURVE",
"93 661 CURVE SMOOTH",
"186 661 OFFCURVE",
"214 621 OFFCURVE",
"242 538 CURVE SMOOTH",
"261 485 OFFCURVE",
"295 353 OFFCURVE",
"320 210 CURVE SMOOTH",
"334 133 OFFCURVE",
"348 43 OFFCURVE",
"346 -13 CURVE",
"349 -16 OFFCURVE",
"352 -18 OFFCURVE",
"357 -20 CURVE",
"366 -10 OFFCURVE",
"386 -7 OFFCURVE",
"412 -6 CURVE SMOOTH",
"425 -6 OFFCURVE",
"428 1 OFFCURVE",
"431 15 CURVE SMOOTH",
"448 150 OFFCURVE",
"627 492 OFFCURVE",
"710 675 CURVE SMOOTH",
"733 724 OFFCURVE",
"737 756 OFFCURVE",
"733 779 CURVE SMOOTH",
"727 814 OFFCURVE",
"707 829 OFFCURVE",
"687 829 CURVE SMOOTH",
"665 829 OFFCURVE",
"655 824 OFFCURVE",
"646 821 CURVE",
"656 809 OFFCURVE",
"661 794 OFFCURVE",
"664 776 CURVE SMOOTH",
"682 679 OFFCURVE",
"451 253 OFFCURVE",
"385 74 CURVE"
);
}
);
width = 669;
},
{
layerId = "4C458150-A1D2-4ED7-A293-C8767657F79E";
paths = (
{
closed = 1;
nodes = (
"337 71 LINE",
"337 115 OFFCURVE",
"340 198 OFFCURVE",
"339 286 CURVE SMOOTH",
"338 402 OFFCURVE",
"331 512 OFFCURVE",
"317 595 CURVE SMOOTH",
"306 663 OFFCURVE",
"260 708 OFFCURVE",
"180 708 CURVE SMOOTH",
"84 708 OFFCURVE",
"-17 662 OFFCURVE",
"-17 617 CURVE SMOOTH",
"-17 608 OFFCURVE",
"-12 601 OFFCURVE",
"-6 598 CURVE",
"31 637 OFFCURVE",
"89 661 OFFCURVE",
"138 661 CURVE SMOOTH",
"231 661 OFFCURVE",
"252 621 OFFCURVE",
"266 538 CURVE SMOOTH",
"275 485 OFFCURVE",
"286 353 OFFCURVE",
"286 210 CURVE SMOOTH",
"286 133 OFFCURVE",
"284 43 OFFCURVE",
"272 -13 CURVE",
"275 -16 OFFCURVE",
"278 -18 OFFCURVE",
"282 -20 CURVE",
"293 -10 OFFCURVE",
"313 -7 OFFCURVE",
"340 -6 CURVE SMOOTH",
"353 -6 OFFCURVE",
"357 1 OFFCURVE",
"362 15 CURVE SMOOTH",
"403 150 OFFCURVE",
"642 492 OFFCURVE",
"758 675 CURVE SMOOTH",
"789 724 OFFCURVE",
"799 756 OFFCURVE",
"799 779 CURVE SMOOTH",
"799 814 OFFCURVE",
"782 829 OFFCURVE",
"762 829 CURVE SMOOTH",
"740 829 OFFCURVE",
"729 824 OFFCURVE",
"719 821 CURVE",
"727 809 OFFCURVE",
"730 794 OFFCURVE",
"730 776 CURVE SMOOTH",
"730 679 OFFCURVE",
"433 243 OFFCURVE",
"327 74 CURVE"
);
}
);
width = 669;
}
);
note = V;
unicode = 0056;
},
{
glyphname = W;
lastChange = "2018-02-21 15:06:51 +0000";
layers = (
{
anchors = (
{
name = bottom;
position = "{566, 0}";
},
{
name = top;
position = "{562, 700}";
}
);
layerId = "0B1DFD06-3317-40CA-B510-4969A0718C16";
paths = (
{
closed = 1;
nodes = (
"1066 770 OFFCURVE",
"1040 770 CURVE SMOOTH",
"914 770 OFFCURVE",
"827 376 OFFCURVE",
"764 54 CURVE",
"776 58 LINE",
"706 240 OFFCURVE",
"646 403 OFFCURVE",
"580 632 CURVE",
"556 632 OFFCURVE",
"533 629 OFFCURVE",
"527 621 CURVE",
"453 445 OFFCURVE",
"389 253 OFFCURVE",
"323 76 CURVE",
"339 77 LINE",
"310 246 OFFCURVE",
"268 449 OFFCURVE",
"249 588 CURVE SMOOTH",
"243 633 OFFCURVE",
"243 687 OFFCURVE",
"251 696 CURVE SMOOTH",
"256 702 OFFCURVE",
"250 713 OFFCURVE",
"241 713 CURVE SMOOTH",
"231 713 OFFCURVE",
"244 703 OFFCURVE",
"59 665 CURVE",
"46 665 OFFCURVE",
"62 619 OFFCURVE",
"75 619 CURVE SMOOTH",
"94 619 OFFCURVE",
"123 632 OFFCURVE",
"153 632 CURVE SMOOTH",
"169 632 OFFCURVE",
"180 625 OFFCURVE",
"186 609 CURVE SMOOTH",
"235 466 OFFCURVE",
"298 65 OFFCURVE",
"294 -15 CURVE",
"294 -24 OFFCURVE",
"297 -29 OFFCURVE",
"304 -29 CURVE",
"322 -19 OFFCURVE",
"325 -5 OFFCURVE",
"357 -5 CURVE SMOOTH",
"366 -5 OFFCURVE",
"370 1 OFFCURVE",
"367 11 CURVE",
"357 80 OFFCURVE",
"528 499 OFFCURVE",
"556 544 CURVE",
"547 549 LINE",
"621 384 OFFCURVE",
"734 37 OFFCURVE",
"738 -4 CURVE SMOOTH",
"739 -17 OFFCURVE",
"749 -26 OFFCURVE",
"756 -23 CURVE SMOOTH",
"778 -14 OFFCURVE",
"776 -10 OFFCURVE",
"801 -6 CURVE",
"815 -2 OFFCURVE",
"814 6 OFFCURVE",
"816 15 CURVE",
"853 301 OFFCURVE",
"954 686 OFFCURVE",
"1074 734 CURVE SMOOTH",
"1081 737 OFFCURVE",
"1087 737 OFFCURVE",
"1099 738 CURVE",
"1073 759 OFFCURVE"
);
}
);
width = 935;
},
{
anchors = (
{
name = bottom;
position = "{501, 0}";
},
{
name = top;
position = "{620, 700}";
}
);
layerId = "4C458150-A1D2-4ED7-A293-C8767657F79E";
paths = (
{
closed = 1;
nodes = (
"1136 770 OFFCURVE",
"1110 770 CURVE SMOOTH",
"984 770 OFFCURVE",
"828 376 OFFCURVE",
"708 54 CURVE",
"721 58 LINE",
"683 240 OFFCURVE",
"652 403 OFFCURVE",
"626 632 CURVE",
"602 632 OFFCURVE",
"579 629 OFFCURVE",
"571 621 CURVE",
"466 445 OFFCURVE",
"368 253 OFFCURVE",
"271 76 CURVE",
"287 77 LINE",
"288 246 OFFCURVE",
"282 449 OFFCURVE",
"287 588 CURVE SMOOTH",
"289 633 OFFCURVE",
"299 687 OFFCURVE",
"308 696 CURVE SMOOTH",
"314 702 OFFCURVE",
"310 713 OFFCURVE",
"301 713 CURVE SMOOTH",
"291 713 OFFCURVE",
"303 703 OFFCURVE",
"111 665 CURVE",
"98 665 OFFCURVE",
"106 619 OFFCURVE",
"119 619 CURVE SMOOTH",
"138 619 OFFCURVE",
"169 632 OFFCURVE",
"199 632 CURVE SMOOTH",
"215 632 OFFCURVE",
"225 625 OFFCURVE",
"228 609 CURVE SMOOTH",
"252 466 OFFCURVE",
"244 65 OFFCURVE",
"226 -15 CURVE",
"224 -24 OFFCURVE",
"227 -29 OFFCURVE",
"234 -29 CURVE",
"253 -19 OFFCURVE",
"259 -5 OFFCURVE",
"291 -5 CURVE SMOOTH",
"300 -5 OFFCURVE",
"305 1 OFFCURVE",
"304 11 CURVE",
"306 80 OFFCURVE",
"551 499 OFFCURVE",
"587 544 CURVE",
"578 549 LINE",
"623 384 OFFCURVE",
"675 37 OFFCURVE",
"672 -4 CURVE SMOOTH",
"671 -17 OFFCURVE",
"679 -26 OFFCURVE",
"687 -23 CURVE SMOOTH",
"710 -14 OFFCURVE",
"709 -10 OFFCURVE",
"735 -6 CURVE",
"749 -2 OFFCURVE",
"750 6 OFFCURVE",
"753 15 CURVE",
"841 301 OFFCURVE",
"1010 686 OFFCURVE",
"1138 734 CURVE SMOOTH",
"1146 737 OFFCURVE",
"1152 737 OFFCURVE",
"1164 738 CURVE",
"1142 759 OFFCURVE"
);
}
);
width = 935;
}
);
note = W;
unicode = 0057;
},
{
glyphname = X;
lastChange = "2018-02-25 11:08:12 +0000";
layers = (
{
layerId = "0B1DFD06-3317-40CA-B510-4969A0718C16";
paths = (
{
closed = 1;
nodes = (
"361 511 OFFCURVE",
"318 583 CURVE SMOOTH",
"273 658 OFFCURVE",
"231 704 OFFCURVE",
"155 704 CURVE SMOOTH",
"81 704 OFFCURVE",
"-4 661 OFFCURVE",
"3 624 CURVE SMOOTH",
"5 613 OFFCURVE",
"12 605 OFFCURVE",
"18 600 CURVE",
"47 631 OFFCURVE",
"79 657 OFFCURVE",
"127 657 CURVE SMOOTH",
"187 657 OFFCURVE",
"222 637 OFFCURVE",
"259 577 CURVE SMOOTH",
"310 495 OFFCURVE",
"399 259 OFFCURVE",
"467 145 CURVE SMOOTH",
"530 40 OFFCURVE",
"582 -13 OFFCURVE",
"650 -13 CURVE SMOOTH",
"720 -13 OFFCURVE",
"804 48 OFFCURVE",
"799 86 CURVE SMOOTH",
"798 94 OFFCURVE",
"793 102 OFFCURVE",
"787 106 CURVE",
"760 67 OFFCURVE",
"716 43 OFFCURVE",
"677 43 CURVE SMOOTH",
"626 43 OFFCURVE",
"585 65 OFFCURVE",
"528 154 CURVE SMOOTH",
"450 276 OFFCURVE"
);
},
{
closed = 1;
nodes = (
"311 328 OFFCURVE",
"148 142 CURVE SMOOTH",
"78 62 OFFCURVE",
"75 17 OFFCURVE",
"83 -30 CURVE SMOOTH",
"88 -60 OFFCURVE",
"129 -80 OFFCURVE",
"156 -90 CURVE",
"152 -79 OFFCURVE",
"149 -68 OFFCURVE",
"147 -57 CURVE SMOOTH",
"137 -1 OFFCURVE",
"142 47 OFFCURVE",
"176 91 CURVE SMOOTH",
"350 316 OFFCURVE",
"446 433 OFFCURVE",
"692 679 CURVE SMOOTH",
"695 682 OFFCURVE",
"697 686 OFFCURVE",
"696 691 CURVE SMOOTH",
"693 704 OFFCURVE",
"641 754 OFFCURVE",
"632 754 CURVE SMOOTH",
"623 754 OFFCURVE",
"620 753 OFFCURVE",
"619 750 CURVE",
"625 744 OFFCURVE",
"631 736 OFFCURVE",
"632 728 CURVE SMOOTH",
"633 722 OFFCURVE",
"632 718 OFFCURVE",
"628 713 CURVE SMOOTH",
"387 412 OFFCURVE"
);
}
);
width = 802;
},
{
layerId = "4C458150-A1D2-4ED7-A293-C8767657F79E";
paths = (
{
closed = 1;
nodes = (
"411 511 OFFCURVE",
"380 583 CURVE SMOOTH",
"348 658 OFFCURVE",
"315 704 OFFCURVE",
"239 704 CURVE SMOOTH",
"165 704 OFFCURVE",
"72 661 OFFCURVE",
"72 624 CURVE SMOOTH",
"72 613 OFFCURVE",
"78 605 OFFCURVE",
"83 600 CURVE",
"118 631 OFFCURVE",
"154 657 OFFCURVE",
"202 657 CURVE SMOOTH",
"262 657 OFFCURVE",
"294 637 OFFCURVE",
"320 577 CURVE SMOOTH",
"356 494 OFFCURVE",
"403 258 OFFCURVE",
"452 145 CURVE SMOOTH",
"497 40 OFFCURVE",
"539 -13 OFFCURVE",
"607 -13 CURVE SMOOTH",
"677 -13 OFFCURVE",
"774 48 OFFCURVE",
"774 86 CURVE SMOOTH",
"774 94 OFFCURVE",
"770 102 OFFCURVE",
"765 106 CURVE",
"731 67 OFFCURVE",
"683 43 OFFCURVE",
"644 43 CURVE SMOOTH",
"593 43 OFFCURVE",
"556 65 OFFCURVE",
"515 154 CURVE SMOOTH",
"458 277 OFFCURVE"
);
},
{
closed = 1;
nodes = (
"328 324 OFFCURVE",
"132 142 CURVE SMOOTH",
"48 64 OFFCURVE",
"37 17 OFFCURVE",
"37 -30 CURVE SMOOTH",
"37 -60 OFFCURVE",
"73 -90 OFFCURVE",
"98 -100 CURVE",
"96 -89 OFFCURVE",
"95 -78 OFFCURVE",
"95 -67 CURVE SMOOTH",
"95 -11 OFFCURVE",
"108 37 OFFCURVE",
"150 81 CURVE SMOOTH",
"364 301 OFFCURVE",
"507 440 OFFCURVE",
"771 679 CURVE SMOOTH",
"775 683 OFFCURVE",
"777 686 OFFCURVE",
"777 691 CURVE SMOOTH",
"777 704 OFFCURVE",
"735 764 OFFCURVE",
"726 764 CURVE SMOOTH",
"717 764 OFFCURVE",
"714 763 OFFCURVE",
"712 760 CURVE",
"717 754 OFFCURVE",
"722 746 OFFCURVE",
"722 738 CURVE SMOOTH",
"722 732 OFFCURVE",
"719 728 OFFCURVE",
"715 723 CURVE SMOOTH",
"481 475 OFFCURVE"
);
}
);
width = 802;
}
);
note = X;
unicode = 0058;
},
{
glyphname = Y;
lastChange = "2018-02-22 14:27:41 +0000";
layers = (
{
anchors = (
{
name = bottom;
position = "{321, 0}";
},
{
name = top;
position = "{347, 700}";
},
{
name = topleft;
position = "{48, 700}";
}
);
layerId = "0B1DFD06-3317-40CA-B510-4969A0718C16";
paths = (
{
closed = 1;
nodes = (
"298 0 OFFCURVE",
"308 0 OFFCURVE",
"337 0 CURVE SMOOTH",
"347 0 OFFCURVE",
"353 3 OFFCURVE",
"353 18 CURVE SMOOTH",
"353 35 OFFCURVE",
"347 98 OFFCURVE",
"347 147 CURVE SMOOTH",
"347 411 OFFCURVE",
"538 698 OFFCURVE",
"754 698 CURVE SMOOTH",
"769 698 OFFCURVE",
"783 697 OFFCURVE",
"799 691 CURVE",
"803 697 OFFCURVE",
"805 706 OFFCURVE",
"802 716 CURVE SMOOTH",
"795 738 OFFCURVE",
"773 754 OFFCURVE",
"732 754 CURVE SMOOTH",
"545 754 OFFCURVE",
"357 468 OFFCURVE",
"323 290 CURVE",
"343 290 LINE",
"307 510 OFFCURVE",
"214 709 OFFCURVE",
"50 709 CURVE SMOOTH",
"-50 709 OFFCURVE",
"-95 638 OFFCURVE",
"-86 587 CURVE SMOOTH",
"-83 569 OFFCURVE",
"-73 563 OFFCURVE",
"-66 558 CURVE",
"-42 610 OFFCURVE",
"-11 647 OFFCURVE",
"51 647 CURVE SMOOTH",
"221 647 OFFCURVE",
"297 404 OFFCURVE",
"297 178 CURVE SMOOTH",
"297 101 OFFCURVE",
"282 36 OFFCURVE",
"266 -2 CURVE",
"266 -6 OFFCURVE",
"269 -9 OFFCURVE",
"273 -13 CURVE"
);
}
);
width = 585;
},
{
anchors = (
{
name = top;
position = "{435, 700}";
},
{
name = topleft;
position = "{106, 700}";
}
);
layerId = "4C458150-A1D2-4ED7-A293-C8767657F79E";
paths = (
{
closed = 1;
nodes = (
"244 1 OFFCURVE",
"252 0 OFFCURVE",
"302 0 CURVE SMOOTH",
"318 0 OFFCURVE",
"324 13 OFFCURVE",
"324 28 CURVE SMOOTH",
"324 84 OFFCURVE",
"333 141 OFFCURVE",
"349 199 CURVE SMOOTH",
"421 452 OFFCURVE",
"634 698 OFFCURVE",
"842 698 CURVE SMOOTH",
"857 698 OFFCURVE",
"871 697 OFFCURVE",
"886 691 CURVE",
"891 697 OFFCURVE",
"894 706 OFFCURVE",
"893 716 CURVE SMOOTH",
"891 738 OFFCURVE",
"871 754 OFFCURVE",
"830 754 CURVE SMOOTH",
"643 754 OFFCURVE",
"413 488 OFFCURVE",
"347 310 CURVE",
"367 310 LINE",
"367 510 OFFCURVE",
"304 709 OFFCURVE",
"140 709 CURVE SMOOTH",
"40 709 OFFCURVE",
"-18 638 OFFCURVE",
"-18 587 CURVE SMOOTH",
"-18 569 OFFCURVE",
"-9 563 OFFCURVE",
"-3 558 CURVE",
"30 610 OFFCURVE",
"68 647 OFFCURVE",
"130 647 CURVE SMOOTH",
"251 647 OFFCURVE",
"309 510 OFFCURVE",
"309 363 CURVE SMOOTH",
"309 215 OFFCURVE",
"261 64 OFFCURVE",
"208 -3 CURVE",
"208 -7 OFFCURVE",
"210 -10 OFFCURVE",
"213 -14 CURVE"
);
}
);
width = 585;
}
);
note = Y;
unicode = 0059;
},
{
glyphname = Z;
lastChange = "2018-02-21 15:38:08 +0000";
layers = (
{
anchors = (
{
name = bottom;
position = "{356, 0}";
},
{
name = top;
position = "{356, 700}";
}
);
layerId = "0B1DFD06-3317-40CA-B510-4969A0718C16";
paths = (
{
closed = 1;
nodes = (
"1082 -175 OFFCURVE",
"1062 -58 OFFCURVE",
"1019 -37 CURVE",
"1013 -84 OFFCURVE",
"961 -101 OFFCURVE",
"870 -101 CURVE SMOOTH",
"668 -101 OFFCURVE",
"360 14 OFFCURVE",
"135 50 CURVE",
"143 35 LINE",
"175 58 OFFCURVE",
"193 83 OFFCURVE",
"211 105 CURVE SMOOTH",
"352 278 OFFCURVE",
"520 485 OFFCURVE",
"634 634 CURVE SMOOTH",
"647 651 OFFCURVE",
"659 657 OFFCURVE",
"672 659 CURVE",
"669 672 OFFCURVE",
"664 697 OFFCURVE",
"643 697 CURVE SMOOTH",
"536 697 OFFCURVE",
"241 703 OFFCURVE",
"108 692 CURVE SMOOTH",
"96 691 OFFCURVE",
"89 684 OFFCURVE",
"89 669 CURVE SMOOTH",
"89 648 OFFCURVE",
"94 602 OFFCURVE",
"93 580 CURVE",
"98 576 OFFCURVE",
"105 571 OFFCURVE",
"113 571 CURVE",
"116 583 OFFCURVE",
"117 603 OFFCURVE",
"125 620 CURVE SMOOTH",
"148 669 OFFCURVE",
"369 660 OFFCURVE",
"600 653 CURVE",
"587 663 LINE",
"474 515 OFFCURVE",
"189 141 OFFCURVE",
"121 77 CURVE SMOOTH",
"106 63 OFFCURVE",
"76 50 OFFCURVE",
"47 50 CURVE SMOOTH",
"40 50 OFFCURVE",
"40 42 OFFCURVE",
"42 33 CURVE SMOOTH",
"45 19 OFFCURVE",
"56 2 OFFCURVE",
"61 2 CURVE SMOOTH",
"403 2 OFFCURVE",
"715 -170 OFFCURVE",
"933 -173 CURVE SMOOTH"
);
}
);
width = 732;
},
{
anchors = (
{
name = bottom;
position = "{310, 0}";
},
{
name = top;
position = "{433, 700}";
}
);
layerId = "4C458150-A1D2-4ED7-A293-C8767657F79E";
paths = (
{
closed = 1;
nodes = (
"1005 -175 OFFCURVE",
"1005 -58 OFFCURVE",
"966 -37 CURVE",
"952 -84 OFFCURVE",
"897 -101 OFFCURVE",
"806 -101 CURVE SMOOTH",
"604 -101 OFFCURVE",
"336 14 OFFCURVE",
"117 50 CURVE",
"123 35 LINE",
"159 58 OFFCURVE",
"183 82 OFFCURVE",
"203 105 CURVE SMOOTH",
"380 308 OFFCURVE",
"559 485 OFFCURVE",
"699 634 CURVE SMOOTH",
"715 651 OFFCURVE",
"729 657 OFFCURVE",
"742 659 CURVE",
"741 672 OFFCURVE",
"741 697 OFFCURVE",
"720 697 CURVE SMOOTH",
"613 697 OFFCURVE",
"289 703 OFFCURVE",
"154 692 CURVE SMOOTH",
"142 691 OFFCURVE",
"133 684 OFFCURVE",
"131 669 CURVE SMOOTH",
"128 648 OFFCURVE",
"124 602 OFFCURVE",
"119 580 CURVE",
"123 576 OFFCURVE",
"129 571 OFFCURVE",
"137 571 CURVE",
"142 583 OFFCURVE",
"147 603 OFFCURVE",
"158 620 CURVE SMOOTH",
"190 669 OFFCURVE",
"439 660 OFFCURVE",
"669 653 CURVE",
"658 663 LINE",
"520 525 OFFCURVE",
"187 142 OFFCURVE",
"108 77 CURVE SMOOTH",
"91 63 OFFCURVE",
"68 50 OFFCURVE",
"39 50 CURVE SMOOTH",
"32 50 OFFCURVE",
"31 42 OFFCURVE",
"31 33 CURVE SMOOTH",
"32 19 OFFCURVE",
"40 2 OFFCURVE",
"45 2 CURVE SMOOTH",
"387 2 OFFCURVE",
"639 -170 OFFCURVE",
"856 -173 CURVE SMOOTH"
);
}
);
width = 732;
}
);
note = Z;
unicode = 005A;
},
{
color = 4;
glyphname = a;
lastChange = "2018-02-25 17:05:33 +0000";
layers = (
{
anchors = (
{
name = bottom;
position = "{275, 0}";
},
{
name = ogonek;
position = "{493, 10}";
},
{
name = top;
position = "{273, 420}";
}
);
layerId = "0B1DFD06-3317-40CA-B510-4969A0718C16";
paths = (
{
closed = 1;
nodes = (
"552 -12 OFFCURVE",
"650 97 OFFCURVE",
"650 194 CURVE SMOOTH",
"650 215 OFFCURVE",
"646 241 OFFCURVE",
"631 241 CURVE",
"619 107 OFFCURVE",
"510 31 OFFCURVE",
"455 31 CURVE SMOOTH",
"387 31 OFFCURVE",
"374 109 OFFCURVE",
"374 195 CURVE SMOOTH",
"374 241 OFFCURVE",
"378 299 OFFCURVE",
"387 377 CURVE SMOOTH",
"389 395 OFFCURVE",
"394 414 OFFCURVE",
"407 427 CURVE",
"404 429 LINE",
"358 424 LINE SMOOTH",
"344 422 OFFCURVE",
"343 416 OFFCURVE",
"336 382 CURVE SMOOTH",
"330 354 OFFCURVE",
"325 179 OFFCURVE",
"322 137 CURVE SMOOTH",
"318 75 OFFCURVE",
"261 37 OFFCURVE",
"225 37 CURVE SMOOTH",
"203 37 OFFCURVE",
"156 69 OFFCURVE",
"147 103 CURVE",
"149 162 OFFCURVE",
"149 213 OFFCURVE",
"151 284 CURVE SMOOTH",
"152 318 OFFCURVE",
"183 380 OFFCURVE",
"258 380 CURVE SMOOTH",
"291 380 OFFCURVE",
"334 355 OFFCURVE",
"354 328 CURVE",
"361 364 LINE",
"343 385 OFFCURVE",
"294 418 OFFCURVE",
"248 418 CURVE SMOOTH",
"161 418 OFFCURVE",
"103 342 OFFCURVE",
"103 303 CURVE SMOOTH",
"103 220 OFFCURVE",
"99 165 OFFCURVE",
"95 95 CURVE",
"106 47 OFFCURVE",
"166 -8 OFFCURVE",
"225 -8 CURVE SMOOTH",
"278 -8 OFFCURVE",
"366 61 OFFCURVE",
"357 158 CURVE",
"334 157 LINE",
"334 147 OFFCURVE",
"333 138 OFFCURVE",
"333 130 CURVE SMOOTH",
"333 57 OFFCURVE",
"380 -12 OFFCURVE",
"446 -12 CURVE SMOOTH"
);
}
);
width = 520;
},
{
anchors = (
{
name = bottom;
position = "{238, 0}";
},
{
name = ogonek;
position = "{458, 10}";
},
{
name = top;
position = "{310, 420}";
}
);
layerId = "4C458150-A1D2-4ED7-A293-C8767657F79E";
paths = (
{
closed = 1;
nodes = (
"505 -12 OFFCURVE",
"648 108 OFFCURVE",
"648 209 CURVE SMOOTH",
"648 219 OFFCURVE",
"644 231 OFFCURVE",
"635 231 CURVE",
"591 107 OFFCURVE",
"474 28 OFFCURVE",
"414 28 CURVE SMOOTH",
"376 28 OFFCURVE",
"365 54 OFFCURVE",
"365 114 CURVE SMOOTH",
"365 171 OFFCURVE",
"384 245 OFFCURVE",
"419 377 CURVE SMOOTH",
"424 395 OFFCURVE",
"432 414 OFFCURVE",
"448 427 CURVE",
"445 429 LINE",
"396 424 LINE SMOOTH",
"382 423 OFFCURVE",
"380 416 OFFCURVE",
"367 382 CURVE SMOOTH",
"356 354 OFFCURVE",
"320 179 OFFCURVE",
"309 137 CURVE SMOOTH",
"292 75 OFFCURVE",
"225 39 OFFCURVE",
"189 39 CURVE SMOOTH",
"167 39 OFFCURVE",
"136 70 OFFCURVE",
"133 104 CURVE",
"145 163 OFFCURVE",
"158 211 OFFCURVE",
"173 282 CURVE SMOOTH",
"179 311 OFFCURVE",
"218 380 OFFCURVE",
"295 380 CURVE SMOOTH",
"328 380 OFFCURVE",
"362 355 OFFCURVE",
"377 328 CURVE",
"390 364 LINE",
"376 385 OFFCURVE",
"338 418 OFFCURVE",
"292 418 CURVE SMOOTH",
"205 418 OFFCURVE",
"134 342 OFFCURVE",
"127 303 CURVE SMOOTH",
"112 220 OFFCURVE",
"94 171 OFFCURVE",
"78 101 CURVE",
"81 53 OFFCURVE",
"132 -8 OFFCURVE",
"191 -8 CURVE SMOOTH",
"244 -8 OFFCURVE",
"342 61 OFFCURVE",
"350 158 CURVE",
"327 157 LINE",
"322 132 OFFCURVE",
"318 116 OFFCURVE",
"318 92 CURVE SMOOTH",
"318 38 OFFCURVE",
"345 -12 OFFCURVE",
"399 -12 CURVE SMOOTH"
);
}
);
width = 520;
}
);
note = a;
unicode = 0061;
},
{
color = 4;
glyphname = b;
lastChange = "2018-02-25 17:05:46 +0000";
layers = (
{
layerId = "0B1DFD06-3317-40CA-B510-4969A0718C16";
paths = (
{
closed = 1;
nodes = (
"287 -12 OFFCURVE",
"349 44 OFFCURVE",
"349 160 CURVE SMOOTH",
"349 237 OFFCURVE",
"329 281 OFFCURVE",
"289 347 CURVE",
"280 336 LINE",
"311 286 OFFCURVE",
"386 252 OFFCURVE",
"452 252 CURVE SMOOTH",
"537 252 OFFCURVE",
"605 291 OFFCURVE",
"605 330 CURVE SMOOTH",
"605 340 OFFCURVE",
"602 344 OFFCURVE",
"598 348 CURVE",
"565 310 OFFCURVE",
"529 292 OFFCURVE",
"460 292 CURVE SMOOTH",
"353 292 OFFCURVE",
"301 363 OFFCURVE",
"266 409 CURVE",
"255 406 OFFCURVE",
"231 380 OFFCURVE",
"234 366 CURVE",
"270 322 OFFCURVE",
"303 238 OFFCURVE",
"303 172 CURVE SMOOTH",
"303 80 OFFCURVE",
"255 36 OFFCURVE",
"216 36 CURVE SMOOTH",
"184 36 OFFCURVE",
"144 69 OFFCURVE",
"138 104 CURVE",
"138 328 OFFCURVE",
"138 296 OFFCURVE",
"151 534 CURVE SMOOTH",
"170 864 OFFCURVE",
"297 1004 OFFCURVE",
"434 1004 CURVE SMOOTH",
"481 1004 OFFCURVE",
"513 1000 OFFCURVE",
"562 981 CURVE",
"561 990 LINE",
"541 1036 OFFCURVE",
"470 1068 OFFCURVE",
"417 1068 CURVE SMOOTH",
"226 1068 OFFCURVE",
"125 907 OFFCURVE",
"102 546 CURVE SMOOTH",
"87 313 OFFCURVE",
"86 218 OFFCURVE",
"85 93 CURVE",
"94 41 OFFCURVE",
"153 -12 OFFCURVE",
"214 -12 CURVE SMOOTH"
);
}
);
width = 475;
},
{
layerId = "4C458150-A1D2-4ED7-A293-C8767657F79E";
paths = (
{
closed = 1;
nodes = (
"282 -12 OFFCURVE",
"361 72 OFFCURVE",
"361 243 CURVE SMOOTH",
"361 275 OFFCURVE",
"344 319 OFFCURVE",
"332 347 CURVE",
"321 336 LINE",
"343 286 OFFCURVE",
"407 252 OFFCURVE",
"473 252 CURVE SMOOTH",
"562 252 OFFCURVE",
"641 295 OFFCURVE",
"641 336 CURVE SMOOTH",
"641 342 OFFCURVE",
"639 345 OFFCURVE",
"636 348 CURVE",
"597 310 OFFCURVE",
"557 292 OFFCURVE",
"488 292 CURVE SMOOTH",
"381 292 OFFCURVE",
"347 363 OFFCURVE",
"320 409 CURVE",
"308 406 OFFCURVE",
"280 380 OFFCURVE",
"280 366 CURVE",
"298 339 OFFCURVE",
"316 279 OFFCURVE",
"316 229 CURVE SMOOTH",
"316 116 OFFCURVE",
"250 36 OFFCURVE",
"204 36 CURVE SMOOTH",
"172 36 OFFCURVE",
"138 69 OFFCURVE",
"138 104 CURVE",
"158 225 OFFCURVE",
"174 307 OFFCURVE",
"227 534 CURVE SMOOTH",
"304 864 OFFCURVE",
"456 1004 OFFCURVE",
"593 1004 CURVE SMOOTH",
"640 1004 OFFCURVE",
"671 1000 OFFCURVE",
"717 981 CURVE",
"717 990 LINE",
"706 1036 OFFCURVE",
"640 1068 OFFCURVE",
"587 1068 CURVE SMOOTH",
"396 1068 OFFCURVE",
"268 907 OFFCURVE",
"180 546 CURVE SMOOTH",
"123 313 OFFCURVE",
"108 228 OFFCURVE",
"85 103 CURVE",
"85 51 OFFCURVE",
"133 -12 OFFCURVE",
"194 -12 CURVE SMOOTH"
);
}
);
width = 489;
}
);
note = b;
unicode = 0062;
},
{
color = 4;
glyphname = c;
lastChange = "2018-02-25 16:40:59 +0000";
layers = (
{
anchors = (
{
name = bottom;
position = "{204, 0}";
},
{
name = top;
position = "{215, 420}";
}
);
layerId = "0B1DFD06-3317-40CA-B510-4969A0718C16";
paths = (
{
closed = 1;
nodes = (
"512 112 OFFCURVE",
"512 201 CURVE SMOOTH",
"512 223 OFFCURVE",
"499 232 OFFCURVE",
"487 232 CURVE",
"450 68 OFFCURVE",
"336 40 OFFCURVE",
"255 40 CURVE SMOOTH",
"208 40 OFFCURVE",
"149 84 OFFCURVE",
"141 121 CURVE",
"143 192 OFFCURVE",
"145 256 OFFCURVE",
"145 312 CURVE SMOOTH",
"145 340 OFFCURVE",
"198 382 OFFCURVE",
"227 382 CURVE SMOOTH",
"261 382 OFFCURVE",
"305 352 OFFCURVE",
"316 307 CURVE",
"321 306 LINE",
"337 320 OFFCURVE",
"344 340 OFFCURVE",
"338 360 CURVE SMOOTH",
"326 399 OFFCURVE",
"261 425 OFFCURVE",
"218 425 CURVE SMOOTH",
"180 425 OFFCURVE",
"100 370 OFFCURVE",
"100 327 CURVE SMOOTH",
"100 259 OFFCURVE",
"97 198 OFFCURVE",
"89 112 CURVE",
"99 70 OFFCURVE",
"181 -5 OFFCURVE",
"245 -5 CURVE SMOOTH",
"404 -5 OFFCURVE"
);
}
);
width = 382;
},
{
anchors = (
{
name = bottom;
position = "{168, 0}";
},
{
name = top;
position = "{253, 420}";
}
);
layerId = "4C458150-A1D2-4ED7-A293-C8767657F79E";
paths = (
{
closed = 1;
nodes = (
"518 132 OFFCURVE",
"511 221 CURVE SMOOTH",
"510 233 OFFCURVE",
"507 242 OFFCURVE",
"495 242 CURVE",
"429 78 OFFCURVE",
"293 40 OFFCURVE",
"221 40 CURVE SMOOTH",
"174 40 OFFCURVE",
"128 84 OFFCURVE",
"126 121 CURVE",
"141 192 OFFCURVE",
"157 265 OFFCURVE",
"167 321 CURVE SMOOTH",
"172 349 OFFCURVE",
"220 372 OFFCURVE",
"249 372 CURVE SMOOTH",
"283 372 OFFCURVE",
"317 337 OFFCURVE",
"320 292 CURVE",
"325 291 LINE",
"344 305 OFFCURVE",
"354 325 OFFCURVE",
"352 345 CURVE SMOOTH",
"348 384 OFFCURVE",
"291 415 OFFCURVE",
"248 415 CURVE SMOOTH",
"210 415 OFFCURVE",
"133 381 OFFCURVE",
"125 338 CURVE SMOOTH",
"112 270 OFFCURVE",
"96 200 OFFCURVE",
"73 114 CURVE",
"76 72 OFFCURVE",
"140 -5 OFFCURVE",
"204 -5 CURVE SMOOTH",
"364 -5 OFFCURVE"
);
}
);
width = 382;
}
);
note = c;
unicode = 0063;
},
{
color = 4;
glyphname = d;
lastChange = "2018-02-26 08:16:35 +0000";
layers = (
{
anchors = (
{
name = bottom;
position = "{260, 0}";
},
{
name = center;
position = "{259, 235}";
},
{
name = top;
position = "{252, 420}";
},
{
name = topright;
position = "{451, 420}";
}
);
layerId = "0B1DFD06-3317-40CA-B510-4969A0718C16";
paths = (
{
closed = 1;
nodes = (
"260 -8 OFFCURVE",
"331 41 OFFCURVE",
"352 100 CURVE",
"331 147 LINE",
"312 89 OFFCURVE",
"260 34 OFFCURVE",
"224 34 CURVE SMOOTH",
"202 34 OFFCURVE",
"152 70 OFFCURVE",
"146 104 CURVE",
"152 163 OFFCURVE",
"147 227 OFFCURVE",
"152 297 CURVE SMOOTH",
"155 344 OFFCURVE",
"173 378 OFFCURVE",
"250 378 CURVE SMOOTH",
"271 378 OFFCURVE",
"335 357 OFFCURVE",
"351 337 CURVE",
"361 377 LINE",
"345 397 OFFCURVE",
"265 421 OFFCURVE",
"242 421 CURVE SMOOTH",
"150 421 OFFCURVE",
"105 349 OFFCURVE",
"104 310 CURVE SMOOTH",
"102 227 OFFCURVE",
"103 171 OFFCURVE",
"95 101 CURVE",
"103 53 OFFCURVE",
"161 -8 OFFCURVE",
"220 -8 CURVE SMOOTH"
);
},
{
closed = 1;
nodes = (
"520 -5 OFFCURVE",
"607 114 OFFCURVE",
"607 193 CURVE SMOOTH",
"607 205 OFFCURVE",
"598 214 OFFCURVE",
"590 214 CURVE",
"555 100 OFFCURVE",
"489 42 OFFCURVE",
"424 42 CURVE SMOOTH",
"382 42 OFFCURVE",
"372 92 OFFCURVE",
"372 159 CURVE SMOOTH",
"372 257 OFFCURVE",
"370 307 OFFCURVE",
"389 534 CURVE SMOOTH",
"416 861 OFFCURVE",
"532 1003 OFFCURVE",
"669 1003 CURVE SMOOTH",
"716 1003 OFFCURVE",
"753 997 OFFCURVE",
"803 975 CURVE",
"801 984 LINE",
"782 1030 OFFCURVE",
"711 1058 OFFCURVE",
"658 1058 CURVE SMOOTH",
"472 1058 OFFCURVE",
"375 904 OFFCURVE",
"341 546 CURVE SMOOTH",
"319 313 OFFCURVE",
"323 257 OFFCURVE",
"323 132 CURVE SMOOTH",
"323 58 OFFCURVE",
"355 -5 OFFCURVE",
"425 -5 CURVE SMOOTH"
);
}
);
width = 475;
},
{
anchors = (
{
name = bottom;
position = "{167, 0}";
},
{
name = center;
position = "{208, 235}";
},
{
name = top;
position = "{245, 420}";
},
{
name = topright;
position = "{432, 420}";
}
);
layerId = "4C458150-A1D2-4ED7-A293-C8767657F79E";
paths = (
{
closed = 1;
nodes = (
"226 -8 OFFCURVE",
"296 41 OFFCURVE",
"327 100 CURVE",
"314 147 LINE",
"285 89 OFFCURVE",
"223 33 OFFCURVE",
"187 33 CURVE SMOOTH",
"165 33 OFFCURVE",
"123 70 OFFCURVE",
"123 104 CURVE",
"139 163 OFFCURVE",
"147 229 OFFCURVE",
"167 300 CURVE SMOOTH",
"175 329 OFFCURVE",
"210 378 OFFCURVE",
"287 378 CURVE SMOOTH",
"308 378 OFFCURVE",
"355 357 OFFCURVE",
"368 337 CURVE",
"385 377 LINE",
"372 397 OFFCURVE",
"310 421 OFFCURVE",
"287 421 CURVE SMOOTH",
"195 421 OFFCURVE",
"130 355 OFFCURVE",
"122 316 CURVE SMOOTH",
"105 233 OFFCURVE",
"91 171 OFFCURVE",
"70 101 CURVE",
"70 53 OFFCURVE",
"127 -8 OFFCURVE",
"186 -8 CURVE SMOOTH"
);
},
{
closed = 1;
nodes = (
"482 -5 OFFCURVE",
"599 114 OFFCURVE",
"599 193 CURVE SMOOTH",
"599 205 OFFCURVE",
"593 214 OFFCURVE",
"585 214 CURVE",
"530 100 OFFCURVE",
"449 42 OFFCURVE",
"389 42 CURVE SMOOTH",
"360 42 OFFCURVE",
"351 62 OFFCURVE",
"351 101 CURVE SMOOTH",
"351 116 OFFCURVE",
"353 135 OFFCURVE",
"357 159 CURVE SMOOTH",
"373 257 OFFCURVE",
"383 307 OFFCURVE",
"442 534 CURVE SMOOTH",
"527 861 OFFCURVE",
"670 1003 OFFCURVE",
"807 1003 CURVE SMOOTH",
"854 1003 OFFCURVE",
"886 997 OFFCURVE",
"932 975 CURVE",
"932 984 LINE",
"921 1030 OFFCURVE",
"855 1058 OFFCURVE",
"802 1058 CURVE SMOOTH",
"611 1058 OFFCURVE",
"492 904 OFFCURVE",
"395 546 CURVE SMOOTH",
"332 313 OFFCURVE",
"325 257 OFFCURVE",
"304 132 CURVE SMOOTH",
"302 120 OFFCURVE",
"301 108 OFFCURVE",
"301 97 CURVE SMOOTH",
"301 34 OFFCURVE",
"332 -5 OFFCURVE",
"382 -5 CURVE SMOOTH"
);
}
);
width = 475;
}
);
note = d;
unicode = 0064;
},
{
color = 4;
glyphname = e;
lastChange = "2018-02-25 17:05:59 +0000";
layers = (
{
anchors = (
{
name = bottom;
position = "{221, 0}";
},
{
name = ogonek;
position = "{305, 10}";
},
{
name = top;
position = "{211, 420}";
}
);
layerId = "0B1DFD06-3317-40CA-B510-4969A0718C16";
paths = (
{
closed = 1;
nodes = (
"359 -5 OFFCURVE",
"446 75 OFFCURVE",
"491 173 CURVE SMOOTH",
"497 186 OFFCURVE",
"499 196 OFFCURVE",
"498 211 CURVE SMOOTH",
"497 222 OFFCURVE",
"486 228 OFFCURVE",
"476 229 CURVE",
"447 146 OFFCURVE",
"373 42 OFFCURVE",
"232 42 CURVE SMOOTH",
"197 42 OFFCURVE",
"137 86 OFFCURVE",
"129 123 CURVE",
"131 194 OFFCURVE",
"132 260 OFFCURVE",
"134 316 CURVE SMOOTH",
"135 344 OFFCURVE",
"184 378 OFFCURVE",
"208 378 CURVE SMOOTH",
"232 378 OFFCURVE",
"275 346 OFFCURVE",
"275 315 CURVE SMOOTH",
"275 268 OFFCURVE",
"227 225 OFFCURVE",
"116 225 CURVE",
"114 190 LINE",
"253 186 OFFCURVE",
"321 244 OFFCURVE",
"321 320 CURVE SMOOTH",
"321 372 OFFCURVE",
"255 420 OFFCURVE",
"208 420 CURVE SMOOTH",
"170 420 OFFCURVE",
"89 371 OFFCURVE",
"88 328 CURVE SMOOTH",
"86 260 OFFCURVE",
"88 193 OFFCURVE",
"80 107 CURVE",
"91 65 OFFCURVE",
"171 -5 OFFCURVE",
"232 -5 CURVE SMOOTH"
);
}
);
width = 368;
},
{
anchors = (
{
name = bottom;
position = "{194, 0}";
},
{
name = ogonek;
position = "{280, 10}";
},
{
name = top;
position = "{258, 420}";
}
);
layerId = "4C458150-A1D2-4ED7-A293-C8767657F79E";
paths = (
{
closed = 1;
nodes = (
"322 -5 OFFCURVE",
"435 84 OFFCURVE",
"496 183 CURVE SMOOTH",
"504 196 OFFCURVE",
"509 206 OFFCURVE",
"509 221 CURVE SMOOTH",
"509 232 OFFCURVE",
"500 238 OFFCURVE",
"491 239 CURVE",
"447 156 OFFCURVE",
"343 38 OFFCURVE",
"212 38 CURVE SMOOTH",
"177 38 OFFCURVE",
"125 86 OFFCURVE",
"123 123 CURVE",
"138 194 OFFCURVE",
"150 260 OFFCURVE",
"162 316 CURVE SMOOTH",
"168 344 OFFCURVE",
"223 379 OFFCURVE",
"247 379 CURVE SMOOTH",
"271 379 OFFCURVE",
"299 345 OFFCURVE",
"299 325 CURVE SMOOTH",
"299 272 OFFCURVE",
"251 225 OFFCURVE",
"128 225 CURVE",
"120 190 LINE",
"274 186 OFFCURVE",
"345 252 OFFCURVE",
"345 342 CURVE SMOOTH",
"345 375 OFFCURVE",
"298 420 OFFCURVE",
"254 420 CURVE SMOOTH",
"216 420 OFFCURVE",
"128 371 OFFCURVE",
"119 328 CURVE SMOOTH",
"105 260 OFFCURVE",
"96 200 OFFCURVE",
"73 114 CURVE",
"76 72 OFFCURVE",
"144 -5 OFFCURVE",
"205 -5 CURVE SMOOTH"
);
}
);
width = 378;
}
);
note = e;
unicode = 0065;
},
{
color = 4;
glyphname = f;
lastChange = "2018-02-25 16:53:39 +0000";
layers = (
{
layerId = "0B1DFD06-3317-40CA-B510-4969A0718C16";
paths = (
{
closed = 1;
nodes = (
"147 -577 OFFCURVE",
"182 -382 OFFCURVE",
"206 -30 CURVE SMOOTH",
"213 74 OFFCURVE",
"212 232 OFFCURVE",
"218 360 CURVE SMOOTH",
"239 829 OFFCURVE",
"252 936 OFFCURVE",
"348 936 CURVE SMOOTH",
"393 936 OFFCURVE",
"433 924 OFFCURVE",
"465 901 CURVE",
"476 908 OFFCURVE",
"483 921 OFFCURVE",
"479 939 CURVE SMOOTH",
"473 968 OFFCURVE",
"444 990 OFFCURVE",
"395 990 CURVE SMOOTH",
"354 990 OFFCURVE",
"318 973 OFFCURVE",
"289 951 CURVE SMOOTH",
"188 875 OFFCURVE",
"188 773 OFFCURVE",
"167 365 CURVE SMOOTH",
"161 242 OFFCURVE",
"159 14 OFFCURVE",
"152 -98 CURVE SMOOTH",
"132 -410 OFFCURVE",
"105 -527 OFFCURVE",
"-9 -527 CURVE SMOOTH",
"-96 -527 OFFCURVE",
"-163 -419 OFFCURVE",
"-198 -286 CURVE",
"-210 -310 OFFCURVE",
"-222 -328 OFFCURVE",
"-222 -366 CURVE SMOOTH",
"-222 -463 OFFCURVE",
"-117 -577 OFFCURVE",
"-26 -577 CURVE SMOOTH"
);
},
{
closed = 1;
nodes = (
"17 335 OFFCURVE",
"37 343 OFFCURVE",
"197 347 CURVE SMOOTH",
"267 349 OFFCURVE",
"368 352 OFFCURVE",
"396 352 CURVE SMOOTH",
"409 352 OFFCURVE",
"425 361 OFFCURVE",
"425 376 CURVE SMOOTH",
"425 380 OFFCURVE",
"424 385 OFFCURVE",
"422 390 CURVE",
"344 390 OFFCURVE",
"260 387 OFFCURVE",
"205 387 CURVE SMOOTH",
"157 387 OFFCURVE",
"77 384 OFFCURVE",
"33 376 CURVE SMOOTH",
"5 371 OFFCURVE",
"-9 350 OFFCURVE",
"-10 270 CURVE",
"4 266 LINE"
);
}
);
width = 360;
},
{
layerId = "4C458150-A1D2-4ED7-A293-C8767657F79E";
paths = (
{
closed = 1;
nodes = (
"-1 -577 OFFCURVE",
"78 -382 OFFCURVE",
"164 -30 CURVE SMOOTH",
"190 74 OFFCURVE",
"227 232 OFFCURVE",
"255 360 CURVE SMOOTH",
"359 829 OFFCURVE",
"402 936 OFFCURVE",
"508 936 CURVE SMOOTH",
"553 936 OFFCURVE",
"591 924 OFFCURVE",
"618 901 CURVE",
"631 908 OFFCURVE",
"640 921 OFFCURVE",
"639 939 CURVE SMOOTH",
"637 968 OFFCURVE",
"608 990 OFFCURVE",
"559 990 CURVE SMOOTH",
"518 990 OFFCURVE",
"474 974 OFFCURVE",
"441 951 CURVE SMOOTH",
"326 871 OFFCURVE",
"298 773 OFFCURVE",
"205 365 CURVE SMOOTH",
"177 242 OFFCURVE",
"125 14 OFFCURVE",
"98 -98 CURVE SMOOTH",
"23 -410 OFFCURVE",
"-33 -517 OFFCURVE",
"-157 -517 CURVE SMOOTH",
"-234 -517 OFFCURVE",
"-273 -409 OFFCURVE",
"-290 -286 CURVE",
"-306 -315 OFFCURVE",
"-334 -342 OFFCURVE",
"-331 -379 CURVE SMOOTH",
"-325 -456 OFFCURVE",
"-265 -577 OFFCURVE",
"-174 -577 CURVE SMOOTH"
);
},
{
closed = 1;
nodes = (
"40 335 OFFCURVE",
"61 343 OFFCURVE",
"222 347 CURVE SMOOTH",
"292 349 OFFCURVE",
"404 352 OFFCURVE",
"432 352 CURVE SMOOTH",
"445 352 OFFCURVE",
"466 365 OFFCURVE",
"466 381 CURVE SMOOTH",
"466 384 OFFCURVE",
"466 387 OFFCURVE",
"464 390 CURVE",
"386 390 OFFCURVE",
"292 387 OFFCURVE",
"237 387 CURVE SMOOTH",
"189 387 OFFCURVE",
"108 384 OFFCURVE",
"63 376 CURVE SMOOTH",
"34 371 OFFCURVE",
"16 350 OFFCURVE",
"1 270 CURVE",
"14 266 LINE"
);
}
);
width = 388;
}
);
note = f;
unicode = 0066;
},
{
color = 4;
glyphname = g;
lastChange = "2018-02-25 16:51:49 +0000";
layers = (
{
anchors = (
{
name = bottom;
position = "{173, 0}";
},
{
name = top;
position = "{204, 420}";
}
);
layerId = "0B1DFD06-3317-40CA-B510-4969A0718C16";
paths = (
{
closed = 1;
nodes = (
"233 -585 OFFCURVE",
"369 -394 OFFCURVE",
"369 34 CURVE SMOOTH",
"369 161 OFFCURVE",
"380 370 OFFCURVE",
"380 397 CURVE SMOOTH",
"380 413 OFFCURVE",
"376 418 OFFCURVE",
"366 424 CURVE SMOOTH",
"354 431 OFFCURVE",
"344 438 OFFCURVE",
"332 451 CURVE",
"328 450 LINE",
"329 391 OFFCURVE",
"329 366 OFFCURVE",
"329 318 CURVE SMOOTH",
"328 148 LINE SMOOTH",
"328 83 OFFCURVE",
"261 38 OFFCURVE",
"224 38 CURVE SMOOTH",
"197 38 OFFCURVE",
"143 68 OFFCURVE",
"137 102 CURVE",
"138 159 OFFCURVE",
"136 236 OFFCURVE",
"139 306 CURVE SMOOTH",
"141 350 OFFCURVE",
"197 383 OFFCURVE",
"240 383 CURVE SMOOTH",
"263 383 OFFCURVE",
"305 366 OFFCURVE",
"342 310 CURVE",
"352 352 LINE",
"321 400 OFFCURVE",
"267 428 OFFCURVE",
"236 428 CURVE SMOOTH",
"172 428 OFFCURVE",
"91 364 OFFCURVE",
"91 319 CURVE SMOOTH",
"91 236 OFFCURVE",
"89 167 OFFCURVE",
"85 99 CURVE",
"93 51 OFFCURVE",
"162 -8 OFFCURVE",
"221 -8 CURVE SMOOTH",
"254 -8 OFFCURVE",
"320 25 OFFCURVE",
"345 86 CURVE",
"326 93 LINE",
"326 71 OFFCURVE",
"326 40 OFFCURVE",
"325 20 CURVE SMOOTH",
"307 -341 OFFCURVE",
"224 -527 OFFCURVE",
"22 -527 CURVE SMOOTH",
"-81 -527 OFFCURVE",
"-160 -472 OFFCURVE",
"-213 -376 CURVE",
"-217 -386 OFFCURVE",
"-221 -397 OFFCURVE",
"-220 -407 CURVE SMOOTH",
"-210 -502 OFFCURVE",
"-111 -585 OFFCURVE",
"4 -585 CURVE SMOOTH"
);
}
);
width = 450;
},
{
anchors = (
{
name = bottom;
position = "{190, 0}";
},
{
name = top;
position = "{295, 420}";
}
);
layerId = "4C458150-A1D2-4ED7-A293-C8767657F79E";
paths = (
{
closed = 1;
nodes = (
"138 -605 OFFCURVE",
"234 -416 OFFCURVE",
"336 1 CURVE SMOOTH",
"367 128 OFFCURVE",
"395 257 OFFCURVE",
"429 390 CURVE SMOOTH",
"431 396 OFFCURVE",
"433 403 OFFCURVE",
"433 410 CURVE SMOOTH",
"433 429 OFFCURVE",
"418 429 OFFCURVE",
"392 455 CURVE",
"388 454 LINE",
"379 395 OFFCURVE",
"375 366 OFFCURVE",
"364 318 CURVE SMOOTH",
"322 137 LINE SMOOTH",
"307 72 OFFCURVE",
"216 38 OFFCURVE",
"180 38 CURVE SMOOTH",
"158 38 OFFCURVE",
"126 70 OFFCURVE",
"126 104 CURVE",
"137 161 OFFCURVE",
"149 236 OFFCURVE",
"164 306 CURVE SMOOTH",
"173 348 OFFCURVE",
"232 383 OFFCURVE",
"275 383 CURVE SMOOTH",
"294 383 OFFCURVE",
"337 351 OFFCURVE",
"364 295 CURVE",
"382 337 LINE",
"359 385 OFFCURVE",
"311 428 OFFCURVE",
"280 428 CURVE SMOOTH",
"216 428 OFFCURVE",
"130 370 OFFCURVE",
"120 327 CURVE SMOOTH",
"101 244 OFFCURVE",
"86 169 OFFCURVE",
"70 101 CURVE",
"70 53 OFFCURVE",
"119 -8 OFFCURVE",
"178 -8 CURVE SMOOTH",
"211 -8 OFFCURVE",
"294 22 OFFCURVE",
"330 83 CURVE",
"312 90 LINE",
"305 59 OFFCURVE",
"297 29 OFFCURVE",
"290 0 CURVE SMOOTH",
"205 -338 OFFCURVE",
"112 -547 OFFCURVE",
"-103 -547 CURVE SMOOTH",
"-216 -547 OFFCURVE",
"-297 -502 OFFCURVE",
"-340 -386 CURVE",
"-346 -396 OFFCURVE",
"-352 -407 OFFCURVE",
"-352 -417 CURVE SMOOTH",
"-352 -541 OFFCURVE",
"-226 -605 OFFCURVE",
"-131 -605 CURVE SMOOTH"
);
}
);
width = 454;
}
);
note = g;
unicode = 0067;
},
{
color = 4;
glyphname = h;
lastChange = "2018-02-25 17:06:05 +0000";
layers = (
{
anchors = (
{
name = bottom;
position = "{237, 0}";
},
{
name = center;
position = "{286, 210}";
},
{
name = top;
position = "{330, 420}";
}
);
layerId = "0B1DFD06-3317-40CA-B510-4969A0718C16";
paths = (
{
closed = 1;
nodes = (
"506 -12 OFFCURVE",
"613 106 OFFCURVE",
"613 200 CURVE SMOOTH",
"613 221 OFFCURVE",
"602 228 OFFCURVE",
"593 231 CURVE",
"578 149 OFFCURVE",
"504 30 OFFCURVE",
"410 30 CURVE SMOOTH",
"370 30 OFFCURVE",
"360 50 OFFCURVE",
"354 83 CURVE SMOOTH",
"346 125 OFFCURVE",
"356 315 OFFCURVE",
"364 380 CURVE",
"362 390 OFFCURVE",
"329 417 OFFCURVE",
"319 417 CURVE SMOOTH",
"270 417 OFFCURVE",
"165 300 OFFCURVE",
"132 227 CURVE",
"141 215 LINE",
"144 278 OFFCURVE",
"143 341 OFFCURVE",
"148 420 CURVE SMOOTH",
"171 789 OFFCURVE",
"270 1028 OFFCURVE",
"464 1028 CURVE SMOOTH",
"549 1028 OFFCURVE",
"613 988 OFFCURVE",
"659 895 CURVE",
"664 907 LINE",
"662 916 OFFCURVE",
"661 925 OFFCURVE",
"658 933 CURVE SMOOTH",
"613 1052 OFFCURVE",
"536 1088 OFFCURVE",
"456 1088 CURVE SMOOTH",
"245 1088 OFFCURVE",
"124 856 OFFCURVE",
"103 421 CURVE SMOOTH",
"99 344 OFFCURVE",
"100 151 OFFCURVE",
"94 49 CURVE SMOOTH",
"93 32 OFFCURVE",
"93 21 OFFCURVE",
"93 11 CURVE SMOOTH",
"93 -2 OFFCURVE",
"123 -4 OFFCURVE",
"135 -4 CURVE SMOOTH",
"143 -4 OFFCURVE",
"144 7 OFFCURVE",
"144 29 CURVE SMOOTH",
"144 54 OFFCURVE",
"144 115 OFFCURVE",
"144 161 CURVE",
"169 248 OFFCURVE",
"281 359 OFFCURVE",
"301 359 CURVE SMOOTH",
"305 359 OFFCURVE",
"310 356 OFFCURVE",
"312 351 CURVE",
"308 295 OFFCURVE",
"295 145 OFFCURVE",
"308 72 CURVE SMOOTH",
"318 17 OFFCURVE",
"352 -12 OFFCURVE",
"398 -12 CURVE SMOOTH"
);
}
);
width = 484;
},
{
anchors = (
{
name = bottom;
position = "{186, 0}";
},
{
name = center;
position = "{228, 210}";
},
{
name = top;
position = "{372, 420}";
}
);
layerId = "4C458150-A1D2-4ED7-A293-C8767657F79E";
paths = (
{
closed = 1;
nodes = (
"443 -12 OFFCURVE",
"548 79 OFFCURVE",
"607 187 CURVE SMOOTH",
"613 198 OFFCURVE",
"616 211 OFFCURVE",
"615 218 CURVE SMOOTH",
"613 232 OFFCURVE",
"608 237 OFFCURVE",
"599 240 CURVE",
"573 187 OFFCURVE",
"477 30 OFFCURVE",
"368 30 CURVE SMOOTH",
"328 30 OFFCURVE",
"322 50 OFFCURVE",
"322 83 CURVE SMOOTH",
"322 125 OFFCURVE",
"371 314 OFFCURVE",
"393 379 CURVE",
"393 389 OFFCURVE",
"364 416 OFFCURVE",
"354 416 CURVE SMOOTH",
"305 416 OFFCURVE",
"186 302 OFFCURVE",
"141 229 CURVE",
"147 217 LINE",
"162 280 OFFCURVE",
"175 341 OFFCURVE",
"194 420 CURVE SMOOTH",
"283 789 OFFCURVE",
"404 1028 OFFCURVE",
"598 1028 CURVE SMOOTH",
"683 1028 OFFCURVE",
"750 988 OFFCURVE",
"780 895 CURVE",
"787 907 LINE",
"787 916 OFFCURVE",
"787 925 OFFCURVE",
"786 933 CURVE SMOOTH",
"771 1055 OFFCURVE",
"681 1088 OFFCURVE",
"601 1088 CURVE SMOOTH",
"390 1088 OFFCURVE",
"242 816 OFFCURVE",
"150 421 CURVE SMOOTH",
"132 344 OFFCURVE",
"87 154 OFFCURVE",
"63 52 CURVE SMOOTH",
"59 35 OFFCURVE",
"57 22 OFFCURVE",
"57 14 CURVE SMOOTH",
"57 1 OFFCURVE",
"87 -7 OFFCURVE",
"99 -7 CURVE SMOOTH",
"107 -7 OFFCURVE",
"109 2 OFFCURVE",
"113 24 CURVE SMOOTH",
"118 49 OFFCURVE",
"126 109 OFFCURVE",
"138 155 CURVE",
"179 242 OFFCURVE",
"297 353 OFFCURVE",
"317 353 CURVE SMOOTH",
"321 353 OFFCURVE",
"327 348 OFFCURVE",
"329 343 CURVE",
"315 287 OFFCURVE",
"272 145 OFFCURVE",
"272 72 CURVE SMOOTH",
"272 17 OFFCURVE",
"303 -12 OFFCURVE",
"349 -12 CURVE SMOOTH"
);
}
);
width = 484;
}
);
note = h;
unicode = 0068;
},
{
color = 4;
glyphname = i;
lastChange = "2018-02-26 10:39:44 +0000";
layers = (
{
components = (
{
name = idotless;
},
{
name = dotaccentcomb;
transform = "{1, 0, 0, 1, 150, 0}";
}
);
layerId = "0B1DFD06-3317-40CA-B510-4969A0718C16";
width = 302;
},
{
layerId = "4C458150-A1D2-4ED7-A293-C8767657F79E";
paths = (
{
closed = 1;
nodes = (
"242 -7 OFFCURVE",
"345 75 OFFCURVE",
"413 182 CURVE SMOOTH",
"420 193 OFFCURVE",
"423 206 OFFCURVE",
"423 213 CURVE SMOOTH",
"423 227 OFFCURVE",
"422 232 OFFCURVE",
"413 235 CURVE",
"384 182 OFFCURVE",
"265 36 OFFCURVE",
"166 36 CURVE SMOOTH",
"137 36 OFFCURVE",
"117 52 OFFCURVE",
"117 84 CURVE",
"135 148 OFFCURVE",
"178 335 OFFCURVE",
"198 408 CURVE",
"196 412 OFFCURVE",
"189 416 OFFCURVE",
"183 416 CURVE SMOOTH",
"174 416 OFFCURVE",
"161 411 OFFCURVE",
"147 396 CURVE",
"133 342 OFFCURVE",
"90 157 OFFCURVE",
"68 86 CURVE",
"68 19 OFFCURVE",
"117 -7 OFFCURVE",
"158 -7 CURVE SMOOTH"
);
},
{
closed = 1;
nodes = (
"241 543 OFFCURVE",
"260 569 OFFCURVE",
"260 594 CURVE SMOOTH",
"260 610 OFFCURVE",
"252 630 OFFCURVE",
"230 630 CURVE SMOOTH",
"201 630 OFFCURVE",
"183 605 OFFCURVE",
"183 578 CURVE SMOOTH",
"183 559 OFFCURVE",
"194 543 OFFCURVE",
"213 543 CURVE SMOOTH"
);
}
);
width = 302;
}
);
note = i;
unicode = 0069;
},
{
color = 4;
glyphname = k;
lastChange = "2018-02-25 17:06:13 +0000";
layers = (
{
layerId = "0B1DFD06-3317-40CA-B510-4969A0718C16";
paths = (
{
closed = 1;
nodes = (
"337 320 OFFCURVE",
"435 404 CURVE",
"419 417 OFFCURVE",
"399 424 OFFCURVE",
"387 424 CURVE SMOOTH",
"364 424 OFFCURVE",
"185 171 OFFCURVE",
"126 58 CURVE",
"137 50 LINE",
"143 223 OFFCURVE",
"146 399 OFFCURVE",
"172 534 CURVE SMOOTH",
"232 844 OFFCURVE",
"347 1038 OFFCURVE",
"484 1038 CURVE SMOOTH",
"571 1038 OFFCURVE",
"646 1006 OFFCURVE",
"705 908 CURVE",
"707 910 OFFCURVE",
"708 914 OFFCURVE",
"708 917 CURVE SMOOTH",
"708 1057 OFFCURVE",
"581 1108 OFFCURVE",
"488 1108 CURVE SMOOTH",
"297 1108 OFFCURVE",
"189 888 OFFCURVE",
"127 546 CURVE SMOOTH",
"100 396 OFFCURVE",
"83 60 OFFCURVE",
"93 20 CURVE SMOOTH",
"96 8 OFFCURVE",
"124 -14 OFFCURVE",
"135 -14 CURVE SMOOTH",
"140 -14 OFFCURVE",
"146 0 OFFCURVE",
"149 6 CURVE SMOOTH",
"204 117 OFFCURVE"
);
},
{
closed = 1;
nodes = (
"318 135 OFFCURVE",
"276 270 CURVE",
"250 224 LINE",
"275 135 OFFCURVE",
"347 -12 OFFCURVE",
"431 -12 CURVE SMOOTH",
"536 -12 OFFCURVE",
"643 166 OFFCURVE",
"643 243 CURVE SMOOTH",
"643 273 OFFCURVE",
"627 281 OFFCURVE",
"615 281 CURVE",
"608 170 OFFCURVE",
"507 30 OFFCURVE",
"446 30 CURVE SMOOTH",
"380 30 OFFCURVE"
);
}
);
width = 516;
},
{
layerId = "4C458150-A1D2-4ED7-A293-C8767657F79E";
paths = (
{
closed = 1;
nodes = (
"351 323 OFFCURVE",
"463 407 CURVE",
"450 420 OFFCURVE",
"432 427 OFFCURVE",
"410 427 CURVE SMOOTH",
"387 427 OFFCURVE",
"172 171 OFFCURVE",
"93 58 CURVE",
"102 50 LINE",
"139 223 OFFCURVE",
"173 399 OFFCURVE",
"223 534 CURVE SMOOTH",
"338 844 OFFCURVE",
"487 1038 OFFCURVE",
"624 1038 CURVE SMOOTH",
"711 1038 OFFCURVE",
"780 1006 OFFCURVE",
"822 908 CURVE",
"824 910 OFFCURVE",
"826 914 OFFCURVE",
"826 917 CURVE SMOOTH",
"826 1055 OFFCURVE",
"733 1108 OFFCURVE",
"640 1108 CURVE SMOOTH",
"449 1108 OFFCURVE",
"301 888 OFFCURVE",
"180 546 CURVE SMOOTH",
"127 396 OFFCURVE",
"50 60 OFFCURVE",
"53 20 CURVE SMOOTH",
"54 8 OFFCURVE",
"78 -14 OFFCURVE",
"89 -14 CURVE SMOOTH",
"94 -14 OFFCURVE",
"103 0 OFFCURVE",
"107 6 CURVE SMOOTH",
"181 117 OFFCURVE"
);
},
{
closed = 1;
nodes = (
"313 172 OFFCURVE",
"286 276 CURVE",
"246 224 LINE",
"292 85 OFFCURVE",
"331 -12 OFFCURVE",
"425 -12 CURVE SMOOTH",
"530 -12 OFFCURVE",
"657 182 OFFCURVE",
"652 243 CURVE SMOOTH",
"650 266 OFFCURVE",
"642 281 OFFCURVE",
"631 281 CURVE",
"605 146 OFFCURVE",
"489 30 OFFCURVE",
"438 30 CURVE SMOOTH",
"342 30 OFFCURVE"
);
}
);
width = 516;
}
);
note = k;
unicode = 006B;
},
{
color = 4;
glyphname = l;
lastChange = "2018-02-25 17:06:16 +0000";
layers = (
{
layerId = "0B1DFD06-3317-40CA-B510-4969A0718C16";
paths = (
{
closed = 1;
nodes = (
"414 -7 OFFCURVE",
"511 163 OFFCURVE",
"511 209 CURVE SMOOTH",
"511 231 OFFCURVE",
"500 250 OFFCURVE",
"482 250 CURVE",
"461 153 OFFCURVE",
"364 38 OFFCURVE",
"252 38 CURVE SMOOTH",
"203 38 OFFCURVE",
"169 58 OFFCURVE",
"157 124 CURVE SMOOTH",
"149 166 OFFCURVE",
"146 237 OFFCURVE",
"146 319 CURVE SMOOTH",
"146 483 OFFCURVE",
"157 695 OFFCURVE",
"171 835 CURVE SMOOTH",
"184 966 OFFCURVE",
"203 970 OFFCURVE",
"221 970 CURVE SMOOTH",
"262 970 OFFCURVE",
"274 870 OFFCURVE",
"274 799 CURVE SMOOTH",
"274 667 OFFCURVE",
"243 472 OFFCURVE",
"143 320 CURVE",
"141 246 LINE",
"274 419 OFFCURVE",
"321 635 OFFCURVE",
"321 792 CURVE SMOOTH",
"321 890 OFFCURVE",
"292 1025 OFFCURVE",
"209 1025 CURVE SMOOTH",
"164 1025 OFFCURVE",
"135 966 OFFCURVE",
"126 878 CURVE SMOOTH",
"110 722 OFFCURVE",
"98 523 OFFCURVE",
"98 334 CURVE SMOOTH",
"98 262 OFFCURVE",
"101 160 OFFCURVE",
"108 118 CURVE SMOOTH",
"122 38 OFFCURVE",
"162 -7 OFFCURVE",
"236 -7 CURVE SMOOTH"
);
}
);
width = 381;
},
{
layerId = "4C458150-A1D2-4ED7-A293-C8767657F79E";
paths = (
{
closed = 1;
nodes = (
"309 -7 OFFCURVE",
"444 86 OFFCURVE",
"506 209 CURVE SMOOTH",
"512 221 OFFCURVE",
"516 234 OFFCURVE",
"516 246 CURVE SMOOTH",
"516 265 OFFCURVE",
"508 280 OFFCURVE",
"494 280 CURVE",
"450 153 OFFCURVE",
"317 38 OFFCURVE",
"225 38 CURVE SMOOTH",
"176 38 OFFCURVE",
"145 58 OFFCURVE",
"145 124 CURVE SMOOTH",
"145 198 OFFCURVE",
"180 358 OFFCURVE",
"221 519 CURVE SMOOTH",
"249 633 OFFCURVE",
"280 748 OFFCURVE",
"304 835 CURVE SMOOTH",
"340 966 OFFCURVE",
"360 970 OFFCURVE",
"378 970 CURVE SMOOTH",
"395 970 OFFCURVE",
"411 937 OFFCURVE",
"411 897 CURVE SMOOTH",
"411 785 OFFCURVE",
"329 517 OFFCURVE",
"166 320 CURVE",
"151 246 LINE",
"356 463 OFFCURVE",
"457 749 OFFCURVE",
"457 899 CURVE SMOOTH",
"457 978 OFFCURVE",
"410 1025 OFFCURVE",
"376 1025 CURVE SMOOTH",
"331 1025 OFFCURVE",
"303 986 OFFCURVE",
"278 898 CURVE SMOOTH",
"251 803 OFFCURVE",
"211 666 OFFCURVE",
"176 527 CURVE SMOOTH",
"135 363 OFFCURVE",
"95 203 OFFCURVE",
"95 118 CURVE SMOOTH",
"95 38 OFFCURVE",
"127 -7 OFFCURVE",
"201 -7 CURVE SMOOTH"
);
}
);
width = 381;
}
);
note = l;
unicode = 006C;
},
{
color = 4;
glyphname = m;
lastChange = "2018-02-25 17:06:47 +0000";
layers = (
{
anchors = (
{
name = bottom;
position = "{289, 0}";
},
{
name = top;
position = "{299, 420}";
}
);
layerId = "0B1DFD06-3317-40CA-B510-4969A0718C16";
paths = (
{
closed = 1;
nodes = (
"710 -2 OFFCURVE",
"778 144 OFFCURVE",
"778 207 CURVE SMOOTH",
"778 233 OFFCURVE",
"764 244 OFFCURVE",
"746 244 CURVE",
"734 126 OFFCURVE",
"676 41 OFFCURVE",
"597 41 CURVE SMOOTH",
"550 41 OFFCURVE",
"528 79 OFFCURVE",
"528 131 CURVE SMOOTH",
"528 215 OFFCURVE",
"542 307 OFFCURVE",
"551 376 CURVE",
"547 397 OFFCURVE",
"515 413 OFFCURVE",
"494 413 CURVE SMOOTH",
"447 413 OFFCURVE",
"353 270 OFFCURVE",
"330 221 CURVE",
"339 215 LINE",
"343 243 OFFCURVE",
"347 347 OFFCURVE",
"347 370 CURVE",
"345 380 OFFCURVE",
"308 402 OFFCURVE",
"293 402 CURVE SMOOTH",
"265 402 OFFCURVE",
"184 346 OFFCURVE",
"138 194 CURVE",
"145 194 LINE",
"155 293 OFFCURVE",
"164 374 OFFCURVE",
"166 403 CURVE",
"160 408 OFFCURVE",
"133 419 OFFCURVE",
"124 419 CURVE SMOOTH",
"116 419 OFFCURVE",
"114 413 OFFCURVE",
"113 402 CURVE SMOOTH",
"105 293 OFFCURVE",
"96 168 OFFCURVE",
"89 57 CURVE SMOOTH",
"88 42 OFFCURVE",
"86 18 OFFCURVE",
"87 12 CURVE SMOOTH",
"89 2 OFFCURVE",
"123 -9 OFFCURVE",
"133 -9 CURVE",
"133 17 OFFCURVE",
"135 64 OFFCURVE",
"140 118 CURVE",
"173 232 OFFCURVE",
"253 360 OFFCURVE",
"284 360 CURVE SMOOTH",
"289 360 OFFCURVE",
"296 357 OFFCURVE",
"301 352 CURVE",
"300 330 OFFCURVE",
"294 175 OFFCURVE",
"283 71 CURVE SMOOTH",
"280 42 OFFCURVE",
"278 24 OFFCURVE",
"283 16 CURVE",
"290 5 OFFCURVE",
"309 -10 OFFCURVE",
"320 -10 CURVE SMOOTH",
"328 -10 OFFCURVE",
"328 2 OFFCURVE",
"329 19 CURVE SMOOTH",
"331 53 OFFCURVE",
"335 131 OFFCURVE",
"339 163 CURVE",
"356 211 OFFCURVE",
"458 360 OFFCURVE",
"484 360 CURVE SMOOTH",
"490 360 OFFCURVE",
"498 356 OFFCURVE",
"499 352 CURVE",
"497 313 OFFCURVE",
"477 223 OFFCURVE",
"477 129 CURVE SMOOTH",
"477 56 OFFCURVE",
"511 -2 OFFCURVE",
"586 -2 CURVE SMOOTH"
);
}
);
width = 648;
},
{
anchors = (
{
name = bottom;
position = "{245, 0}";
},
{
name = top;
position = "{329, 420}";
}
);
layerId = "4C458150-A1D2-4ED7-A293-C8767657F79E";
paths = (
{
closed = 1;
nodes = (
"648 -2 OFFCURVE",
"777 174 OFFCURVE",
"774 232 CURVE SMOOTH",
"773 250 OFFCURVE",
"763 264 OFFCURVE",
"748 264 CURVE",
"710 151 OFFCURVE",
"631 41 OFFCURVE",
"540 41 CURVE SMOOTH",
"507 41 OFFCURVE",
"497 63 OFFCURVE",
"497 96 CURVE SMOOTH",
"497 177 OFFCURVE",
"538 296 OFFCURVE",
"564 376 CURVE",
"563 397 OFFCURVE",
"535 413 OFFCURVE",
"514 413 CURVE SMOOTH",
"467 413 OFFCURVE",
"347 273 OFFCURVE",
"316 224 CURVE",
"324 218 LINE",
"333 246 OFFCURVE",
"354 347 OFFCURVE",
"358 370 CURVE",
"358 380 OFFCURVE",
"328 402 OFFCURVE",
"313 402 CURVE SMOOTH",
"285 402 OFFCURVE",
"191 351 OFFCURVE",
"119 197 CURVE",
"133 199 LINE",
"155 298 OFFCURVE",
"179 374 OFFCURVE",
"186 403 CURVE",
"181 408 OFFCURVE",
"156 419 OFFCURVE",
"147 419 CURVE SMOOTH",
"139 419 OFFCURVE",
"136 413 OFFCURVE",
"133 402 CURVE SMOOTH",
"106 293 OFFCURVE",
"77 182 OFFCURVE",
"48 71 CURVE SMOOTH",
"44 56 OFFCURVE",
"38 32 OFFCURVE",
"38 26 CURVE SMOOTH",
"38 16 OFFCURVE",
"70 5 OFFCURVE",
"80 5 CURVE",
"85 31 OFFCURVE",
"95 78 OFFCURVE",
"107 118 CURVE",
"160 232 OFFCURVE",
"266 360 OFFCURVE",
"297 360 CURVE SMOOTH",
"302 360 OFFCURVE",
"308 357 OFFCURVE",
"312 352 CURVE",
"307 330 OFFCURVE",
"273 189 OFFCURVE",
"244 85 CURVE SMOOTH",
"236 56 OFFCURVE",
"231 38 OFFCURVE",
"235 30 CURVE",
"240 19 OFFCURVE",
"256 4 OFFCURVE",
"267 4 CURVE SMOOTH",
"275 4 OFFCURVE",
"277 16 OFFCURVE",
"281 33 CURVE SMOOTH",
"289 67 OFFCURVE",
"304 131 OFFCURVE",
"314 163 CURVE",
"339 211 OFFCURVE",
"469 360 OFFCURVE",
"495 360 CURVE SMOOTH",
"501 360 OFFCURVE",
"508 356 OFFCURVE",
"508 352 CURVE",
"498 307 OFFCURVE",
"445 193 OFFCURVE",
"445 84 CURVE SMOOTH",
"445 36 OFFCURVE",
"483 -2 OFFCURVE",
"532 -2 CURVE SMOOTH"
);
}
);
width = 641;
}
);
note = m;
unicode = 006D;
},
{
color = 4;
glyphname = n;
lastChange = "2018-02-25 17:06:43 +0000";
layers = (
{
anchors = (
{
name = bottom;
position = "{226, 0}";
},
{
name = top;
position = "{225, 420}";
}
);
layerId = "0B1DFD06-3317-40CA-B510-4969A0718C16";
paths = (
{
closed = 1;
nodes = (
"508 -12 OFFCURVE",
"583 137 OFFCURVE",
"583 192 CURVE SMOOTH",
"583 210 OFFCURVE",
"574 224 OFFCURVE",
"559 224 CURVE",
"543 135 OFFCURVE",
"482 28 OFFCURVE",
"400 28 CURVE SMOOTH",
"361 28 OFFCURVE",
"335 53 OFFCURVE",
"335 109 CURVE SMOOTH",
"335 183 OFFCURVE",
"345 276 OFFCURVE",
"355 384 CURVE",
"350 394 OFFCURVE",
"322 413 OFFCURVE",
"312 413 CURVE SMOOTH",
"275 413 OFFCURVE",
"170 296 OFFCURVE",
"117 206 CURVE",
"130 190 LINE",
"143 291 OFFCURVE",
"145 385 OFFCURVE",
"146 400 CURVE",
"141 412 OFFCURVE",
"119 415 OFFCURVE",
"110 415 CURVE SMOOTH",
"102 415 OFFCURVE",
"98 412 OFFCURVE",
"98 405 CURVE SMOOTH",
"98 335 OFFCURVE",
"91 237 OFFCURVE",
"92 158 CURVE",
"89 85 OFFCURVE",
"87 32 OFFCURVE",
"87 8 CURVE",
"88 1 OFFCURVE",
"120 0 OFFCURVE",
"130 0 CURVE SMOOTH",
"135 0 OFFCURVE",
"134 5 OFFCURVE",
"134 14 CURVE SMOOTH",
"134 62 OFFCURVE",
"135 106 OFFCURVE",
"137 151 CURVE",
"151 208 OFFCURVE",
"246 320 OFFCURVE",
"288 352 CURVE SMOOTH",
"296 358 OFFCURVE",
"302 355 OFFCURVE",
"306 349 CURVE",
"302 281 OFFCURVE",
"285 190 OFFCURVE",
"285 105 CURVE SMOOTH",
"285 28 OFFCURVE",
"337 -12 OFFCURVE",
"395 -12 CURVE SMOOTH"
);
}
);
width = 453;
},
{
anchors = (
{
name = bottom;
position = "{182, 0}";
},
{
name = top;
position = "{256, 420}";
}
);
layerId = "4C458150-A1D2-4ED7-A293-C8767657F79E";
paths = (
{
closed = 1;
nodes = (
"447 -12 OFFCURVE",
"574 147 OFFCURVE",
"574 212 CURVE SMOOTH",
"574 230 OFFCURVE",
"570 244 OFFCURVE",
"555 244 CURVE",
"512 145 OFFCURVE",
"428 28 OFFCURVE",
"334 28 CURVE SMOOTH",
"308 28 OFFCURVE",
"300 43 OFFCURVE",
"299 68 CURVE SMOOTH",
"298 99 OFFCURVE",
"347 274 OFFCURVE",
"389 384 CURVE",
"386 394 OFFCURVE",
"361 413 OFFCURVE",
"351 413 CURVE SMOOTH",
"314 413 OFFCURVE",
"197 306 OFFCURVE",
"122 216 CURVE",
"129 190 LINE",
"160 292 OFFCURVE",
"182 383 OFFCURVE",
"184 398 CURVE",
"181 410 OFFCURVE",
"159 415 OFFCURVE",
"150 415 CURVE SMOOTH",
"142 415 OFFCURVE",
"137 412 OFFCURVE",
"136 405 CURVE SMOOTH",
"126 335 OFFCURVE",
"99 237 OFFCURVE",
"76 158 CURVE",
"53 85 OFFCURVE",
"35 32 OFFCURVE",
"35 8 CURVE",
"35 1 OFFCURVE",
"65 0 OFFCURVE",
"75 0 CURVE SMOOTH",
"80 0 OFFCURVE",
"80 5 OFFCURVE",
"82 14 CURVE SMOOTH",
"91 62 OFFCURVE",
"99 106 OFFCURVE",
"119 151 CURVE",
"153 208 OFFCURVE",
"263 316 OFFCURVE",
"311 348 CURVE SMOOTH",
"320 354 OFFCURVE",
"325 351 OFFCURVE",
"328 345 CURVE",
"313 305 OFFCURVE",
"246 134 OFFCURVE",
"249 54 CURVE SMOOTH",
"251 8 OFFCURVE",
"281 -12 OFFCURVE",
"322 -12 CURVE SMOOTH"
);
}
);
width = 445;
}
);
note = n;
unicode = 006E;
},
{
color = 4;
glyphname = o;
lastChange = "2018-02-25 17:06:57 +0000";
layers = (
{
anchors = (
{
name = bottom;
position = "{232, 0}";
},
{
name = center;
position = "{232, 210}";
},
{
name = ogonek;
position = "{247, 10}";
},
{
name = top;
position = "{252, 420}";
},
{
name = topright;
position = "{350, 362}";
}
);
layerId = "0B1DFD06-3317-40CA-B510-4969A0718C16";
paths = (
{
closed = 1;
nodes = (
"309 276 OFFCURVE",
"389 231 OFFCURVE",
"477 231 CURVE SMOOTH",
"547 231 OFFCURVE",
"600 285 OFFCURVE",
"600 346 CURVE SMOOTH",
"600 354 OFFCURVE",
"593 361 OFFCURVE",
"587 363 CURVE",
"571 301 OFFCURVE",
"532 270 OFFCURVE",
"474 270 CURVE SMOOTH",
"392 270 OFFCURVE",
"334 322 OFFCURVE",
"320 401 CURVE SMOOTH",
"318 412 OFFCURVE",
"317 437 OFFCURVE",
"319 450 CURVE",
"317 452 OFFCURVE",
"312 453 OFFCURVE",
"306 453 CURVE SMOOTH",
"298 453 OFFCURVE",
"284 449 OFFCURVE",
"274 442 CURVE SMOOTH",
"264 435 OFFCURVE",
"264 427 OFFCURVE",
"265 408 CURVE",
"257 409 OFFCURVE",
"249 410 OFFCURVE",
"242 410 CURVE SMOOTH",
"155 410 OFFCURVE",
"98 351 OFFCURVE",
"97 315 CURVE SMOOTH",
"95 226 OFFCURVE",
"97 191 OFFCURVE",
"90 111 CURVE",
"102 43 OFFCURVE",
"171 -8 OFFCURVE",
"230 -8 CURVE SMOOTH",
"292 -8 OFFCURVE",
"357 44 OFFCURVE",
"365 74 CURVE",
"362 145 OFFCURVE",
"370 229 OFFCURVE",
"367 283 CURVE",
"319 343 LINE",
"329 256 OFFCURVE",
"319 169 OFFCURVE",
"319 91 CURVE",
"314 68 OFFCURVE",
"266 36 OFFCURVE",
"234 36 CURVE SMOOTH",
"202 36 OFFCURVE",
"152 60 OFFCURVE",
"142 114 CURVE",
"144 185 OFFCURVE",
"142 227 OFFCURVE",
"145 304 CURVE SMOOTH",
"146 329 OFFCURVE",
"181 369 OFFCURVE",
"244 369 CURVE SMOOTH",
"253 369 OFFCURVE",
"263 367 OFFCURVE",
"273 365 CURVE SMOOTH",
"279 364 OFFCURVE",
"280 362 OFFCURVE",
"282 356 CURVE SMOOTH"
);
}
);
width = 470;
},
{
anchors = (
{
name = bottom;
position = "{193, 0}";
},
{
name = center;
position = "{230, 210}";
},
{
name = ogonek;
position = "{210, 10}";
},
{
name = top;
position = "{287, 420}";
},
{
name = topright;
position = "{375, 362}";
}
);
layerId = "4C458150-A1D2-4ED7-A293-C8767657F79E";
paths = (
{
closed = 1;
nodes = (
"320 276 OFFCURVE",
"390 221 OFFCURVE",
"477 221 CURVE SMOOTH",
"548 221 OFFCURVE",
"621 276 OFFCURVE",
"621 336 CURVE SMOOTH",
"621 344 OFFCURVE",
"617 351 OFFCURVE",
"611 353 CURVE",
"584 291 OFFCURVE",
"540 260 OFFCURVE",
"481 260 CURVE SMOOTH",
"400 260 OFFCURVE",
"352 322 OFFCURVE",
"352 401 CURVE SMOOTH",
"352 412 OFFCURVE",
"356 437 OFFCURVE",
"360 450 CURVE",
"358 452 OFFCURVE",
"354 453 OFFCURVE",
"348 453 CURVE SMOOTH",
"340 453 OFFCURVE",
"325 449 OFFCURVE",
"314 442 CURVE SMOOTH",
"302 434 OFFCURVE",
"301 427 OFFCURVE",
"299 408 CURVE",
"291 409 OFFCURVE",
"283 410 OFFCURVE",
"276 410 CURVE SMOOTH",
"194 410 OFFCURVE",
"128 351 OFFCURVE",
"121 315 CURVE SMOOTH",
"104 226 OFFCURVE",
"97 191 OFFCURVE",
"71 111 CURVE",
"71 43 OFFCURVE",
"137 -8 OFFCURVE",
"196 -8 CURVE SMOOTH",
"258 -8 OFFCURVE",
"319 41 OFFCURVE",
"332 71 CURVE",
"342 142 OFFCURVE",
"373 229 OFFCURVE",
"380 283 CURVE",
"343 343 LINE",
"338 256 OFFCURVE",
"302 166 OFFCURVE",
"288 88 CURVE",
"279 65 OFFCURVE",
"234 36 OFFCURVE",
"202 36 CURVE SMOOTH",
"170 36 OFFCURVE",
"123 60 OFFCURVE",
"123 114 CURVE",
"142 185 OFFCURVE",
"148 226 OFFCURVE",
"167 303 CURVE SMOOTH",
"173 328 OFFCURVE",
"213 369 OFFCURVE",
"271 369 CURVE SMOOTH",
"280 369 OFFCURVE",
"289 367 OFFCURVE",
"299 365 CURVE SMOOTH",
"305 363 OFFCURVE",
"306 362 OFFCURVE",
"307 356 CURVE SMOOTH"
);
}
);
width = 470;
}
);
note = o;
unicode = 006F;
},
{
color = 4;
glyphname = p;
lastChange = "2018-02-25 17:07:02 +0000";
layers = (
{
layerId = "0B1DFD06-3317-40CA-B510-4969A0718C16";
paths = (
{
closed = 1;
nodes = (
"95 -624 OFFCURVE",
"138 -646 OFFCURVE",
"141 -567 CURVE SMOOTH",
"154 -217 OFFCURVE",
"130 -50 OFFCURVE",
"145 229 CURVE SMOOTH",
"150 320 OFFCURVE",
"227 366 OFFCURVE",
"248 366 CURVE SMOOTH",
"267 366 OFFCURVE",
"324 333 OFFCURVE",
"327 315 CURVE",
"329 169 OFFCURVE",
"339 31 OFFCURVE",
"210 31 CURVE SMOOTH",
"195 31 OFFCURVE",
"172 34 OFFCURVE",
"160 36 CURVE",
"159 30 OFFCURVE",
"160 24 OFFCURVE",
"161 19 CURVE SMOOTH",
"164 2 OFFCURVE",
"190 -6 OFFCURVE",
"213 -6 CURVE SMOOTH",
"362 -6 OFFCURVE",
"503 30 OFFCURVE",
"571 148 CURVE SMOOTH",
"579 162 OFFCURVE",
"586 172 OFFCURVE",
"583 186 CURVE SMOOTH",
"580 198 OFFCURVE",
"572 204 OFFCURVE",
"560 210 CURVE",
"478 64 OFFCURVE",
"387 44 OFFCURVE",
"266 28 CURVE",
"274 17 LINE",
"397 64 OFFCURVE",
"386 183 OFFCURVE",
"386 322 CURVE",
"377 362 OFFCURVE",
"284 420 OFFCURVE",
"255 420 CURVE SMOOTH",
"210 420 OFFCURVE",
"152 365 OFFCURVE",
"132 318 CURVE",
"143 309 LINE",
"149 407 OFFCURVE",
"151 460 OFFCURVE",
"155 491 CURVE SMOOTH",
"156 498 OFFCURVE",
"159 508 OFFCURVE",
"160 511 CURVE",
"158 513 OFFCURVE",
"154 516 OFFCURVE",
"151 517 CURVE",
"139 504 OFFCURVE",
"123 499 OFFCURVE",
"110 495 CURVE SMOOTH",
"103 493 OFFCURVE",
"98 491 OFFCURVE",
"99 478 CURVE SMOOTH",
"110 331 OFFCURVE",
"89 -171 OFFCURVE",
"82 -434 CURVE SMOOTH",
"78 -571 OFFCURVE",
"78 -603 OFFCURVE",
"-22 -652 CURVE",
"-11 -657 LINE"
);
}
);
width = 454;
},
{
layerId = "4C458150-A1D2-4ED7-A293-C8767657F79E";
paths = (
{
closed = 1;
nodes = (
"-87 -624 OFFCURVE",
"-48 -646 OFFCURVE",
"-28 -567 CURVE SMOOTH",
"61 -217 OFFCURVE",
"79 -50 OFFCURVE",
"159 229 CURVE SMOOTH",
"185 320 OFFCURVE",
"272 366 OFFCURVE",
"293 366 CURVE SMOOTH",
"312 366 OFFCURVE",
"348 333 OFFCURVE",
"348 315 CURVE",
"318 199 OFFCURVE",
"285 31 OFFCURVE",
"169 31 CURVE SMOOTH",
"154 31 OFFCURVE",
"141 34 OFFCURVE",
"130 36 CURVE",
"128 30 OFFCURVE",
"127 24 OFFCURVE",
"127 19 CURVE SMOOTH",
"127 2 OFFCURVE",
"140 -6 OFFCURVE",
"163 -6 CURVE SMOOTH",
"299 -6 OFFCURVE",
"443 18 OFFCURVE",
"560 135 CURVE SMOOTH",
"571 146 OFFCURVE",
"577 162 OFFCURVE",
"577 176 CURVE SMOOTH",
"577 188 OFFCURVE",
"572 199 OFFCURVE",
"562 205 CURVE",
"436 59 OFFCURVE",
"345 44 OFFCURVE",
"220 28 CURVE",
"226 17 LINE",
"360 64 OFFCURVE",
"378 213 OFFCURVE",
"408 322 CURVE",
"408 362 OFFCURVE",
"342 420 OFFCURVE",
"313 420 CURVE SMOOTH",
"268 420 OFFCURVE",
"197 365 OFFCURVE",
"167 318 CURVE",
"175 309 LINE",
"203 407 OFFCURVE",
"223 476 OFFCURVE",
"235 507 CURVE SMOOTH",
"237 512 OFFCURVE",
"240 515 OFFCURVE",
"240 518 CURVE SMOOTH",
"240 518 OFFCURVE",
"240 519 OFFCURVE",
"240 519 CURVE",
"237 523 OFFCURVE",
"234 526 OFFCURVE",
"231 527 CURVE",
"215 525 OFFCURVE",
"201 519 OFFCURVE",
"190 516 CURVE SMOOTH",
"183 514 OFFCURVE",
"177 511 OFFCURVE",
"174 498 CURVE SMOOTH",
"140 351 OFFCURVE",
"28 -101 OFFCURVE",
"-56 -434 CURVE SMOOTH",
"-91 -571 OFFCURVE",
"-99 -603 OFFCURVE",
"-210 -652 CURVE",
"-199 -657 LINE"
);
}
);
width = 454;
}
);
note = p;
unicode = 0070;
},
{
color = 4;
glyphname = q;
lastChange = "2018-02-25 17:07:05 +0000";
layers = (
{
layerId = "0B1DFD06-3317-40CA-B510-4969A0718C16";
paths = (
{
closed = 1;
nodes = (
"461 -565 OFFCURVE",
"492 -436 OFFCURVE",
"468 -301 CURVE SMOOTH",
"447 -184 OFFCURVE",
"413 -84 OFFCURVE",
"366 -37 CURVE",
"364 -55 LINE",
"470 0 OFFCURVE",
"676 122 OFFCURVE",
"641 226 CURVE SMOOTH",
"636 241 OFFCURVE",
"630 248 OFFCURVE",
"621 254 CURVE",
"589 129 OFFCURVE",
"454 35 OFFCURVE",
"326 -31 CURVE",
"325 -50 LINE",
"384 -111 OFFCURVE",
"404 -192 OFFCURVE",
"421 -288 CURVE SMOOTH",
"443 -411 OFFCURVE",
"407 -518 OFFCURVE",
"359 -518 CURVE SMOOTH",
"340 -518 OFFCURVE",
"327 -504 OFFCURVE",
"323 -482 CURVE SMOOTH",
"314 -433 OFFCURVE",
"327 -338 OFFCURVE",
"350 -33 CURVE SMOOTH",
"358 71 OFFCURVE",
"364 199 OFFCURVE",
"375 353 CURVE SMOOTH",
"378 396 OFFCURVE",
"378 410 OFFCURVE",
"382 448 CURVE",
"373 457 OFFCURVE",
"340 475 OFFCURVE",
"330 475 CURVE",
"331 442 OFFCURVE",
"330 420 OFFCURVE",
"327 379 CURVE SMOOTH",
"323 328 OFFCURVE",
"318 204 OFFCURVE",
"313 137 CURVE SMOOTH",
"308 75 OFFCURVE",
"251 39 OFFCURVE",
"215 39 CURVE SMOOTH",
"190 39 OFFCURVE",
"157 61 OFFCURVE",
"146 101 CURVE",
"148 160 OFFCURVE",
"147 226 OFFCURVE",
"151 297 CURVE SMOOTH",
"154 345 OFFCURVE",
"186 380 OFFCURVE",
"241 380 CURVE SMOOTH",
"280 380 OFFCURVE",
"341 348 OFFCURVE",
"359 328 CURVE",
"366 364 LINE",
"348 384 OFFCURVE",
"285 418 OFFCURVE",
"234 418 CURVE SMOOTH",
"169 418 OFFCURVE",
"104 363 OFFCURVE",
"102 314 CURVE SMOOTH",
"98 230 OFFCURVE",
"96 163 OFFCURVE",
"92 98 CURVE",
"105 44 OFFCURVE",
"153 -8 OFFCURVE",
"215 -8 CURVE SMOOTH",
"258 -8 OFFCURVE",
"328 37 OFFCURVE",
"346 106 CURVE",
"318 118 LINE",
"319 98 OFFCURVE",
"255 -389 OFFCURVE",
"271 -482 CURVE SMOOTH",
"280 -533 OFFCURVE",
"335 -565 OFFCURVE",
"359 -565 CURVE SMOOTH"
);
}
);
width = 510;
},
{
layerId = "4C458150-A1D2-4ED7-A293-C8767657F79E";
paths = (
{
closed = 1;
nodes = (
"329 -565 OFFCURVE",
"383 -436 OFFCURVE",
"383 -301 CURVE SMOOTH",
"383 -184 OFFCURVE",
"366 -84 OFFCURVE",
"327 -37 CURVE",
"322 -55 LINE",
"438 0 OFFCURVE",
"653 121 OFFCURVE",
"639 226 CURVE SMOOTH",
"637 241 OFFCURVE",
"632 248 OFFCURVE",
"624 254 CURVE",
"571 139 OFFCURVE",
"429 40 OFFCURVE",
"289 -26 CURVE",
"284 -50 LINE",
"332 -111 OFFCURVE",
"338 -192 OFFCURVE",
"338 -288 CURVE SMOOTH",
"338 -411 OFFCURVE",
"284 -518 OFFCURVE",
"236 -518 CURVE SMOOTH",
"217 -518 OFFCURVE",
"206 -504 OFFCURVE",
"206 -482 CURVE SMOOTH",
"206 -433 OFFCURVE",
"230 -338 OFFCURVE",
"312 -33 CURVE SMOOTH",
"340 71 OFFCURVE",
"376 199 OFFCURVE",
"415 353 CURVE SMOOTH",
"426 396 OFFCURVE",
"428 410 OFFCURVE",
"439 448 CURVE",
"432 457 OFFCURVE",
"402 475 OFFCURVE",
"392 475 CURVE",
"387 442 OFFCURVE",
"382 420 OFFCURVE",
"372 379 CURVE SMOOTH",
"360 328 OFFCURVE",
"327 204 OFFCURVE",
"310 137 CURVE SMOOTH",
"294 75 OFFCURVE",
"226 39 OFFCURVE",
"190 39 CURVE SMOOTH",
"165 39 OFFCURVE",
"134 71 OFFCURVE",
"131 111 CURVE",
"143 170 OFFCURVE",
"152 226 OFFCURVE",
"171 297 CURVE SMOOTH",
"184 345 OFFCURVE",
"219 380 OFFCURVE",
"289 380 CURVE SMOOTH",
"338 380 OFFCURVE",
"380 348 OFFCURVE",
"395 328 CURVE",
"408 364 LINE",
"394 384 OFFCURVE",
"337 418 OFFCURVE",
"286 418 CURVE SMOOTH",
"206 418 OFFCURVE",
"138 363 OFFCURVE",
"125 314 CURVE SMOOTH",
"103 230 OFFCURVE",
"92 178 OFFCURVE",
"76 108 CURVE",
"79 54 OFFCURVE",
"130 -8 OFFCURVE",
"192 -8 CURVE SMOOTH",
"235 -8 OFFCURVE",
"307 37 OFFCURVE",
"338 106 CURVE",
"312 118 LINE",
"309 98 OFFCURVE",
"154 -389 OFFCURVE",
"154 -482 CURVE SMOOTH",
"154 -533 OFFCURVE",
"203 -565 OFFCURVE",
"227 -565 CURVE SMOOTH"
);
}
);
width = 510;
}
);
note = q;
unicode = 0071;
},
{
color = 4;
glyphname = r;
lastChange = "2018-02-25 17:07:10 +0000";
layers = (
{
anchors = (
{
name = bottom;
position = "{125, 0}";
},
{
name = top;
position = "{180, 420}";
}
);
layerId = "0B1DFD06-3317-40CA-B510-4969A0718C16";
paths = (
{
closed = 1;
nodes = (
"138 1 OFFCURVE",
"139 3 OFFCURVE",
"139 7 CURVE SMOOTH",
"139 86 OFFCURVE",
"143 129 OFFCURVE",
"147 185 CURVE SMOOTH",
"152 260 OFFCURVE",
"188 356 OFFCURVE",
"260 356 CURVE",
"250 362 LINE",
"272 294 OFFCURVE",
"323 256 OFFCURVE",
"391 256 CURVE SMOOTH",
"446 256 OFFCURVE",
"500 293 OFFCURVE",
"500 338 CURVE SMOOTH",
"500 348 OFFCURVE",
"495 354 OFFCURVE",
"489 357 CURVE",
"470 311 OFFCURVE",
"436 295 OFFCURVE",
"393 295 CURVE SMOOTH",
"334 295 OFFCURVE",
"308 328 OFFCURVE",
"290 382 CURVE SMOOTH",
"289 385 OFFCURVE",
"289 388 OFFCURVE",
"288 391 CURVE",
"283 394 OFFCURVE",
"267 398 OFFCURVE",
"253 398 CURVE SMOOTH",
"196 398 OFFCURVE",
"144 328 OFFCURVE",
"130 257 CURVE",
"144 250 LINE",
"148 301 OFFCURVE",
"152 374 OFFCURVE",
"158 408 CURVE",
"147 412 OFFCURVE",
"123 416 OFFCURVE",
"118 416 CURVE SMOOTH",
"110 416 OFFCURVE",
"109 412 OFFCURVE",
"108 401 CURVE SMOOTH",
"104 357 OFFCURVE",
"94 185 OFFCURVE",
"94 55 CURVE SMOOTH",
"94 41 OFFCURVE",
"94 22 OFFCURVE",
"95 12 CURVE SMOOTH",
"96 1 OFFCURVE",
"125 1 OFFCURVE",
"131 1 CURVE SMOOTH"
);
}
);
width = 370;
},
{
anchors = (
{
name = bottom;
position = "{84, 0}";
},
{
name = top;
position = "{217, 420}";
}
);
layerId = "4C458150-A1D2-4ED7-A293-C8767657F79E";
paths = (
{
closed = 1;
nodes = (
"91 -4 OFFCURVE",
"92 -2 OFFCURVE",
"93 2 CURVE SMOOTH",
"106 81 OFFCURVE",
"119 129 OFFCURVE",
"133 185 CURVE SMOOTH",
"152 260 OFFCURVE",
"208 355 OFFCURVE",
"276 355 CURVE",
"267 361 LINE",
"277 294 OFFCURVE",
"331 256 OFFCURVE",
"399 256 CURVE SMOOTH",
"464 256 OFFCURVE",
"533 296 OFFCURVE",
"533 340 CURVE SMOOTH",
"533 348 OFFCURVE",
"529 355 OFFCURVE",
"523 357 CURVE",
"496 311 OFFCURVE",
"461 295 OFFCURVE",
"408 295 CURVE SMOOTH",
"349 295 OFFCURVE",
"311 327 OFFCURVE",
"311 382 CURVE SMOOTH",
"311 385 OFFCURVE",
"311 388 OFFCURVE",
"311 391 CURVE",
"306 394 OFFCURVE",
"291 398 OFFCURVE",
"277 398 CURVE SMOOTH",
"209 398 OFFCURVE",
"157 328 OFFCURVE",
"130 257 CURVE",
"142 250 LINE",
"155 301 OFFCURVE",
"172 362 OFFCURVE",
"184 396 CURVE",
"172 406 OFFCURVE",
"151 416 OFFCURVE",
"146 416 CURVE SMOOTH",
"138 416 OFFCURVE",
"136 412 OFFCURVE",
"133 401 CURVE SMOOTH",
"121 357 OFFCURVE",
"82 182 OFFCURVE",
"54 52 CURVE SMOOTH",
"51 38 OFFCURVE",
"49 25 OFFCURVE",
"49 15 CURVE SMOOTH",
"49 4 OFFCURVE",
"78 -4 OFFCURVE",
"84 -4 CURVE SMOOTH"
);
}
);
width = 370;
}
);
note = r;
unicode = 0072;
},
{
color = 4;
glyphname = s;
lastChange = "2018-02-26 08:20:32 +0000";
layers = (
{
anchors = (
{
name = bottom;
position = "{180, 0}";
},
{
name = top;
position = "{222, 417}";
}
);
layerId = "0B1DFD06-3317-40CA-B510-4969A0718C16";
paths = (
{
closed = 1;
nodes = (
"262 -13 OFFCURVE",
"313 50 OFFCURVE",
"313 115 CURVE SMOOTH",
"313 213 OFFCURVE",
"155 246 OFFCURVE",
"155 317 CURVE SMOOTH",
"155 350 OFFCURVE",
"175 377 OFFCURVE",
"206 377 CURVE SMOOTH",
"240 377 OFFCURVE",
"267 359 OFFCURVE",
"290 329 CURVE",
"298 338 OFFCURVE",
"306 351 OFFCURVE",
"306 364 CURVE SMOOTH",
"306 398 OFFCURVE",
"257 417 OFFCURVE",
"222 417 CURVE SMOOTH",
"159 417 OFFCURVE",
"107 371 OFFCURVE",
"107 308 CURVE SMOOTH",
"107 214 OFFCURVE",
"263 185 OFFCURVE",
"263 100 CURVE SMOOTH",
"263 59 OFFCURVE",
"234 25 OFFCURVE",
"179 25 CURVE SMOOTH",
"131 25 OFFCURVE",
"92 49 OFFCURVE",
"68 101 CURVE",
"57 99 OFFCURVE",
"45 89 OFFCURVE",
"45 71 CURVE SMOOTH",
"45 29 OFFCURVE",
"107 -13 OFFCURVE",
"170 -13 CURVE SMOOTH"
);
}
);
width = 360;
},
{
anchors = (
{
name = bottom;
position = "{149, 0}";
},
{
name = top;
position = "{229, 420}";
}
);
layerId = "4C458150-A1D2-4ED7-A293-C8767657F79E";
paths = (
{
closed = 1;
nodes = (
"343 -6 OFFCURVE",
"489 71 OFFCURVE",
"489 163 CURVE SMOOTH",
"489 176 OFFCURVE",
"484 185 OFFCURVE",
"474 192 CURVE",
"448 113 OFFCURVE",
"369 46 OFFCURVE",
"168 15 CURVE",
"185 9 LINE",
"228 14 OFFCURVE",
"277 81 OFFCURVE",
"277 125 CURVE SMOOTH",
"277 214 OFFCURVE",
"205 268 OFFCURVE",
"205 343 CURVE SMOOTH",
"205 378 OFFCURVE",
"220 397 OFFCURVE",
"250 412 CURVE",
"245 417 OFFCURVE",
"234 420 OFFCURVE",
"222 420 CURVE SMOOTH",
"193 420 OFFCURVE",
"162 389 OFFCURVE",
"162 352 CURVE SMOOTH",
"162 252 OFFCURVE",
"229 199 OFFCURVE",
"229 115 CURVE SMOOTH",
"229 72 OFFCURVE",
"181 26 OFFCURVE",
"141 26 CURVE SMOOTH",
"80 26 OFFCURVE",
"41 76 OFFCURVE",
"41 143 CURVE SMOOTH",
"41 162 OFFCURVE",
"45 182 OFFCURVE",
"53 203 CURVE",
"32 203 OFFCURVE",
"4 173 OFFCURVE",
"4 130 CURVE SMOOTH",
"4 42 OFFCURVE",
"59 -13 OFFCURVE",
"184 -10 CURVE"
);
},
{
closed = 1;
nodes = (
"107 134 OFFCURVE",
"165 232 OFFCURVE",
"192 306 CURVE",
"185 368 LINE",
"155 293 OFFCURVE",
"95 176 OFFCURVE",
"34 128 CURVE",
"44 86 LINE"
);
}
);
width = 360;
}
);
note = s;
unicode = 0073;
},
{
color = 4;
glyphname = t;
lastChange = "2018-02-25 17:08:05 +0000";
layers = (
{
anchors = (
{
name = bottom;
position = "{240, 0}";
},
{
name = center;
position = "{200, 210}";
},
{
name = top;
position = "{168, 640}";
},
{
name = topright;
position = "{356, 420}";
}
);
layerId = "0B1DFD06-3317-40CA-B510-4969A0718C16";
paths = (
{
closed = 1;
nodes = (
"289 368 OFFCURVE",
"374 370 CURVE SMOOTH",
"385 370 OFFCURVE",
"392 373 OFFCURVE",
"392 382 CURVE SMOOTH",
"392 386 OFFCURVE",
"388 397 OFFCURVE",
"386 401 CURVE",
"18 403 LINE",
"11 395 OFFCURVE",
"3 370 OFFCURVE",
"0 362 CURVE",
"4 356 OFFCURVE",
"9 354 OFFCURVE",
"15 354 CURVE SMOOTH",
"21 354 OFFCURVE"
);
},
{
closed = 1;
nodes = (
"111 312 OFFCURVE",
"111 185 CURVE SMOOTH",
"111 71 OFFCURVE",
"130 -10 OFFCURVE",
"246 -10 CURVE SMOOTH",
"312 -10 OFFCURVE",
"412 42 OFFCURVE",
"464 120 CURVE SMOOTH",
"470 129 OFFCURVE",
"473 137 OFFCURVE",
"473 144 CURVE SMOOTH",
"473 153 OFFCURVE",
"468 161 OFFCURVE",
"464 166 CURVE",
"393 87 OFFCURVE",
"317 31 OFFCURVE",
"239 31 CURVE SMOOTH",
"166 31 OFFCURVE",
"162 96 OFFCURVE",
"162 183 CURVE SMOOTH",
"162 299 OFFCURVE",
"166 465 OFFCURVE",
"179 623 CURVE SMOOTH",
"182 655 OFFCURVE",
"196 668 OFFCURVE",
"217 679 CURVE",
"216 684 OFFCURVE",
"209 690 OFFCURVE",
"203 690 CURVE",
"178 678 OFFCURVE",
"154 661 OFFCURVE",
"133 643 CURVE",
"119 476 OFFCURVE"
);
}
);
width = 343;
},
{
anchors = (
{
name = bottom;
position = "{180, 0}";
},
{
name = center;
position = "{177, 210}";
},
{
name = top;
position = "{259, 640}";
},
{
name = topright;
position = "{370, 420}";
}
);
layerId = "4C458150-A1D2-4ED7-A293-C8767657F79E";
paths = (
{
closed = 1;
nodes = (
"333 360 OFFCURVE",
"438 360 CURVE SMOOTH",
"451 360 OFFCURVE",
"458 369 OFFCURVE",
"458 380 CURVE SMOOTH",
"458 384 OFFCURVE",
"457 388 OFFCURVE",
"454 391 CURVE",
"47 393 LINE",
"39 385 OFFCURVE",
"27 360 OFFCURVE",
"22 352 CURVE",
"25 346 OFFCURVE",
"30 344 OFFCURVE",
"36 344 CURVE SMOOTH",
"42 344 OFFCURVE"
);
},
{
closed = 1;
nodes = (
"90 196 OFFCURVE",
"90 85 CURVE SMOOTH",
"90 25 OFFCURVE",
"138 -10 OFFCURVE",
"194 -10 CURVE SMOOTH",
"260 -10 OFFCURVE",
"381 45 OFFCURVE",
"449 120 CURVE SMOOTH",
"459 131 OFFCURVE",
"462 141 OFFCURVE",
"462 149 CURVE SMOOTH",
"462 156 OFFCURVE",
"460 162 OFFCURVE",
"457 166 CURVE",
"372 87 OFFCURVE",
"290 31 OFFCURVE",
"205 31 CURVE SMOOTH",
"164 31 OFFCURVE",
"142 55 OFFCURVE",
"142 99 CURVE SMOOTH",
"142 185 OFFCURVE",
"205 438 OFFCURVE",
"269 623 CURVE SMOOTH",
"280 655 OFFCURVE",
"295 672 OFFCURVE",
"317 679 CURVE",
"317 684 OFFCURVE",
"311 690 OFFCURVE",
"305 690 CURVE SMOOTH",
"298 690 OFFCURVE",
"248 660 OFFCURVE",
"226 643 CURVE",
"160 444 OFFCURVE"
);
}
);
width = 343;
}
);
note = t;
unicode = 0074;
},
{
color = 4;
glyphname = u;
lastChange = "2018-02-25 17:07:49 +0000";
layers = (
{
anchors = (
{
name = bottom;
position = "{231, 0}";
},
{
name = ogonek;
position = "{418, 10}";
},
{
name = top;
position = "{235, 420}";
},
{
name = topright;
position = "{347, 383}";
}
);
layerId = "0B1DFD06-3317-40CA-B510-4969A0718C16";
paths = (
{
closed = 1;
nodes = (
"520 -5 OFFCURVE",
"610 173 OFFCURVE",
"602 216 CURVE",
"599 226 OFFCURVE",
"591 232 OFFCURVE",
"583 234 CURVE",
"537 110 OFFCURVE",
"464 35 OFFCURVE",
"404 35 CURVE SMOOTH",
"379 35 OFFCURVE",
"357 56 OFFCURVE",
"351 95 CURVE SMOOTH",
"334 206 OFFCURVE",
"371 355 OFFCURVE",
"366 388 CURVE SMOOTH",
"363 402 OFFCURVE",
"337 415 OFFCURVE",
"325 415 CURVE SMOOTH",
"322 415 OFFCURVE",
"317 412 OFFCURVE",
"317 404 CURVE SMOOTH",
"314 362 OFFCURVE",
"317 304 OFFCURVE",
"300 202 CURVE SMOOTH",
"284 106 OFFCURVE",
"236 40 OFFCURVE",
"199 40 CURVE SMOOTH",
"185 40 OFFCURVE",
"149 64 OFFCURVE",
"141 80 CURVE",
"134 134 OFFCURVE",
"136 235 OFFCURVE",
"144 369 CURVE SMOOTH",
"145 379 OFFCURVE",
"147 386 OFFCURVE",
"146 391 CURVE SMOOTH",
"144 403 OFFCURVE",
"116 415 OFFCURVE",
"107 415 CURVE SMOOTH",
"102 415 OFFCURVE",
"97 409 OFFCURVE",
"97 396 CURVE SMOOTH",
"94 316 OFFCURVE",
"83 128 OFFCURVE",
"95 65 CURVE",
"107 35 OFFCURVE",
"161 -5 OFFCURVE",
"193 -5 CURVE SMOOTH",
"268 -5 OFFCURVE",
"309 100 OFFCURVE",
"312 122 CURVE",
"307 127 LINE",
"303 111 OFFCURVE",
"304 93 OFFCURVE",
"308 72 CURVE SMOOTH",
"316 28 OFFCURVE",
"349 -5 OFFCURVE",
"409 -5 CURVE SMOOTH"
);
}
);
width = 472;
},
{
anchors = (
{
name = bottom;
position = "{195, 0}";
},
{
name = ogonek;
position = "{384, 10}";
},
{
name = top;
position = "{273, 420}";
},
{
name = topright;
position = "{379, 383}";
}
);
layerId = "4C458150-A1D2-4ED7-A293-C8767657F79E";
paths = (
{
closed = 1;
nodes = (
"477 -7 OFFCURVE",
"604 173 OFFCURVE",
"603 216 CURVE",
"602 226 OFFCURVE",
"595 232 OFFCURVE",
"587 234 CURVE",
"519 110 OFFCURVE",
"428 33 OFFCURVE",
"368 33 CURVE SMOOTH",
"343 33 OFFCURVE",
"325 54 OFFCURVE",
"325 93 CURVE SMOOTH",
"325 203 OFFCURVE",
"398 355 OFFCURVE",
"398 388 CURVE SMOOTH",
"398 402 OFFCURVE",
"374 415 OFFCURVE",
"362 415 CURVE SMOOTH",
"359 415 OFFCURVE",
"354 412 OFFCURVE",
"352 404 CURVE SMOOTH",
"342 362 OFFCURVE",
"329 304 OFFCURVE",
"294 202 CURVE SMOOTH",
"261 106 OFFCURVE",
"194 43 OFFCURVE",
"159 43 CURVE SMOOTH",
"145 43 OFFCURVE",
"116 67 OFFCURVE",
"111 83 CURVE",
"113 137 OFFCURVE",
"138 235 OFFCURVE",
"178 369 CURVE SMOOTH",
"181 379 OFFCURVE",
"184 386 OFFCURVE",
"184 391 CURVE SMOOTH",
"184 403 OFFCURVE",
"158 415 OFFCURVE",
"149 415 CURVE SMOOTH",
"144 415 OFFCURVE",
"140 409 OFFCURVE",
"136 396 CURVE SMOOTH",
"77 189 OFFCURVE",
"61 131 OFFCURVE",
"62 68 CURVE",
"69 38 OFFCURVE",
"116 -2 OFFCURVE",
"148 -2 CURVE SMOOTH",
"221 -2 OFFCURVE",
"284 98 OFFCURVE",
"291 120 CURVE",
"287 125 LINE",
"280 109 OFFCURVE",
"278 91 OFFCURVE",
"278 70 CURVE SMOOTH",
"278 26 OFFCURVE",
"306 -7 OFFCURVE",
"366 -7 CURVE SMOOTH"
);
}
);
width = 472;
}
);
note = u;
unicode = 0075;
},
{
color = 4;
glyphname = v;
lastChange = "2018-02-26 08:17:40 +0000";
layers = (
{
layerId = "0B1DFD06-3317-40CA-B510-4969A0718C16";
paths = (
{
closed = 1;
nodes = (
"343 155 OFFCURVE",
"380 226 OFFCURVE",
"380 306 CURVE SMOOTH",
"380 377 OFFCURVE",
"332 412 OFFCURVE",
"267 437 CURVE",
"258 432 LINE",
"297 404 OFFCURVE",
"323 364 OFFCURVE",
"323 322 CURVE SMOOTH",
"323 253 OFFCURVE",
"302 178 OFFCURVE",
"201 37 CURVE",
"216 34 LINE",
"191 160 OFFCURVE",
"154 268 OFFCURVE",
"138 325 CURVE SMOOTH",
"133 343 OFFCURVE",
"125 361 OFFCURVE",
"122 372 CURVE SMOOTH",
"116 393 OFFCURVE",
"104 410 OFFCURVE",
"87 416 CURVE",
"56 403 OFFCURVE",
"43 396 OFFCURVE",
"-6 389 CURVE",
"-11 383 OFFCURVE",
"-11 377 OFFCURVE",
"-9 369 CURVE",
"45 368 LINE SMOOTH",
"63 368 OFFCURVE",
"72 365 OFFCURVE",
"78 352 CURVE SMOOTH",
"84 339 OFFCURVE",
"90 325 OFFCURVE",
"98 297 CURVE SMOOTH",
"112 249 OFFCURVE",
"149 130 OFFCURVE",
"172 17 CURVE",
"172 9 OFFCURVE",
"170 5 OFFCURVE",
"168 0 CURVE",
"211 0 LINE"
);
}
);
width = 420;
},
{
layerId = "4C458150-A1D2-4ED7-A293-C8767657F79E";
paths = (
{
closed = 1;
nodes = (
"354 187 OFFCURVE",
"414 235 OFFCURVE",
"414 327 CURVE SMOOTH",
"414 402 OFFCURVE",
"370 428 OFFCURVE",
"299 450 CURVE",
"289 445 LINE",
"321 425 OFFCURVE",
"358 393 OFFCURVE",
"358 336 CURVE SMOOTH",
"358 278 OFFCURVE",
"312 208 OFFCURVE",
"146 37 CURVE",
"161 34 LINE",
"165 164 OFFCURVE",
"167 268 OFFCURVE",
"167 325 CURVE SMOOTH",
"167 343 OFFCURVE",
"167 357 OFFCURVE",
"166 368 CURVE SMOOTH",
"164 389 OFFCURVE",
"148 410 OFFCURVE",
"132 416 CURVE",
"99 403 OFFCURVE",
"91 394 OFFCURVE",
"24 387 CURVE",
"18 381 OFFCURVE",
"17 375 OFFCURVE",
"17 367 CURVE",
"86 366 LINE SMOOTH",
"104 366 OFFCURVE",
"110 363 OFFCURVE",
"111 349 CURVE SMOOTH",
"112 336 OFFCURVE",
"113 319 OFFCURVE",
"113 291 CURVE SMOOTH",
"113 243 OFFCURVE",
"114 155 OFFCURVE",
"114 23 CURVE SMOOTH",
"114 18 OFFCURVE",
"109 9 OFFCURVE",
"110 5 CURVE",
"151 0 LINE"
);
}
);
width = 420;
}
);
note = v;
unicode = 0076;
},
{
color = 4;
glyphname = w;
lastChange = "2018-02-26 08:19:36 +0000";
layers = (
{
anchors = (
{
name = bottom;
position = "{323, 0}";
},
{
name = top;
position = "{349, 420}";
}
);
layerId = "0B1DFD06-3317-40CA-B510-4969A0718C16";
paths = (
{
closed = 1;
nodes = (
"258 -7 OFFCURVE",
"320 29 OFFCURVE",
"332 124 CURVE",
"315 130 LINE",
"315 109 OFFCURVE",
"314 93 OFFCURVE",
"315 83 CURVE",
"327 56 OFFCURVE",
"372 -2 OFFCURVE",
"429 -2 CURVE SMOOTH",
"522 -2 OFFCURVE",
"569 82 OFFCURVE",
"569 176 CURVE SMOOTH",
"569 267 OFFCURVE",
"534 333 OFFCURVE",
"484 378 CURVE",
"474 368 LINE",
"515 316 OFFCURVE",
"566 272 OFFCURVE",
"665 272 CURVE SMOOTH",
"726 272 OFFCURVE",
"796 304 OFFCURVE",
"796 360 CURVE SMOOTH",
"796 371 OFFCURVE",
"793 382 OFFCURVE",
"785 385 CURVE",
"756 332 OFFCURVE",
"708 307 OFFCURVE",
"651 307 CURVE SMOOTH",
"547 307 OFFCURVE",
"481 420 OFFCURVE",
"468 420 CURVE SMOOTH",
"459 420 OFFCURVE",
"442 406 OFFCURVE",
"439 392 CURVE",
"482 326 OFFCURVE",
"523 282 OFFCURVE",
"523 178 CURVE SMOOTH",
"523 95 OFFCURVE",
"494 35 OFFCURVE",
"425 35 CURVE SMOOTH",
"409 35 OFFCURVE",
"369 65 OFFCURVE",
"356 92 CURVE",
"353 111 OFFCURVE",
"352 142 OFFCURVE",
"352 162 CURVE SMOOTH",
"352 213 OFFCURVE",
"362 287 OFFCURVE",
"362 314 CURVE SMOOTH",
"362 344 OFFCURVE",
"353 351 OFFCURVE",
"311 351 CURVE",
"310 292 OFFCURVE",
"309 228 OFFCURVE",
"304 160 CURVE SMOOTH",
"297 69 OFFCURVE",
"251 36 OFFCURVE",
"204 36 CURVE SMOOTH",
"178 36 OFFCURVE",
"145 71 OFFCURVE",
"136 98 CURVE",
"133 175 OFFCURVE",
"151 342 OFFCURVE",
"167 411 CURVE",
"164 417 OFFCURVE",
"153 420 OFFCURVE",
"146 420 CURVE SMOOTH",
"118 420 OFFCURVE",
"116 405 OFFCURVE",
"112 369 CURVE SMOOTH",
"106 314 OFFCURVE",
"90 184 OFFCURVE",
"89 92 CURVE",
"101 51 OFFCURVE",
"161 -7 OFFCURVE",
"204 -7 CURVE SMOOTH"
);
}
);
width = 660;
},
{
anchors = (
{
name = bottom;
position = "{277, 0}";
},
{
name = top;
position = "{377, 420}";
}
);
layerId = "4C458150-A1D2-4ED7-A293-C8767657F79E";
paths = (
{
closed = 1;
nodes = (
"221 -7 OFFCURVE",
"279 29 OFFCURVE",
"308 124 CURVE",
"292 130 LINE",
"288 109 OFFCURVE",
"284 93 OFFCURVE",
"284 83 CURVE",
"291 56 OFFCURVE",
"326 -2 OFFCURVE",
"383 -2 CURVE SMOOTH",
"493 -2 OFFCURVE",
"557 102 OFFCURVE",
"557 221 CURVE SMOOTH",
"557 299 OFFCURVE",
"533 343 OFFCURVE",
"511 366 CURVE",
"500 361 LINE",
"516 333 OFFCURVE",
"562 271 OFFCURVE",
"661 271 CURVE SMOOTH",
"739 271 OFFCURVE",
"817 308 OFFCURVE",
"817 370 CURVE SMOOTH",
"817 377 OFFCURVE",
"815 383 OFFCURVE",
"810 385 CURVE",
"775 332 OFFCURVE",
"717 307 OFFCURVE",
"652 307 CURVE SMOOTH",
"548 307 OFFCURVE",
"508 413 OFFCURVE",
"495 413 CURVE SMOOTH",
"486 413 OFFCURVE",
"471 397 OFFCURVE",
"466 383 CURVE",
"475 357 OFFCURVE",
"511 318 OFFCURVE",
"511 221 CURVE SMOOTH",
"511 128 OFFCURVE",
"471 35 OFFCURVE",
"385 35 CURVE SMOOTH",
"369 35 OFFCURVE",
"335 65 OFFCURVE",
"327 92 CURVE",
"327 116 OFFCURVE",
"331 141 OFFCURVE",
"336 166 CURVE SMOOTH",
"349 228 OFFCURVE",
"371 289 OFFCURVE",
"371 320 CURVE SMOOTH",
"371 343 OFFCURVE",
"360 351 OFFCURVE",
"327 351 CURVE",
"316 292 OFFCURVE",
"303 228 OFFCURVE",
"286 160 CURVE SMOOTH",
"263 69 OFFCURVE",
"211 36 OFFCURVE",
"164 36 CURVE SMOOTH",
"138 36 OFFCURVE",
"115 71 OFFCURVE",
"110 98 CURVE",
"121 175 OFFCURVE",
"161 333 OFFCURVE",
"199 403 CURVE",
"197 409 OFFCURVE",
"190 415 OFFCURVE",
"181 415 CURVE SMOOTH",
"153 415 OFFCURVE",
"141 400 OFFCURVE",
"130 364 CURVE SMOOTH",
"113 309 OFFCURVE",
"76 184 OFFCURVE",
"59 92 CURVE",
"64 51 OFFCURVE",
"114 -7 OFFCURVE",
"157 -7 CURVE SMOOTH"
);
}
);
width = 660;
}
);
note = w;
unicode = 0077;
},
{
color = 4;
glyphname = x;
lastChange = "2018-02-25 16:46:24 +0000";
layers = (
{
layerId = "0B1DFD06-3317-40CA-B510-4969A0718C16";
paths = (
{
closed = 1;
nodes = (
"13 -21 OFFCURVE",
"176 227 OFFCURVE",
"357 371 CURVE",
"357 381 OFFCURVE",
"352 412 OFFCURVE",
"342 412 CURVE SMOOTH",
"324 412 OFFCURVE",
"293 384 OFFCURVE",
"256 347 CURVE SMOOTH",
"127 216 OFFCURVE",
"16 15 OFFCURVE",
"-16 -94 CURVE SMOOTH",
"-22 -116 OFFCURVE",
"-29 -133 OFFCURVE",
"-29 -149 CURVE SMOOTH",
"-29 -176 OFFCURVE",
"-10 -195 OFFCURVE",
"23 -214 CURVE"
);
},
{
closed = 1;
nodes = (
"400 -7 OFFCURVE",
"473 73 OFFCURVE",
"465 117 CURVE SMOOTH",
"463 130 OFFCURVE",
"457 140 OFFCURVE",
"449 144 CURVE",
"423 69 OFFCURVE",
"367 35 OFFCURVE",
"304 35 CURVE SMOOTH",
"229 35 OFFCURVE",
"146 152 OFFCURVE",
"125 291 CURVE SMOOTH",
"118 334 OFFCURVE",
"116 373 OFFCURVE",
"125 401 CURVE SMOOTH",
"126 405 OFFCURVE",
"121 411 OFFCURVE",
"115 411 CURVE",
"108 402 OFFCURVE",
"101 395 OFFCURVE",
"93 389 CURVE SMOOTH",
"86 384 OFFCURVE",
"82 374 OFFCURVE",
"82 356 CURVE SMOOTH",
"82 329 OFFCURVE",
"85 298 OFFCURVE",
"90 270 CURVE SMOOTH",
"114 133 OFFCURVE",
"198 -7 OFFCURVE",
"302 -7 CURVE SMOOTH"
);
}
);
width = 366;
},
{
layerId = "4C458150-A1D2-4ED7-A293-C8767657F79E";
paths = (
{
closed = 1;
nodes = (
"-11 -21 OFFCURVE",
"190 236 OFFCURVE",
"404 366 CURVE",
"407 373 OFFCURVE",
"409 385 OFFCURVE",
"409 394 CURVE SMOOTH",
"409 406 OFFCURVE",
"408 412 OFFCURVE",
"400 412 CURVE SMOOTH",
"378 412 OFFCURVE",
"342 393 OFFCURVE",
"301 357 CURVE SMOOTH",
"145 220 OFFCURVE",
"-4 21 OFFCURVE",
"-66 -88 CURVE SMOOTH",
"-78 -109 OFFCURVE",
"-90 -133 OFFCURVE",
"-90 -148 CURVE SMOOTH",
"-90 -175 OFFCURVE",
"-74 -189 OFFCURVE",
"-35 -214 CURVE"
);
},
{
closed = 1;
nodes = (
"381 -7 OFFCURVE",
"468 73 OFFCURVE",
"468 117 CURVE SMOOTH",
"468 130 OFFCURVE",
"464 140 OFFCURVE",
"457 144 CURVE",
"418 69 OFFCURVE",
"356 35 OFFCURVE",
"293 35 CURVE SMOOTH",
"218 35 OFFCURVE",
"159 172 OFFCURVE",
"159 291 CURVE SMOOTH",
"159 334 OFFCURVE",
"164 373 OFFCURVE",
"178 401 CURVE SMOOTH",
"180 405 OFFCURVE",
"176 411 OFFCURVE",
"170 411 CURVE",
"161 402 OFFCURVE",
"153 395 OFFCURVE",
"144 389 CURVE SMOOTH",
"136 384 OFFCURVE",
"130 374 OFFCURVE",
"127 356 CURVE SMOOTH",
"123 329 OFFCURVE",
"120 298 OFFCURVE",
"120 270 CURVE SMOOTH",
"120 133 OFFCURVE",
"179 -7 OFFCURVE",
"283 -7 CURVE SMOOTH"
);
}
);
width = 366;
}
);
note = x;
unicode = 0078;
},
{
color = 4;
glyphname = y;
lastChange = "2018-02-26 08:20:01 +0000";
layers = (
{
anchors = (
{
name = bottom;
position = "{192, 0}";
},
{
name = top;
position = "{242, 420}";
}
);
layerId = "0B1DFD06-3317-40CA-B510-4969A0718C16";
paths = (
{
closed = 1;
nodes = (
"289 -513 OFFCURVE",
"340 -126 OFFCURVE",
"365 85 CURVE SMOOTH",
"376 179 OFFCURVE",
"376 301 OFFCURVE",
"383 395 CURVE",
"375 414 OFFCURVE",
"343 418 OFFCURVE",
"327 418 CURVE",
"328 328 OFFCURVE",
"327 213 OFFCURVE",
"317 127 CURVE",
"302 100 OFFCURVE",
"228 48 OFFCURVE",
"196 48 CURVE SMOOTH",
"177 48 OFFCURVE",
"150 69 OFFCURVE",
"147 89 CURVE",
"149 137 OFFCURVE",
"150 265 OFFCURVE",
"156 411 CURVE",
"147 414 OFFCURVE",
"139 416 OFFCURVE",
"131 416 CURVE SMOOTH",
"109 416 OFFCURVE",
"103 410 OFFCURVE",
"102 388 CURVE SMOOTH",
"97 270 OFFCURVE",
"98 141 OFFCURVE",
"96 77 CURVE",
"102 42 OFFCURVE",
"155 0 OFFCURVE",
"186 0 CURVE SMOOTH",
"235 0 OFFCURVE",
"302 48 OFFCURVE",
"331 88 CURVE",
"316 88 LINE",
"281 -277 OFFCURVE",
"176 -450 OFFCURVE",
"-62 -450 CURVE SMOOTH",
"-168 -450 OFFCURVE",
"-246 -394 OFFCURVE",
"-292 -322 CURVE",
"-293 -332 OFFCURVE",
"-297 -343 OFFCURVE",
"-294 -355 CURVE SMOOTH",
"-272 -443 OFFCURVE",
"-192 -513 OFFCURVE",
"-72 -513 CURVE SMOOTH"
);
}
);
width = 454;
},
{
anchors = (
{
name = bottom;
position = "{151, 0}";
},
{
name = top;
position = "{294, 420}";
}
);
layerId = "4C458150-A1D2-4ED7-A293-C8767657F79E";
paths = (
{
closed = 1;
nodes = (
"177 -513 OFFCURVE",
"276 -126 OFFCURVE",
"343 85 CURVE SMOOTH",
"373 179 OFFCURVE",
"401 290 OFFCURVE",
"429 384 CURVE",
"424 403 OFFCURVE",
"395 418 OFFCURVE",
"379 418 CURVE",
"359 328 OFFCURVE",
"341 226 OFFCURVE",
"301 127 CURVE",
"281 100 OFFCURVE",
"202 48 OFFCURVE",
"170 48 CURVE SMOOTH",
"151 48 OFFCURVE",
"131 69 OFFCURVE",
"131 89 CURVE",
"142 137 OFFCURVE",
"172 263 OFFCURVE",
"207 409 CURVE",
"199 412 OFFCURVE",
"191 414 OFFCURVE",
"183 414 CURVE SMOOTH",
"161 414 OFFCURVE",
"153 408 OFFCURVE",
"148 386 CURVE SMOOTH",
"121 268 OFFCURVE",
"91 141 OFFCURVE",
"78 77 CURVE",
"78 42 OFFCURVE",
"120 0 OFFCURVE",
"151 0 CURVE SMOOTH",
"200 0 OFFCURVE",
"274 48 OFFCURVE",
"310 88 CURVE",
"293 88 LINE",
"194 -277 OFFCURVE",
"75 -450 OFFCURVE",
"-173 -450 CURVE SMOOTH",
"-279 -450 OFFCURVE",
"-347 -394 OFFCURVE",
"-380 -322 CURVE",
"-383 -332 OFFCURVE",
"-389 -343 OFFCURVE",
"-388 -355 CURVE SMOOTH",
"-381 -443 OFFCURVE",
"-324 -513 OFFCURVE",
"-174 -513 CURVE SMOOTH"
);
}
);
width = 454;
}
);
note = y;
unicode = 0079;
},
{
color = 4;
glyphname = z;
lastChange = "2018-02-25 16:46:49 +0000";
layers = (
{
anchors = (
{
name = bottom;
position = "{204, 0}";
},
{
name = top;
position = "{217, 420}";
}
);
layerId = "0B1DFD06-3317-40CA-B510-4969A0718C16";
paths = (
{
closed = 1;
nodes = (
"1078 -271 OFFCURVE",
"1157 -203 OFFCURVE",
"1141 -114 CURVE SMOOTH",
"1136 -86 OFFCURVE",
"1117 -56 OFFCURVE",
"1096 -56 CURVE",
"1081 -162 OFFCURVE",
"1027 -227 OFFCURVE",
"904 -227 CURVE SMOOTH",
"728 -227 OFFCURVE",
"430 -80 OFFCURVE",
"160 81 CURVE",
"172 58 LINE",
"237 138 OFFCURVE",
"324 258 OFFCURVE",
"381 355 CURVE SMOOTH",
"388 367 OFFCURVE",
"391 379 OFFCURVE",
"389 388 CURVE SMOOTH",
"385 404 OFFCURVE",
"373 414 OFFCURVE",
"352 414 CURVE",
"314 361 OFFCURVE",
"274 327 OFFCURVE",
"211 327 CURVE SMOOTH",
"160 327 OFFCURVE",
"135 348 OFFCURVE",
"135 375 CURVE SMOOTH",
"135 389 OFFCURVE",
"138 402 OFFCURVE",
"142 412 CURVE",
"140 418 OFFCURVE",
"130 421 OFFCURVE",
"122 421 CURVE SMOOTH",
"100 421 OFFCURVE",
"83 406 OFFCURVE",
"83 373 CURVE SMOOTH",
"83 320 OFFCURVE",
"137 286 OFFCURVE",
"195 286 CURVE SMOOTH",
"268 286 OFFCURVE",
"305 311 OFFCURVE",
"327 334 CURVE",
"315 336 LINE",
"239 221 OFFCURVE",
"185 142 OFFCURVE",
"67 16 CURVE",
"68 8 OFFCURVE",
"96 -9 OFFCURVE",
"105 -9 CURVE",
"121 12 OFFCURVE",
"129 28 OFFCURVE",
"149 28 CURVE SMOOTH",
"164 28 OFFCURVE",
"177 25 OFFCURVE",
"196 15 CURVE SMOOTH",
"428 -107 OFFCURVE",
"688 -271 OFFCURVE",
"921 -271 CURVE SMOOTH"
);
}
);
width = 450;
},
{
anchors = (
{
name = bottom;
position = "{190, 0}";
},
{
name = top;
position = "{277, 420}";
}
);
layerId = "4C458150-A1D2-4ED7-A293-C8767657F79E";
paths = (
{
closed = 1;
nodes = (
"977 -271 OFFCURVE",
"1067 -203 OFFCURVE",
"1067 -114 CURVE SMOOTH",
"1067 -86 OFFCURVE",
"1053 -56 OFFCURVE",
"1032 -56 CURVE",
"999 -162 OFFCURVE",
"933 -227 OFFCURVE",
"810 -227 CURVE SMOOTH",
"634 -227 OFFCURVE",
"349 -82 OFFCURVE",
"107 79 CURVE",
"114 58 LINE",
"173 102 OFFCURVE",
"316 251 OFFCURVE",
"389 349 CURVE SMOOTH",
"398 361 OFFCURVE",
"403 373 OFFCURVE",
"403 382 CURVE SMOOTH",
"403 398 OFFCURVE",
"391 408 OFFCURVE",
"370 408 CURVE",
"323 355 OFFCURVE",
"264 327 OFFCURVE",
"219 327 CURVE SMOOTH",
"169 327 OFFCURVE",
"161 348 OFFCURVE",
"161 370 CURVE SMOOTH",
"161 393 OFFCURVE",
"169 409 OFFCURVE",
"176 417 CURVE",
"175 423 OFFCURVE",
"165 426 OFFCURVE",
"157 426 CURVE SMOOTH",
"124 426 OFFCURVE",
"106 394 OFFCURVE",
"106 358 CURVE SMOOTH",
"106 315 OFFCURVE",
"149 286 OFFCURVE",
"196 286 CURVE SMOOTH",
"251 286 OFFCURVE",
"300 304 OFFCURVE",
"325 320 CURVE",
"313 322 LINE",
"217 207 OFFCURVE",
"135 126 OFFCURVE",
"8 27 CURVE",
"8 19 OFFCURVE",
"34 -9 OFFCURVE",
"43 -9 CURVE",
"62 12 OFFCURVE",
"77 28 OFFCURVE",
"97 28 CURVE SMOOTH",
"112 28 OFFCURVE",
"121 25 OFFCURVE",
"138 15 CURVE SMOOTH",
"347 -108 OFFCURVE",
"587 -271 OFFCURVE",
"820 -271 CURVE SMOOTH"
);
}
);
width = 450;
}
);
note = z;
unicode = 007A;
},
{
color = 3;
glyphname = AE;
lastChange = "2018-02-21 14:17:28 +0000";
layers = (
{
anchors = (
{
name = bottom;
position = "{546, 0}";
},
{
name = top;
position = "{669, 700}";
}
);
layerId = "0B1DFD06-3317-40CA-B510-4969A0718C16";
paths = (
{
closed = 1;
nodes = (
"42 -112 OFFCURVE",
"49 -107 OFFCURVE",
"53 -99 CURVE",
"45 -62 OFFCURVE",
"47 -50 OFFCURVE",
"57 -22 CURVE SMOOTH",
"98 94 OFFCURVE",
"530 554 OFFCURVE",
"645 661 CURVE",
"627 661 LINE",
"627 379 OFFCURVE",
"626 160 OFFCURVE",
"631 63 CURVE SMOOTH",
"631 20 OFFCURVE",
"658 -13 OFFCURVE",
"828 -13 CURVE SMOOTH",
"907 -13 OFFCURVE",
"1000 -4 OFFCURVE",
"1080 11 CURVE SMOOTH",
"1101 17 OFFCURVE",
"1114 26 OFFCURVE",
"1121 40 CURVE SMOOTH",
"1124 46 OFFCURVE",
"1131 85 OFFCURVE",
"1143 97 CURVE",
"1141 104 OFFCURVE",
"1139 106 OFFCURVE",
"1135 102 CURVE",
"1049 26 OFFCURVE",
"921 27 OFFCURVE",
"802 27 CURVE SMOOTH",
"735 27 OFFCURVE",
"685 46 OFFCURVE",
"682 96 CURVE SMOOTH",
"676 187 OFFCURVE",
"678 476 OFFCURVE",
"678 637 CURVE SMOOTH",
"678 652 OFFCURVE",
"683 656 OFFCURVE",
"694 656 CURVE SMOOTH",
"770 656 OFFCURVE",
"977 658 OFFCURVE",
"1053 654 CURVE SMOOTH",
"1070 653 OFFCURVE",
"1072 642 OFFCURVE",
"1074 627 CURVE",
"1085 626 LINE",
"1091 647 OFFCURVE",
"1106 686 OFFCURVE",
"1106 694 CURVE SMOOTH",
"1106 700 OFFCURVE",
"1102 704 OFFCURVE",
"1095 704 CURVE SMOOTH",
"1010 704 OFFCURVE",
"766 699 OFFCURVE",
"690 699 CURVE SMOOTH",
"682 699 OFFCURVE",
"672 705 OFFCURVE",
"661 716 CURVE",
"643 716 OFFCURVE",
"633 710 OFFCURVE",
"620 700 CURVE SMOOTH",
"559 652 OFFCURVE",
"309 377 OFFCURVE",
"43 60 CURVE SMOOTH",
"5 15 OFFCURVE",
"-23 -14 OFFCURVE",
"0 -49 CURVE SMOOTH",
"39 -109 LINE"
);
},
{
closed = 1;
nodes = (
"364 332 OFFCURVE",
"941 329 OFFCURVE",
"1006 329 CURVE SMOOTH",
"1014 329 OFFCURVE",
"1017 331 OFFCURVE",
"1019 335 CURVE",
"1019 345 OFFCURVE",
"1031 371 OFFCURVE",
"1034 380 CURVE",
"1028 385 LINE",
"952 362 OFFCURVE",
"440 368 OFFCURVE",
"349 374 CURVE",
"316 329 LINE"
);
}
);
width = 1165;
},
{
anchors = (
{
name = bottom;
position = "{546, 0}";
},
{
name = top;
position = "{669, 700}";
}
);
layerId = "4C458150-A1D2-4ED7-A293-C8767657F79E";
paths = (
{
closed = 1;
nodes = (
"42 -112 OFFCURVE",
"49 -107 OFFCURVE",
"53 -99 CURVE",
"45 -62 OFFCURVE",
"47 -50 OFFCURVE",
"57 -22 CURVE SMOOTH",
"98 94 OFFCURVE",
"530 554 OFFCURVE",
"645 661 CURVE",
"627 661 LINE",
"627 379 OFFCURVE",
"626 160 OFFCURVE",
"631 63 CURVE SMOOTH",
"631 20 OFFCURVE",
"658 -13 OFFCURVE",
"828 -13 CURVE SMOOTH",
"907 -13 OFFCURVE",
"1000 -4 OFFCURVE",
"1080 11 CURVE SMOOTH",
"1101 17 OFFCURVE",
"1114 26 OFFCURVE",
"1121 40 CURVE SMOOTH",
"1124 46 OFFCURVE",
"1131 85 OFFCURVE",
"1143 97 CURVE",
"1141 104 OFFCURVE",
"1139 106 OFFCURVE",
"1135 102 CURVE",
"1049 26 OFFCURVE",
"921 27 OFFCURVE",
"802 27 CURVE SMOOTH",
"735 27 OFFCURVE",
"685 46 OFFCURVE",
"682 96 CURVE SMOOTH",
"676 187 OFFCURVE",
"678 476 OFFCURVE",
"678 637 CURVE SMOOTH",
"678 652 OFFCURVE",
"683 656 OFFCURVE",
"694 656 CURVE SMOOTH",
"770 656 OFFCURVE",
"977 658 OFFCURVE",
"1053 654 CURVE SMOOTH",
"1070 653 OFFCURVE",
"1072 642 OFFCURVE",
"1074 627 CURVE",
"1085 626 LINE",
"1091 647 OFFCURVE",
"1106 686 OFFCURVE",
"1106 694 CURVE SMOOTH",
"1106 700 OFFCURVE",
"1102 704 OFFCURVE",
"1095 704 CURVE SMOOTH",
"1010 704 OFFCURVE",
"766 699 OFFCURVE",
"690 699 CURVE SMOOTH",
"682 699 OFFCURVE",
"672 705 OFFCURVE",
"661 716 CURVE",
"643 716 OFFCURVE",
"633 710 OFFCURVE",
"620 700 CURVE SMOOTH",
"559 652 OFFCURVE",
"309 377 OFFCURVE",
"43 60 CURVE SMOOTH",
"5 15 OFFCURVE",
"-23 -14 OFFCURVE",
"0 -49 CURVE SMOOTH",
"39 -109 LINE"
);
},
{
closed = 1;
nodes = (
"364 332 OFFCURVE",
"941 329 OFFCURVE",
"1006 329 CURVE SMOOTH",
"1014 329 OFFCURVE",
"1017 331 OFFCURVE",
"1019 335 CURVE",
"1019 345 OFFCURVE",
"1031 371 OFFCURVE",
"1034 380 CURVE",
"1028 385 LINE",
"952 362 OFFCURVE",
"440 368 OFFCURVE",
"349 374 CURVE",
"316 329 LINE"
);
}
);
width = 1165;
}
);
note = AE;
unicode = 00C6;
},
{
color = 3;
glyphname = Dcroat;
lastChange = "2018-02-21 17:54:59 +0000";
layers = (
{
components = (
{
name = D;
},
{
name = macron;
transform = "{1, 0, 0, 1, 78, -190}";
}
);
layerId = "0B1DFD06-3317-40CA-B510-4969A0718C16";
width = 921;
},
{
layerId = "4C458150-A1D2-4ED7-A293-C8767657F79E";
paths = (
{
closed = 1;
nodes = (
"137 -5 LINE",
"161 20 OFFCURVE",
"170 36 OFFCURVE",
"188 36 CURVE SMOOTH",
"223 36 OFFCURVE",
"287 -13 OFFCURVE",
"417 -13 CURVE SMOOTH",
"669 -13 OFFCURVE",
"870 144 OFFCURVE",
"860 422 CURVE SMOOTH",
"851 659 OFFCURVE",
"663 707 OFFCURVE",
"470 707 CURVE SMOOTH",
"365 707 OFFCURVE",
"290 694 OFFCURVE",
"169 694 CURVE SMOOTH",
"139 694 OFFCURVE",
"101 713 OFFCURVE",
"98 713 CURVE SMOOTH",
"87 713 OFFCURVE",
"101 644 OFFCURVE",
"120 644 CURVE SMOOTH",
"188 645 OFFCURVE",
"249 665 OFFCURVE",
"317 665 CURVE SMOOTH",
"321 665 OFFCURVE",
"330 663 OFFCURVE",
"331 657 CURVE",
"321 608 OFFCURVE",
"284 495 OFFCURVE",
"246 380 CURVE",
"232 380 OFFCURVE",
"207 381 OFFCURVE",
"132 381 CURVE SMOOTH",
"123 381 OFFCURVE",
"115 351 OFFCURVE",
"115 343 CURVE",
"118 340 OFFCURVE",
"121 339 OFFCURVE",
"127 339 CURVE SMOOTH",
"134 339 OFFCURVE",
"189 346 OFFCURVE",
"236 346 CURVE",
"201 233 OFFCURVE",
"163 126 OFFCURVE",
"154 96 CURVE",
"144 74 OFFCURVE",
"111 33 OFFCURVE",
"92 5 CURVE"
);
},
{
closed = 1;
nodes = (
"409 670 OFFCURVE",
"425 670 OFFCURVE",
"450 670 CURVE SMOOTH",
"725 670 OFFCURVE",
"789 574 OFFCURVE",
"793 413 CURVE SMOOTH",
"802 188 OFFCURVE",
"621 30 OFFCURVE",
"414 30 CURVE SMOOTH",
"347 30 OFFCURVE",
"286 45 OFFCURVE",
"242 82 CURVE",
"227 93 OFFCURVE",
"224 107 OFFCURVE",
"230 124 CURVE",
"250 194 OFFCURVE",
"274 268 OFFCURVE",
"299 347 CURVE",
"375 347 OFFCURVE",
"394 350 OFFCURVE",
"507 350 CURVE SMOOTH",
"519 350 OFFCURVE",
"525 384 OFFCURVE",
"525 389 CURVE",
"524 393 OFFCURVE",
"519 395 OFFCURVE",
"512 395 CURVE SMOOTH",
"471 395 OFFCURVE",
"428 383 OFFCURVE",
"308 380 CURVE",
"340 471 OFFCURVE",
"369 564 OFFCURVE",
"401 651 CURVE"
);
}
);
width = 921;
}
);
note = Dcroat;
unicode = 0110;
},
{
color = 3;
glyphname = Eacute;
lastChange = "2018-02-22 05:04:08 +0000";
layers = (
{
background = {
paths = (
{
closed = 1;
nodes = (
"554 0 LINE",
"571 179 LINE",
"544 179 LINE",
"538 124 OFFCURVE",
"520 40 OFFCURVE",
"456 40 CURVE SMOOTH",
"201 40 LINE",
"201 659 LINE",
"441 659 LINE SMOOTH",
"516 659 OFFCURVE",
"525 567 OFFCURVE",
"528 527 CURVE",
"555 527 LINE",
"555 700 LINE",
"16 700 LINE",
"16 673 LINE",
"44 673 LINE SMOOTH",
"83 673 OFFCURVE",
"103 662 OFFCURVE",
"103 637 CURVE SMOOTH",
"103 62 LINE SMOOTH",
"103 37 OFFCURVE",
"83 26 OFFCURVE",
"44 26 CURVE SMOOTH",
"16 26 LINE",
"16 0 LINE"
);
},
{
closed = 1;
nodes = (
"455 251 LINE",
"455 485 LINE",
"431 485 LINE",
"427 436 OFFCURVE",
"424 388 OFFCURVE",
"379 388 CURVE SMOOTH",
"162 388 LINE",
"162 348 LINE",
"379 348 LINE SMOOTH",
"424 348 OFFCURVE",
"427 300 OFFCURVE",
"431 251 CURVE"
);
},
{
closed = 1;
nodes = (
"398 865 LINE SMOOTH",
"420 877 OFFCURVE",
"432 890 OFFCURVE",
"432 907 CURVE SMOOTH",
"432 922 OFFCURVE",
"420 937 OFFCURVE",
"398 937 CURVE SMOOTH",
"377 937 OFFCURVE",
"362 921 OFFCURVE",
"354 914 CURVE SMOOTH",
"239 807 LINE",
"256 782 LINE"
);
}
);
};
components = (
{
name = E;
},
{
name = acutecomb;
transform = "{1, 0, 0, 1, 261, 280}";
}
);
layerId = "0B1DFD06-3317-40CA-B510-4969A0718C16";
width = 732;
},
{
background = {
paths = (
{
closed = 1;
nodes = (
"554 0 LINE",
"571 179 LINE",
"544 179 LINE",
"538 124 OFFCURVE",
"520 40 OFFCURVE",
"456 40 CURVE SMOOTH",
"201 40 LINE",
"201 659 LINE",
"441 659 LINE SMOOTH",
"516 659 OFFCURVE",
"525 567 OFFCURVE",
"528 527 CURVE",
"555 527 LINE",
"555 700 LINE",
"16 700 LINE",
"16 673 LINE",
"44 673 LINE SMOOTH",
"83 673 OFFCURVE",
"103 662 OFFCURVE",
"103 637 CURVE SMOOTH",
"103 62 LINE SMOOTH",
"103 37 OFFCURVE",
"83 26 OFFCURVE",
"44 26 CURVE SMOOTH",
"16 26 LINE",
"16 0 LINE"
);
},
{
closed = 1;
nodes = (
"455 251 LINE",
"455 485 LINE",
"431 485 LINE",
"427 436 OFFCURVE",
"424 388 OFFCURVE",
"379 388 CURVE SMOOTH",
"162 388 LINE",
"162 348 LINE",
"379 348 LINE SMOOTH",
"424 348 OFFCURVE",
"427 300 OFFCURVE",
"431 251 CURVE"
);
},
{
closed = 1;
nodes = (
"398 865 LINE SMOOTH",
"420 877 OFFCURVE",
"432 890 OFFCURVE",
"432 907 CURVE SMOOTH",
"432 922 OFFCURVE",
"420 937 OFFCURVE",
"398 937 CURVE SMOOTH",
"377 937 OFFCURVE",
"362 921 OFFCURVE",
"354 914 CURVE SMOOTH",
"239 807 LINE",
"256 782 LINE"
);
}
);
};
components = (
{
name = E;
},
{
name = acutecomb;
transform = "{1, 0, 0, 1, 339, 280}";
}
);
layerId = "4C458150-A1D2-4ED7-A293-C8767657F79E";
width = 732;
}
);
note = Eacute;
unicode = 00C9;
},
{
color = 3;
glyphname = Ebreve;
lastChange = "2018-02-26 10:42:04 +0000";
layers = (
{
background = {
paths = (
{
closed = 1;
nodes = (
"554 0 LINE",
"571 179 LINE",
"544 179 LINE",
"538 124 OFFCURVE",
"520 40 OFFCURVE",
"456 40 CURVE SMOOTH",
"201 40 LINE",
"201 659 LINE",
"441 659 LINE SMOOTH",
"516 659 OFFCURVE",
"525 567 OFFCURVE",
"528 527 CURVE",
"555 527 LINE",
"555 700 LINE",
"16 700 LINE",
"16 673 LINE",
"44 673 LINE SMOOTH",
"83 673 OFFCURVE",
"103 662 OFFCURVE",
"103 637 CURVE SMOOTH",
"103 62 LINE SMOOTH",
"103 37 OFFCURVE",
"83 26 OFFCURVE",
"44 26 CURVE SMOOTH",
"16 26 LINE",
"16 0 LINE"
);
},
{
closed = 1;
nodes = (
"455 251 LINE",
"455 485 LINE",
"431 485 LINE",
"427 436 OFFCURVE",
"424 388 OFFCURVE",
"379 388 CURVE SMOOTH",
"162 388 LINE",
"162 348 LINE",
"379 348 LINE SMOOTH",
"424 348 OFFCURVE",
"427 300 OFFCURVE",
"431 251 CURVE"
);
},
{
closed = 1;
nodes = (
"432 776 OFFCURVE",
"474 832 OFFCURVE",
"478 907 CURVE",
"445 907 LINE",
"439 848 OFFCURVE",
"397 822 OFFCURVE",
"333 822 CURVE SMOOTH",
"269 822 OFFCURVE",
"226 848 OFFCURVE",
"219 907 CURVE",
"186 907 LINE",
"190 829 OFFCURVE",
"232 776 OFFCURVE",
"333 776 CURVE SMOOTH"
);
}
);
};
components = (
{
name = E;
},
{
name = brevecomb;
transform = "{1, 0, 0, 1, 427, 280}";
}
);
layerId = "0B1DFD06-3317-40CA-B510-4969A0718C16";
width = 732;
},
{
background = {
paths = (
{
closed = 1;
nodes = (
"554 0 LINE",
"571 179 LINE",
"544 179 LINE",
"538 124 OFFCURVE",
"520 40 OFFCURVE",
"456 40 CURVE SMOOTH",
"201 40 LINE",
"201 659 LINE",
"441 659 LINE SMOOTH",
"516 659 OFFCURVE",
"525 567 OFFCURVE",
"528 527 CURVE",
"555 527 LINE",
"555 700 LINE",
"16 700 LINE",
"16 673 LINE",
"44 673 LINE SMOOTH",
"83 673 OFFCURVE",
"103 662 OFFCURVE",
"103 637 CURVE SMOOTH",
"103 62 LINE SMOOTH",
"103 37 OFFCURVE",
"83 26 OFFCURVE",
"44 26 CURVE SMOOTH",
"16 26 LINE",
"16 0 LINE"
);
},
{
closed = 1;
nodes = (
"455 251 LINE",
"455 485 LINE",
"431 485 LINE",
"427 436 OFFCURVE",
"424 388 OFFCURVE",
"379 388 CURVE SMOOTH",
"162 388 LINE",
"162 348 LINE",
"379 348 LINE SMOOTH",
"424 348 OFFCURVE",
"427 300 OFFCURVE",
"431 251 CURVE"
);
},
{
closed = 1;
nodes = (
"432 776 OFFCURVE",
"474 832 OFFCURVE",
"478 907 CURVE",
"445 907 LINE",
"439 848 OFFCURVE",
"397 822 OFFCURVE",
"333 822 CURVE SMOOTH",
"269 822 OFFCURVE",
"226 848 OFFCURVE",
"219 907 CURVE",
"186 907 LINE",
"190 829 OFFCURVE",
"232 776 OFFCURVE",
"333 776 CURVE SMOOTH"
);
}
);
};
components = (
{
name = E;
},
{
name = brevecomb;
transform = "{1, 0, 0, 1, 468, 280}";
}
);
layerId = "4C458150-A1D2-4ED7-A293-C8767657F79E";
width = 732;
}
);
note = Ebreve;
unicode = 0114;
},
{
color = 3;
glyphname = Ecaron;
lastChange = "2018-02-23 06:58:36 +0000";
layers = (
{
background = {
paths = (
{
closed = 1;
nodes = (
"554 0 LINE",
"571 179 LINE",
"544 179 LINE",
"538 124 OFFCURVE",
"520 40 OFFCURVE",
"456 40 CURVE SMOOTH",
"201 40 LINE",
"201 659 LINE",
"441 659 LINE SMOOTH",
"516 659 OFFCURVE",
"525 567 OFFCURVE",
"528 527 CURVE",
"555 527 LINE",
"555 700 LINE",
"16 700 LINE",
"16 673 LINE",
"44 673 LINE SMOOTH",
"83 673 OFFCURVE",
"103 662 OFFCURVE",
"103 637 CURVE SMOOTH",
"103 62 LINE SMOOTH",
"103 37 OFFCURVE",
"83 26 OFFCURVE",
"44 26 CURVE SMOOTH",
"16 26 LINE",
"16 0 LINE"
);
},
{
closed = 1;
nodes = (
"455 251 LINE",
"455 485 LINE",
"431 485 LINE",
"427 436 OFFCURVE",
"424 388 OFFCURVE",
"379 388 CURVE SMOOTH",
"162 388 LINE",
"162 348 LINE",
"379 348 LINE SMOOTH",
"424 348 OFFCURVE",
"427 300 OFFCURVE",
"431 251 CURVE"
);
},
{
closed = 1;
nodes = (
"357 782 LINE",
"481 911 LINE",
"462 932 LINE",
"354 847 LINE",
"346 840 OFFCURVE",
"337 836 OFFCURVE",
"331 836 CURVE SMOOTH",
"325 836 OFFCURVE",
"317 840 OFFCURVE",
"307 847 CURVE",
"199 932 LINE",
"180 911 LINE",
"304 782 LINE"
);
}
);
};
components = (
{
name = E;
},
{
name = caroncomb;
transform = "{1, 0, 0, 1, 427, 280}";
}
);
layerId = "0B1DFD06-3317-40CA-B510-4969A0718C16";
width = 732;
},
{
background = {
paths = (
{
closed = 1;
nodes = (
"554 0 LINE",
"571 179 LINE",
"544 179 LINE",
"538 124 OFFCURVE",
"520 40 OFFCURVE",
"456 40 CURVE SMOOTH",
"201 40 LINE",
"201 659 LINE",
"441 659 LINE SMOOTH",
"516 659 OFFCURVE",
"525 567 OFFCURVE",
"528 527 CURVE",
"555 527 LINE",
"555 700 LINE",
"16 700 LINE",
"16 673 LINE",
"44 673 LINE SMOOTH",
"83 673 OFFCURVE",
"103 662 OFFCURVE",
"103 637 CURVE SMOOTH",
"103 62 LINE SMOOTH",
"103 37 OFFCURVE",
"83 26 OFFCURVE",
"44 26 CURVE SMOOTH",
"16 26 LINE",
"16 0 LINE"
);
},
{
closed = 1;
nodes = (
"455 251 LINE",
"455 485 LINE",
"431 485 LINE",
"427 436 OFFCURVE",
"424 388 OFFCURVE",
"379 388 CURVE SMOOTH",
"162 388 LINE",
"162 348 LINE",
"379 348 LINE SMOOTH",
"424 348 OFFCURVE",
"427 300 OFFCURVE",
"431 251 CURVE"
);
},
{
closed = 1;
nodes = (
"357 782 LINE",
"481 911 LINE",
"462 932 LINE",
"354 847 LINE",
"346 840 OFFCURVE",
"337 836 OFFCURVE",
"331 836 CURVE SMOOTH",
"325 836 OFFCURVE",
"317 840 OFFCURVE",
"307 847 CURVE",
"199 932 LINE",
"180 911 LINE",
"304 782 LINE"
);
}
);
};
components = (
{
name = E;
},
{
name = caroncomb;
transform = "{1, 0, 0, 1, 469, 280}";
}
);
layerId = "4C458150-A1D2-4ED7-A293-C8767657F79E";
width = 732;
}
);
note = Ecaron;
unicode = 011A;
},
{
color = 3;
glyphname = Ecircumflex;
lastChange = "2018-02-22 14:10:56 +0000";
layers = (
{
background = {
paths = (
{
closed = 1;
nodes = (
"554 0 LINE",
"571 179 LINE",
"544 179 LINE",
"538 124 OFFCURVE",
"520 40 OFFCURVE",
"456 40 CURVE SMOOTH",
"201 40 LINE",
"201 659 LINE",
"441 659 LINE SMOOTH",
"516 659 OFFCURVE",
"525 567 OFFCURVE",
"528 527 CURVE",
"555 527 LINE",
"555 700 LINE",
"16 700 LINE",
"16 673 LINE",
"44 673 LINE SMOOTH",
"83 673 OFFCURVE",
"103 662 OFFCURVE",
"103 637 CURVE SMOOTH",
"103 62 LINE SMOOTH",
"103 37 OFFCURVE",
"83 26 OFFCURVE",
"44 26 CURVE SMOOTH",
"16 26 LINE",
"16 0 LINE"
);
},
{
closed = 1;
nodes = (
"455 251 LINE",
"455 485 LINE",
"431 485 LINE",
"427 436 OFFCURVE",
"424 388 OFFCURVE",
"379 388 CURVE SMOOTH",
"162 388 LINE",
"162 348 LINE",
"379 348 LINE SMOOTH",
"424 348 OFFCURVE",
"427 300 OFFCURVE",
"431 251 CURVE"
);
},
{
closed = 1;
nodes = (
"304 868 LINE SMOOTH",
"312 874 OFFCURVE",
"322 879 OFFCURVE",
"328 879 CURVE SMOOTH",
"334 879 OFFCURVE",
"342 874 OFFCURVE",
"351 868 CURVE",
"459 782 LINE",
"478 803 LINE",
"354 932 LINE",
"301 932 LINE",
"177 803 LINE",
"196 782 LINE"
);
}
);
};
components = (
{
name = E;
},
{
name = circumflexcomb;
transform = "{1, 0, 0, 1, 426, 280}";
}
);
layerId = "0B1DFD06-3317-40CA-B510-4969A0718C16";
width = 732;
},
{
background = {
paths = (
{
closed = 1;
nodes = (
"554 0 LINE",
"571 179 LINE",
"544 179 LINE",
"538 124 OFFCURVE",
"520 40 OFFCURVE",
"456 40 CURVE SMOOTH",
"201 40 LINE",
"201 659 LINE",
"441 659 LINE SMOOTH",
"516 659 OFFCURVE",
"525 567 OFFCURVE",
"528 527 CURVE",
"555 527 LINE",
"555 700 LINE",
"16 700 LINE",
"16 673 LINE",
"44 673 LINE SMOOTH",
"83 673 OFFCURVE",
"103 662 OFFCURVE",
"103 637 CURVE SMOOTH",
"103 62 LINE SMOOTH",
"103 37 OFFCURVE",
"83 26 OFFCURVE",
"44 26 CURVE SMOOTH",
"16 26 LINE",
"16 0 LINE"
);
},
{
closed = 1;
nodes = (
"455 251 LINE",
"455 485 LINE",
"431 485 LINE",
"427 436 OFFCURVE",
"424 388 OFFCURVE",
"379 388 CURVE SMOOTH",
"162 388 LINE",
"162 348 LINE",
"379 348 LINE SMOOTH",
"424 348 OFFCURVE",
"427 300 OFFCURVE",
"431 251 CURVE"
);
},
{
closed = 1;
nodes = (
"304 868 LINE SMOOTH",
"312 874 OFFCURVE",
"322 879 OFFCURVE",
"328 879 CURVE SMOOTH",
"334 879 OFFCURVE",
"342 874 OFFCURVE",
"351 868 CURVE",
"459 782 LINE",
"478 803 LINE",
"354 932 LINE",
"301 932 LINE",
"177 803 LINE",
"196 782 LINE"
);
}
);
};
components = (
{
name = E;
},
{
name = circumflexcomb;
transform = "{1, 0, 0, 1, 464, 230}";
}
);
layerId = "4C458150-A1D2-4ED7-A293-C8767657F79E";
width = 732;
}
);
note = Ecircumflex;
unicode = 00CA;
},
{
color = 3;
glyphname = Ecircumflexacute;
lastChange = "2018-02-22 14:10:56 +0000";
layers = (
{
background = {
paths = (
{
closed = 1;
nodes = (
"554 0 LINE",
"571 179 LINE",
"544 179 LINE",
"538 124 OFFCURVE",
"520 40 OFFCURVE",
"456 40 CURVE SMOOTH",
"201 40 LINE",
"201 659 LINE",
"441 659 LINE SMOOTH",
"516 659 OFFCURVE",
"525 567 OFFCURVE",
"528 527 CURVE",
"555 527 LINE",
"555 700 LINE",
"16 700 LINE",
"16 673 LINE",
"44 673 LINE SMOOTH",
"83 673 OFFCURVE",
"103 662 OFFCURVE",
"103 637 CURVE SMOOTH",
"103 62 LINE SMOOTH",
"103 37 OFFCURVE",
"83 26 OFFCURVE",
"44 26 CURVE SMOOTH",
"16 26 LINE",
"16 0 LINE"
);
},
{
closed = 1;
nodes = (
"455 251 LINE",
"455 485 LINE",
"431 485 LINE",
"427 436 OFFCURVE",
"424 388 OFFCURVE",
"379 388 CURVE SMOOTH",
"162 388 LINE",
"162 348 LINE",
"379 348 LINE SMOOTH",
"424 348 OFFCURVE",
"427 300 OFFCURVE",
"431 251 CURVE"
);
},
{
closed = 1;
nodes = (
"290 862 LINE SMOOTH",
"300 870 OFFCURVE",
"310 878 OFFCURVE",
"318 878 CURVE SMOOTH",
"324 878 OFFCURVE",
"332 873 OFFCURVE",
"341 867 CURVE",
"447 781 LINE",
"466 803 LINE",
"344 932 LINE",
"293 932 LINE",
"171 803 LINE",
"189 781 LINE"
);
},
{
closed = 1;
nodes = (
"555 960 LINE SMOOTH",
"578 972 OFFCURVE",
"591 988 OFFCURVE",
"591 1003 CURVE SMOOTH",
"591 1017 OFFCURVE",
"580 1034 OFFCURVE",
"557 1034 CURVE SMOOTH",
"538 1034 OFFCURVE",
"521 1018 OFFCURVE",
"511 1008 CURVE SMOOTH",
"415 915 LINE",
"433 893 LINE"
);
}
);
};
components = (
{
name = E;
},
{
name = circumflexacute;
transform = "{1, 0, 0, 1, 426, 280}";
}
);
layerId = "0B1DFD06-3317-40CA-B510-4969A0718C16";
width = 732;
},
{
background = {
paths = (
{
closed = 1;
nodes = (
"554 0 LINE",
"571 179 LINE",
"544 179 LINE",
"538 124 OFFCURVE",
"520 40 OFFCURVE",
"456 40 CURVE SMOOTH",
"201 40 LINE",
"201 659 LINE",
"441 659 LINE SMOOTH",
"516 659 OFFCURVE",
"525 567 OFFCURVE",
"528 527 CURVE",
"555 527 LINE",
"555 700 LINE",
"16 700 LINE",
"16 673 LINE",
"44 673 LINE SMOOTH",
"83 673 OFFCURVE",
"103 662 OFFCURVE",
"103 637 CURVE SMOOTH",
"103 62 LINE SMOOTH",
"103 37 OFFCURVE",
"83 26 OFFCURVE",
"44 26 CURVE SMOOTH",
"16 26 LINE",
"16 0 LINE"
);
},
{
closed = 1;
nodes = (
"455 251 LINE",
"455 485 LINE",
"431 485 LINE",
"427 436 OFFCURVE",
"424 388 OFFCURVE",
"379 388 CURVE SMOOTH",
"162 388 LINE",
"162 348 LINE",
"379 348 LINE SMOOTH",
"424 348 OFFCURVE",
"427 300 OFFCURVE",
"431 251 CURVE"
);
},
{
closed = 1;
nodes = (
"290 862 LINE SMOOTH",
"300 870 OFFCURVE",
"310 878 OFFCURVE",
"318 878 CURVE SMOOTH",
"324 878 OFFCURVE",
"332 873 OFFCURVE",
"341 867 CURVE",
"447 781 LINE",
"466 803 LINE",
"344 932 LINE",
"293 932 LINE",
"171 803 LINE",
"189 781 LINE"
);
},
{
closed = 1;
nodes = (
"555 960 LINE SMOOTH",
"578 972 OFFCURVE",
"591 988 OFFCURVE",
"591 1003 CURVE SMOOTH",
"591 1017 OFFCURVE",
"580 1034 OFFCURVE",
"557 1034 CURVE SMOOTH",
"538 1034 OFFCURVE",
"521 1018 OFFCURVE",
"511 1008 CURVE SMOOTH",
"415 915 LINE",
"433 893 LINE"
);
}
);
};
components = (
{
name = E;
},
{
name = circumflexacute;
transform = "{1, 0, 0, 1, 464, 230}";
}
);
layerId = "4C458150-A1D2-4ED7-A293-C8767657F79E";
width = 732;
}
);
note = Ecircumflexacute;
unicode = 1EBE;
},
{
color = 3;
glyphname = Ecircumflexdotbelow;
lastChange = "2018-02-22 14:10:56 +0000";
layers = (
{
background = {
paths = (
{
closed = 1;
nodes = (
"554 0 LINE",
"571 179 LINE",
"544 179 LINE",
"538 124 OFFCURVE",
"520 40 OFFCURVE",
"456 40 CURVE SMOOTH",
"201 40 LINE",
"201 659 LINE",
"441 659 LINE SMOOTH",
"516 659 OFFCURVE",
"525 567 OFFCURVE",
"528 527 CURVE",
"555 527 LINE",
"555 700 LINE",
"16 700 LINE",
"16 673 LINE",
"44 673 LINE SMOOTH",
"83 673 OFFCURVE",
"103 662 OFFCURVE",
"103 637 CURVE SMOOTH",
"103 62 LINE SMOOTH",
"103 37 OFFCURVE",
"83 26 OFFCURVE",
"44 26 CURVE SMOOTH",
"16 26 LINE",
"16 0 LINE"
);
},
{
closed = 1;
nodes = (
"350 -159 OFFCURVE",
"368 -140 OFFCURVE",
"368 -112 CURVE SMOOTH",
"368 -84 OFFCURVE",
"350 -64 OFFCURVE",
"322 -64 CURVE SMOOTH",
"294 -64 OFFCURVE",
"275 -84 OFFCURVE",
"275 -112 CURVE SMOOTH",
"275 -140 OFFCURVE",
"294 -159 OFFCURVE",
"322 -159 CURVE SMOOTH"
);
},
{
closed = 1;
nodes = (
"455 251 LINE",
"455 485 LINE",
"431 485 LINE",
"427 436 OFFCURVE",
"424 388 OFFCURVE",
"379 388 CURVE SMOOTH",
"162 388 LINE",
"162 348 LINE",
"379 348 LINE SMOOTH",
"424 348 OFFCURVE",
"427 300 OFFCURVE",
"431 251 CURVE"
);
},
{
closed = 1;
nodes = (
"294 868 LINE SMOOTH",
"302 874 OFFCURVE",
"312 879 OFFCURVE",
"318 879 CURVE SMOOTH",
"324 879 OFFCURVE",
"332 874 OFFCURVE",
"341 868 CURVE",
"449 782 LINE",
"468 803 LINE",
"344 932 LINE",
"291 932 LINE",
"167 803 LINE",
"186 782 LINE"
);
}
);
};
components = (
{
name = E;
},
{
name = dotbelowcomb;
transform = "{1, 0, 0, 1, 335, 0}";
},
{
name = circumflexcomb;
transform = "{1, 0, 0, 1, 426, 280}";
}
);
layerId = "0B1DFD06-3317-40CA-B510-4969A0718C16";
width = 732;
},
{
background = {
paths = (
{
closed = 1;
nodes = (
"554 0 LINE",
"571 179 LINE",
"544 179 LINE",
"538 124 OFFCURVE",
"520 40 OFFCURVE",
"456 40 CURVE SMOOTH",
"201 40 LINE",
"201 659 LINE",
"441 659 LINE SMOOTH",
"516 659 OFFCURVE",
"525 567 OFFCURVE",
"528 527 CURVE",
"555 527 LINE",
"555 700 LINE",
"16 700 LINE",
"16 673 LINE",
"44 673 LINE SMOOTH",
"83 673 OFFCURVE",
"103 662 OFFCURVE",
"103 637 CURVE SMOOTH",
"103 62 LINE SMOOTH",
"103 37 OFFCURVE",
"83 26 OFFCURVE",
"44 26 CURVE SMOOTH",
"16 26 LINE",
"16 0 LINE"
);
},
{
closed = 1;
nodes = (
"350 -159 OFFCURVE",
"368 -140 OFFCURVE",
"368 -112 CURVE SMOOTH",
"368 -84 OFFCURVE",
"350 -64 OFFCURVE",
"322 -64 CURVE SMOOTH",
"294 -64 OFFCURVE",
"275 -84 OFFCURVE",
"275 -112 CURVE SMOOTH",
"275 -140 OFFCURVE",
"294 -159 OFFCURVE",
"322 -159 CURVE SMOOTH"
);
},
{
closed = 1;
nodes = (
"455 251 LINE",
"455 485 LINE",
"431 485 LINE",
"427 436 OFFCURVE",
"424 388 OFFCURVE",
"379 388 CURVE SMOOTH",
"162 388 LINE",
"162 348 LINE",
"379 348 LINE SMOOTH",
"424 348 OFFCURVE",
"427 300 OFFCURVE",
"431 251 CURVE"
);
},
{
closed = 1;
nodes = (
"294 868 LINE SMOOTH",
"302 874 OFFCURVE",
"312 879 OFFCURVE",
"318 879 CURVE SMOOTH",
"324 879 OFFCURVE",
"332 874 OFFCURVE",
"341 868 CURVE",
"449 782 LINE",
"468 803 LINE",
"344 932 LINE",
"291 932 LINE",
"167 803 LINE",
"186 782 LINE"
);
}
);
};
components = (
{
name = E;
},
{
name = dotbelowcomb;
transform = "{1, 0, 0, 1, 347, 0}";
},
{
name = circumflexcomb;
transform = "{1, 0, 0, 1, 464, 230}";
}
);
layerId = "4C458150-A1D2-4ED7-A293-C8767657F79E";
width = 732;
}
);
note = Ecircumflexdotbelow;
unicode = 1EC6;
},
{
color = 3;
glyphname = Ecircumflexgrave;
lastChange = "2018-02-22 14:10:56 +0000";
layers = (
{
background = {
paths = (
{
closed = 1;
nodes = (
"554 0 LINE",
"571 179 LINE",
"544 179 LINE",
"538 124 OFFCURVE",
"520 40 OFFCURVE",
"456 40 CURVE SMOOTH",
"201 40 LINE",
"201 659 LINE",
"441 659 LINE SMOOTH",
"516 659 OFFCURVE",
"525 567 OFFCURVE",
"528 527 CURVE",
"555 527 LINE",
"555 700 LINE",
"16 700 LINE",
"16 673 LINE",
"44 673 LINE SMOOTH",
"83 673 OFFCURVE",
"103 662 OFFCURVE",
"103 637 CURVE SMOOTH",
"103 62 LINE SMOOTH",
"103 37 OFFCURVE",
"83 26 OFFCURVE",
"44 26 CURVE SMOOTH",
"16 26 LINE",
"16 0 LINE"
);
},
{
closed = 1;
nodes = (
"455 251 LINE",
"455 485 LINE",
"431 485 LINE",
"427 436 OFFCURVE",
"424 388 OFFCURVE",
"379 388 CURVE SMOOTH",
"162 388 LINE",
"162 348 LINE",
"379 348 LINE SMOOTH",
"424 348 OFFCURVE",
"427 300 OFFCURVE",
"431 251 CURVE"
);
},
{
closed = 1;
nodes = (
"227 915 LINE",
"132 1008 LINE SMOOTH",
"122 1018 OFFCURVE",
"105 1034 OFFCURVE",
"85 1034 CURVE SMOOTH",
"63 1034 OFFCURVE",
"52 1017 OFFCURVE",
"52 1003 CURVE SMOOTH",
"52 988 OFFCURVE",
"65 972 OFFCURVE",
"88 960 CURVE SMOOTH",
"210 893 LINE"
);
},
{
closed = 1;
nodes = (
"290 862 LINE SMOOTH",
"300 870 OFFCURVE",
"310 878 OFFCURVE",
"318 878 CURVE SMOOTH",
"324 878 OFFCURVE",
"332 873 OFFCURVE",
"341 867 CURVE",
"447 781 LINE",
"466 803 LINE",
"344 932 LINE",
"293 932 LINE",
"171 803 LINE",
"189 781 LINE"
);
}
);
};
components = (
{
name = E;
},
{
name = circumflexgrave;
transform = "{1, 0, 0, 1, 426, 280}";
}
);
layerId = "0B1DFD06-3317-40CA-B510-4969A0718C16";
width = 732;
},
{
background = {
paths = (
{
closed = 1;
nodes = (
"554 0 LINE",
"571 179 LINE",
"544 179 LINE",
"538 124 OFFCURVE",
"520 40 OFFCURVE",
"456 40 CURVE SMOOTH",
"201 40 LINE",
"201 659 LINE",
"441 659 LINE SMOOTH",
"516 659 OFFCURVE",
"525 567 OFFCURVE",
"528 527 CURVE",
"555 527 LINE",
"555 700 LINE",
"16 700 LINE",
"16 673 LINE",
"44 673 LINE SMOOTH",
"83 673 OFFCURVE",
"103 662 OFFCURVE",
"103 637 CURVE SMOOTH",
"103 62 LINE SMOOTH",
"103 37 OFFCURVE",
"83 26 OFFCURVE",
"44 26 CURVE SMOOTH",
"16 26 LINE",
"16 0 LINE"
);
},
{
closed = 1;
nodes = (
"455 251 LINE",
"455 485 LINE",
"431 485 LINE",
"427 436 OFFCURVE",
"424 388 OFFCURVE",
"379 388 CURVE SMOOTH",
"162 388 LINE",
"162 348 LINE",
"379 348 LINE SMOOTH",
"424 348 OFFCURVE",
"427 300 OFFCURVE",
"431 251 CURVE"
);
},
{
closed = 1;
nodes = (
"227 915 LINE",
"132 1008 LINE SMOOTH",
"122 1018 OFFCURVE",
"105 1034 OFFCURVE",
"85 1034 CURVE SMOOTH",
"63 1034 OFFCURVE",
"52 1017 OFFCURVE",
"52 1003 CURVE SMOOTH",
"52 988 OFFCURVE",
"65 972 OFFCURVE",
"88 960 CURVE SMOOTH",
"210 893 LINE"
);
},
{
closed = 1;
nodes = (
"290 862 LINE SMOOTH",
"300 870 OFFCURVE",
"310 878 OFFCURVE",
"318 878 CURVE SMOOTH",
"324 878 OFFCURVE",
"332 873 OFFCURVE",
"341 867 CURVE",
"447 781 LINE",
"466 803 LINE",
"344 932 LINE",
"293 932 LINE",
"171 803 LINE",
"189 781 LINE"
);
}
);
};
components = (
{
name = E;
},
{
name = circumflexgrave;
transform = "{1, 0, 0, 1, 464, 230}";
}
);
layerId = "4C458150-A1D2-4ED7-A293-C8767657F79E";
width = 732;
}
);
note = Ecircumflexgrave;
unicode = 1EC0;
},
{
color = 3;
glyphname = Ecircumflexhookabove;
lastChange = "2018-02-22 14:10:56 +0000";
layers = (
{
background = {
paths = (
{
closed = 1;
nodes = (
"554 0 LINE",
"571 179 LINE",
"544 179 LINE",
"538 124 OFFCURVE",
"520 40 OFFCURVE",
"456 40 CURVE SMOOTH",
"201 40 LINE",
"201 659 LINE",
"441 659 LINE SMOOTH",
"516 659 OFFCURVE",
"525 567 OFFCURVE",
"528 527 CURVE",
"555 527 LINE",
"555 700 LINE",
"16 700 LINE",
"16 673 LINE",
"44 673 LINE SMOOTH",
"83 673 OFFCURVE",
"103 662 OFFCURVE",
"103 637 CURVE SMOOTH",
"103 62 LINE SMOOTH",
"103 37 OFFCURVE",
"83 26 OFFCURVE",
"44 26 CURVE SMOOTH",
"16 26 LINE",
"16 0 LINE"
);
},
{
closed = 1;
nodes = (
"455 251 LINE",
"455 485 LINE",
"431 485 LINE",
"427 436 OFFCURVE",
"424 388 OFFCURVE",
"379 388 CURVE SMOOTH",
"162 388 LINE",
"162 348 LINE",
"379 348 LINE SMOOTH",
"424 348 OFFCURVE",
"427 300 OFFCURVE",
"431 251 CURVE"
);
},
{
closed = 1;
nodes = (
"286 858 LINE",
"297 868 OFFCURVE",
"309 878 OFFCURVE",
"318 878 CURVE SMOOTH",
"324 878 OFFCURVE",
"332 873 OFFCURVE",
"341 867 CURVE",
"447 781 LINE",
"466 803 LINE",
"344 932 LINE",
"293 932 LINE",
"171 803 LINE",
"189 781 LINE"
);
},
{
closed = 1;
nodes = (
"493 898 LINE",
"474 905 OFFCURVE",
"464 912 OFFCURVE",
"464 926 CURVE SMOOTH",
"464 954 OFFCURVE",
"544 965 OFFCURVE",
"544 1010 CURVE SMOOTH",
"544 1047 OFFCURVE",
"502 1063 OFFCURVE",
"460 1063 CURVE SMOOTH",
"429 1063 OFFCURVE",
"384 1053 OFFCURVE",
"384 1022 CURVE SMOOTH",
"384 1010 OFFCURVE",
"395 1001 OFFCURVE",
"405 1001 CURVE SMOOTH",
"434 1001 OFFCURVE",
"421 1040 OFFCURVE",
"464 1040 CURVE SMOOTH",
"483 1040 OFFCURVE",
"494 1028 OFFCURVE",
"494 1013 CURVE SMOOTH",
"494 973 OFFCURVE",
"421 965 OFFCURVE",
"421 925 CURVE SMOOTH",
"421 901 OFFCURVE",
"437 880 OFFCURVE",
"484 880 CURVE"
);
}
);
};
components = (
{
name = E;
},
{
name = circumflexhookabove;
transform = "{1, 0, 0, 1, 426, 280}";
}
);
layerId = "0B1DFD06-3317-40CA-B510-4969A0718C16";
width = 732;
},
{
background = {
paths = (
{
closed = 1;
nodes = (
"554 0 LINE",
"571 179 LINE",
"544 179 LINE",
"538 124 OFFCURVE",
"520 40 OFFCURVE",
"456 40 CURVE SMOOTH",
"201 40 LINE",
"201 659 LINE",
"441 659 LINE SMOOTH",
"516 659 OFFCURVE",
"525 567 OFFCURVE",
"528 527 CURVE",
"555 527 LINE",
"555 700 LINE",
"16 700 LINE",
"16 673 LINE",
"44 673 LINE SMOOTH",
"83 673 OFFCURVE",
"103 662 OFFCURVE",
"103 637 CURVE SMOOTH",
"103 62 LINE SMOOTH",
"103 37 OFFCURVE",
"83 26 OFFCURVE",
"44 26 CURVE SMOOTH",
"16 26 LINE",
"16 0 LINE"
);
},
{
closed = 1;
nodes = (
"455 251 LINE",
"455 485 LINE",
"431 485 LINE",
"427 436 OFFCURVE",
"424 388 OFFCURVE",
"379 388 CURVE SMOOTH",
"162 388 LINE",
"162 348 LINE",
"379 348 LINE SMOOTH",
"424 348 OFFCURVE",
"427 300 OFFCURVE",
"431 251 CURVE"
);
},
{
closed = 1;
nodes = (
"286 858 LINE",
"297 868 OFFCURVE",
"309 878 OFFCURVE",
"318 878 CURVE SMOOTH",
"324 878 OFFCURVE",
"332 873 OFFCURVE",
"341 867 CURVE",
"447 781 LINE",
"466 803 LINE",
"344 932 LINE",
"293 932 LINE",
"171 803 LINE",
"189 781 LINE"
);
},
{
closed = 1;
nodes = (
"493 898 LINE",
"474 905 OFFCURVE",
"464 912 OFFCURVE",
"464 926 CURVE SMOOTH",
"464 954 OFFCURVE",
"544 965 OFFCURVE",
"544 1010 CURVE SMOOTH",
"544 1047 OFFCURVE",
"502 1063 OFFCURVE",
"460 1063 CURVE SMOOTH",
"429 1063 OFFCURVE",
"384 1053 OFFCURVE",
"384 1022 CURVE SMOOTH",
"384 1010 OFFCURVE",
"395 1001 OFFCURVE",
"405 1001 CURVE SMOOTH",
"434 1001 OFFCURVE",
"421 1040 OFFCURVE",
"464 1040 CURVE SMOOTH",
"483 1040 OFFCURVE",
"494 1028 OFFCURVE",
"494 1013 CURVE SMOOTH",
"494 973 OFFCURVE",
"421 965 OFFCURVE",
"421 925 CURVE SMOOTH",
"421 901 OFFCURVE",
"437 880 OFFCURVE",
"484 880 CURVE"
);
}
);
};
components = (
{
name = E;
},
{
name = circumflexhookabove;
transform = "{1, 0, 0, 1, 464, 230}";
}
);
layerId = "4C458150-A1D2-4ED7-A293-C8767657F79E";
width = 732;
}
);
note = Ecircumflexhookabove;
unicode = 1EC2;
},
{
color = 3;
glyphname = Ecircumflextilde;
lastChange = "2018-02-22 14:10:56 +0000";
layers = (
{
background = {
paths = (
{
closed = 1;
nodes = (
"554 0 LINE",
"571 179 LINE",
"544 179 LINE",
"538 124 OFFCURVE",
"520 40 OFFCURVE",
"456 40 CURVE SMOOTH",
"201 40 LINE",
"201 659 LINE",
"441 659 LINE SMOOTH",
"516 659 OFFCURVE",
"525 567 OFFCURVE",
"528 527 CURVE",
"555 527 LINE",
"555 700 LINE",
"16 700 LINE",
"16 673 LINE",
"44 673 LINE SMOOTH",
"83 673 OFFCURVE",
"103 662 OFFCURVE",
"103 637 CURVE SMOOTH",
"103 62 LINE SMOOTH",
"103 37 OFFCURVE",
"83 26 OFFCURVE",
"44 26 CURVE SMOOTH",
"16 26 LINE",
"16 0 LINE"
);
},
{
closed = 1;
nodes = (
"455 251 LINE",
"455 485 LINE",
"431 485 LINE",
"427 436 OFFCURVE",
"424 388 OFFCURVE",
"379 388 CURVE SMOOTH",
"162 388 LINE",
"162 348 LINE",
"379 348 LINE SMOOTH",
"424 348 OFFCURVE",
"427 300 OFFCURVE",
"431 251 CURVE"
);
},
{
closed = 1;
nodes = (
"290 862 LINE SMOOTH",
"300 870 OFFCURVE",
"310 878 OFFCURVE",
"318 878 CURVE SMOOTH",
"324 878 OFFCURVE",
"332 873 OFFCURVE",
"341 867 CURVE",
"447 781 LINE",
"466 803 LINE",
"344 932 LINE",
"293 932 LINE",
"171 803 LINE",
"189 781 LINE"
);
},
{
closed = 1;
nodes = (
"193 997 OFFCURVE",
"211 1018 OFFCURVE",
"242 1018 CURVE SMOOTH",
"291 1018 OFFCURVE",
"338 964 OFFCURVE",
"387 964 CURVE SMOOTH",
"440 964 OFFCURVE",
"469 1012 OFFCURVE",
"481 1063 CURVE",
"460 1075 LINE",
"447 1035 OFFCURVE",
"431 1012 OFFCURVE",
"398 1012 CURVE SMOOTH",
"351 1012 OFFCURVE",
"302 1065 OFFCURVE",
"253 1065 CURVE SMOOTH",
"202 1065 OFFCURVE",
"170 1021 OFFCURVE",
"160 970 CURVE",
"180 958 LINE"
);
}
);
};
components = (
{
name = E;
},
{
name = circumflexcomb;
transform = "{1, 0, 0, 1, 426, 280}";
},
{
name = tildecomb;
transform = "{1, 0, 0, 1, 426, 591}";
}
);
layerId = "0B1DFD06-3317-40CA-B510-4969A0718C16";
width = 732;
},
{
background = {
paths = (
{
closed = 1;
nodes = (
"554 0 LINE",
"571 179 LINE",
"544 179 LINE",
"538 124 OFFCURVE",
"520 40 OFFCURVE",
"456 40 CURVE SMOOTH",
"201 40 LINE",
"201 659 LINE",
"441 659 LINE SMOOTH",
"516 659 OFFCURVE",
"525 567 OFFCURVE",
"528 527 CURVE",
"555 527 LINE",
"555 700 LINE",
"16 700 LINE",
"16 673 LINE",
"44 673 LINE SMOOTH",
"83 673 OFFCURVE",
"103 662 OFFCURVE",
"103 637 CURVE SMOOTH",
"103 62 LINE SMOOTH",
"103 37 OFFCURVE",
"83 26 OFFCURVE",
"44 26 CURVE SMOOTH",
"16 26 LINE",
"16 0 LINE"
);
},
{
closed = 1;
nodes = (
"455 251 LINE",
"455 485 LINE",
"431 485 LINE",
"427 436 OFFCURVE",
"424 388 OFFCURVE",
"379 388 CURVE SMOOTH",
"162 388 LINE",
"162 348 LINE",
"379 348 LINE SMOOTH",
"424 348 OFFCURVE",
"427 300 OFFCURVE",
"431 251 CURVE"
);
},
{
closed = 1;
nodes = (
"290 862 LINE SMOOTH",
"300 870 OFFCURVE",
"310 878 OFFCURVE",
"318 878 CURVE SMOOTH",
"324 878 OFFCURVE",
"332 873 OFFCURVE",
"341 867 CURVE",
"447 781 LINE",
"466 803 LINE",
"344 932 LINE",
"293 932 LINE",
"171 803 LINE",
"189 781 LINE"
);
},
{
closed = 1;
nodes = (
"193 997 OFFCURVE",
"211 1018 OFFCURVE",
"242 1018 CURVE SMOOTH",
"291 1018 OFFCURVE",
"338 964 OFFCURVE",
"387 964 CURVE SMOOTH",
"440 964 OFFCURVE",
"469 1012 OFFCURVE",
"481 1063 CURVE",
"460 1075 LINE",
"447 1035 OFFCURVE",
"431 1012 OFFCURVE",
"398 1012 CURVE SMOOTH",
"351 1012 OFFCURVE",
"302 1065 OFFCURVE",
"253 1065 CURVE SMOOTH",
"202 1065 OFFCURVE",
"170 1021 OFFCURVE",
"160 970 CURVE",
"180 958 LINE"
);
}
);
};
components = (
{
name = E;
},
{
name = circumflexcomb;
transform = "{1, 0, 0, 1, 464, 230}";
},
{
name = tildecomb;
transform = "{1, 0, 0, 1, 509, 516}";
}
);
layerId = "4C458150-A1D2-4ED7-A293-C8767657F79E";
width = 732;
}
);
note = Ecircumflextilde;
unicode = 1EC4;
},
{
color = 3;
glyphname = Edieresis;
lastChange = "2018-02-22 12:52:07 +0000";
layers = (
{
background = {
paths = (
{
closed = 1;
nodes = (
"554 0 LINE",
"571 179 LINE",
"544 179 LINE",
"538 124 OFFCURVE",
"520 40 OFFCURVE",
"456 40 CURVE SMOOTH",
"201 40 LINE",
"201 659 LINE",
"441 659 LINE SMOOTH",
"516 659 OFFCURVE",
"525 567 OFFCURVE",
"528 527 CURVE",
"555 527 LINE",
"555 700 LINE",
"16 700 LINE",
"16 673 LINE",
"44 673 LINE SMOOTH",
"83 673 OFFCURVE",
"103 662 OFFCURVE",
"103 637 CURVE SMOOTH",
"103 62 LINE SMOOTH",
"103 37 OFFCURVE",
"83 26 OFFCURVE",
"44 26 CURVE SMOOTH",
"16 26 LINE",
"16 0 LINE"
);
},
{
closed = 1;
nodes = (
"455 251 LINE",
"455 485 LINE",
"431 485 LINE",
"427 436 OFFCURVE",
"424 388 OFFCURVE",
"379 388 CURVE SMOOTH",
"162 388 LINE",
"162 348 LINE",
"379 348 LINE SMOOTH",
"424 348 OFFCURVE",
"427 300 OFFCURVE",
"431 251 CURVE"
);
},
{
closed = 1;
nodes = (
"254 781 OFFCURVE",
"272 800 OFFCURVE",
"272 827 CURVE SMOOTH",
"272 855 OFFCURVE",
"254 875 OFFCURVE",
"225 875 CURVE SMOOTH",
"197 875 OFFCURVE",
"179 855 OFFCURVE",
"179 827 CURVE SMOOTH",
"179 800 OFFCURVE",
"197 781 OFFCURVE",
"225 781 CURVE SMOOTH"
);
},
{
closed = 1;
nodes = (
"470 781 OFFCURVE",
"488 800 OFFCURVE",
"488 827 CURVE SMOOTH",
"488 855 OFFCURVE",
"470 875 OFFCURVE",
"441 875 CURVE SMOOTH",
"412 875 OFFCURVE",
"394 855 OFFCURVE",
"394 827 CURVE SMOOTH",
"394 800 OFFCURVE",
"412 781 OFFCURVE",
"441 781 CURVE SMOOTH"
);
}
);
};
components = (
{
name = E;
},
{
name = dieresiscomb;
transform = "{1, 0, 0, 1, 428, 280}";
}
);
layerId = "0B1DFD06-3317-40CA-B510-4969A0718C16";
width = 732;
},
{
background = {
paths = (
{
closed = 1;
nodes = (
"554 0 LINE",
"571 179 LINE",
"544 179 LINE",
"538 124 OFFCURVE",
"520 40 OFFCURVE",
"456 40 CURVE SMOOTH",
"201 40 LINE",
"201 659 LINE",
"441 659 LINE SMOOTH",
"516 659 OFFCURVE",
"525 567 OFFCURVE",
"528 527 CURVE",
"555 527 LINE",
"555 700 LINE",
"16 700 LINE",
"16 673 LINE",
"44 673 LINE SMOOTH",
"83 673 OFFCURVE",
"103 662 OFFCURVE",
"103 637 CURVE SMOOTH",
"103 62 LINE SMOOTH",
"103 37 OFFCURVE",
"83 26 OFFCURVE",
"44 26 CURVE SMOOTH",
"16 26 LINE",
"16 0 LINE"
);
},
{
closed = 1;
nodes = (
"455 251 LINE",
"455 485 LINE",
"431 485 LINE",
"427 436 OFFCURVE",
"424 388 OFFCURVE",
"379 388 CURVE SMOOTH",
"162 388 LINE",
"162 348 LINE",
"379 348 LINE SMOOTH",
"424 348 OFFCURVE",
"427 300 OFFCURVE",
"431 251 CURVE"
);
},
{
closed = 1;
nodes = (
"254 781 OFFCURVE",
"272 800 OFFCURVE",
"272 827 CURVE SMOOTH",
"272 855 OFFCURVE",
"254 875 OFFCURVE",
"225 875 CURVE SMOOTH",
"197 875 OFFCURVE",
"179 855 OFFCURVE",
"179 827 CURVE SMOOTH",
"179 800 OFFCURVE",
"197 781 OFFCURVE",
"225 781 CURVE SMOOTH"
);
},
{
closed = 1;
nodes = (
"470 781 OFFCURVE",
"488 800 OFFCURVE",
"488 827 CURVE SMOOTH",
"488 855 OFFCURVE",
"470 875 OFFCURVE",
"441 875 CURVE SMOOTH",
"412 875 OFFCURVE",
"394 855 OFFCURVE",
"394 827 CURVE SMOOTH",
"394 800 OFFCURVE",
"412 781 OFFCURVE",
"441 781 CURVE SMOOTH"
);
}
);
};
components = (
{
name = E;
},
{
name = dieresiscomb;
transform = "{1, 0, 0, 1, 465, 280}";
}
);
layerId = "4C458150-A1D2-4ED7-A293-C8767657F79E";
width = 732;
}
);
note = Edieresis;
unicode = 00CB;
},
{
color = 3;
glyphname = Edotaccent;
lastChange = "2018-02-22 12:49:18 +0000";
layers = (
{
background = {
paths = (
{
closed = 1;
nodes = (
"554 0 LINE",
"571 179 LINE",
"544 179 LINE",
"538 124 OFFCURVE",
"520 40 OFFCURVE",
"456 40 CURVE SMOOTH",
"201 40 LINE",
"201 659 LINE",
"441 659 LINE SMOOTH",
"516 659 OFFCURVE",
"525 567 OFFCURVE",
"528 527 CURVE",
"555 527 LINE",
"555 700 LINE",
"16 700 LINE",
"16 673 LINE",
"44 673 LINE SMOOTH",
"83 673 OFFCURVE",
"103 662 OFFCURVE",
"103 637 CURVE SMOOTH",
"103 62 LINE SMOOTH",
"103 37 OFFCURVE",
"83 26 OFFCURVE",
"44 26 CURVE SMOOTH",
"16 26 LINE",
"16 0 LINE"
);
},
{
closed = 1;
nodes = (
"455 251 LINE",
"455 485 LINE",
"431 485 LINE",
"427 436 OFFCURVE",
"424 388 OFFCURVE",
"379 388 CURVE SMOOTH",
"162 388 LINE",
"162 348 LINE",
"379 348 LINE SMOOTH",
"424 348 OFFCURVE",
"427 300 OFFCURVE",
"431 251 CURVE"
);
},
{
closed = 1;
nodes = (
"362 765 OFFCURVE",
"380 784 OFFCURVE",
"380 811 CURVE SMOOTH",
"380 839 OFFCURVE",
"362 858 OFFCURVE",
"334 858 CURVE SMOOTH",
"305 858 OFFCURVE",
"287 839 OFFCURVE",
"287 811 CURVE SMOOTH",
"287 784 OFFCURVE",
"305 765 OFFCURVE",
"334 765 CURVE SMOOTH"
);
}
);
};
components = (
{
name = E;
},
{
name = dotaccentcomb;
transform = "{1, 0, 0, 1, 427, 280}";
}
);
layerId = "0B1DFD06-3317-40CA-B510-4969A0718C16";
width = 732;
},
{
background = {
paths = (
{
closed = 1;
nodes = (
"554 0 LINE",
"571 179 LINE",
"544 179 LINE",
"538 124 OFFCURVE",
"520 40 OFFCURVE",
"456 40 CURVE SMOOTH",
"201 40 LINE",
"201 659 LINE",
"441 659 LINE SMOOTH",
"516 659 OFFCURVE",
"525 567 OFFCURVE",
"528 527 CURVE",
"555 527 LINE",
"555 700 LINE",
"16 700 LINE",
"16 673 LINE",
"44 673 LINE SMOOTH",
"83 673 OFFCURVE",
"103 662 OFFCURVE",
"103 637 CURVE SMOOTH",
"103 62 LINE SMOOTH",
"103 37 OFFCURVE",
"83 26 OFFCURVE",
"44 26 CURVE SMOOTH",
"16 26 LINE",
"16 0 LINE"
);
},
{
closed = 1;
nodes = (
"455 251 LINE",
"455 485 LINE",
"431 485 LINE",
"427 436 OFFCURVE",
"424 388 OFFCURVE",
"379 388 CURVE SMOOTH",
"162 388 LINE",
"162 348 LINE",
"379 348 LINE SMOOTH",
"424 348 OFFCURVE",
"427 300 OFFCURVE",
"431 251 CURVE"
);
},
{
closed = 1;
nodes = (
"362 765 OFFCURVE",
"380 784 OFFCURVE",
"380 811 CURVE SMOOTH",
"380 839 OFFCURVE",
"362 858 OFFCURVE",
"334 858 CURVE SMOOTH",
"305 858 OFFCURVE",
"287 839 OFFCURVE",
"287 811 CURVE SMOOTH",
"287 784 OFFCURVE",
"305 765 OFFCURVE",
"334 765 CURVE SMOOTH"
);
}
);
};
components = (
{
name = E;
},
{
name = dotaccentcomb;
transform = "{1, 0, 0, 1, 468, 280}";
}
);
layerId = "4C458150-A1D2-4ED7-A293-C8767657F79E";
width = 732;
}
);
note = Edotaccent;
unicode = 0116;
},
{
color = 3;
glyphname = Edotbelow;
lastChange = "2018-02-22 12:51:01 +0000";
layers = (
{
background = {
paths = (
{
closed = 1;
nodes = (
"554 0 LINE",
"571 179 LINE",
"544 179 LINE",
"538 124 OFFCURVE",
"520 40 OFFCURVE",
"456 40 CURVE SMOOTH",
"201 40 LINE",
"201 659 LINE",
"441 659 LINE SMOOTH",
"516 659 OFFCURVE",
"525 567 OFFCURVE",
"528 527 CURVE",
"555 527 LINE",
"555 700 LINE",
"16 700 LINE",
"16 673 LINE",
"44 673 LINE SMOOTH",
"83 673 OFFCURVE",
"103 662 OFFCURVE",
"103 637 CURVE SMOOTH",
"103 62 LINE SMOOTH",
"103 37 OFFCURVE",
"83 26 OFFCURVE",
"44 26 CURVE SMOOTH",
"16 26 LINE",
"16 0 LINE"
);
},
{
closed = 1;
nodes = (
"343 -159 OFFCURVE",
"361 -140 OFFCURVE",
"361 -112 CURVE SMOOTH",
"361 -84 OFFCURVE",
"343 -64 OFFCURVE",
"315 -64 CURVE SMOOTH",
"287 -64 OFFCURVE",
"268 -84 OFFCURVE",
"268 -112 CURVE SMOOTH",
"268 -140 OFFCURVE",
"287 -159 OFFCURVE",
"315 -159 CURVE SMOOTH"
);
},
{
closed = 1;
nodes = (
"455 251 LINE",
"455 485 LINE",
"431 485 LINE",
"427 436 OFFCURVE",
"424 388 OFFCURVE",
"379 388 CURVE SMOOTH",
"162 388 LINE",
"162 348 LINE",
"379 348 LINE SMOOTH",
"424 348 OFFCURVE",
"427 300 OFFCURVE",
"431 251 CURVE"
);
}
);
};
components = (
{
name = E;
},
{
name = dotbelowcomb;
transform = "{1, 0, 0, 1, 335, 0}";
}
);
layerId = "0B1DFD06-3317-40CA-B510-4969A0718C16";
width = 732;
},
{
background = {
paths = (
{
closed = 1;
nodes = (
"554 0 LINE",
"571 179 LINE",
"544 179 LINE",
"538 124 OFFCURVE",
"520 40 OFFCURVE",
"456 40 CURVE SMOOTH",
"201 40 LINE",
"201 659 LINE",
"441 659 LINE SMOOTH",
"516 659 OFFCURVE",
"525 567 OFFCURVE",
"528 527 CURVE",
"555 527 LINE",
"555 700 LINE",
"16 700 LINE",
"16 673 LINE",
"44 673 LINE SMOOTH",
"83 673 OFFCURVE",
"103 662 OFFCURVE",
"103 637 CURVE SMOOTH",
"103 62 LINE SMOOTH",
"103 37 OFFCURVE",
"83 26 OFFCURVE",
"44 26 CURVE SMOOTH",
"16 26 LINE",
"16 0 LINE"
);
},
{
closed = 1;
nodes = (
"343 -159 OFFCURVE",
"361 -140 OFFCURVE",
"361 -112 CURVE SMOOTH",
"361 -84 OFFCURVE",
"343 -64 OFFCURVE",
"315 -64 CURVE SMOOTH",
"287 -64 OFFCURVE",
"268 -84 OFFCURVE",
"268 -112 CURVE SMOOTH",
"268 -140 OFFCURVE",
"287 -159 OFFCURVE",
"315 -159 CURVE SMOOTH"
);
},
{
closed = 1;
nodes = (
"455 251 LINE",
"455 485 LINE",
"431 485 LINE",
"427 436 OFFCURVE",
"424 388 OFFCURVE",
"379 388 CURVE SMOOTH",
"162 388 LINE",
"162 348 LINE",
"379 348 LINE SMOOTH",
"424 348 OFFCURVE",
"427 300 OFFCURVE",
"431 251 CURVE"
);
}
);
};
components = (
{
name = E;
},
{
name = dotbelowcomb;
transform = "{1, 0, 0, 1, 347, 0}";
}
);
layerId = "4C458150-A1D2-4ED7-A293-C8767657F79E";
width = 732;
}
);
note = Edotbelow;
unicode = 1EB8;
},
{
color = 3;
glyphname = Egrave;
lastChange = "2018-02-22 14:11:37 +0000";
layers = (
{
background = {
paths = (
{
closed = 1;
nodes = (
"554 0 LINE",
"571 179 LINE",
"544 179 LINE",
"538 124 OFFCURVE",
"520 40 OFFCURVE",
"456 40 CURVE SMOOTH",
"201 40 LINE",
"201 659 LINE",
"441 659 LINE SMOOTH",
"516 659 OFFCURVE",
"525 567 OFFCURVE",
"528 527 CURVE",
"555 527 LINE",
"555 700 LINE",
"16 700 LINE",
"16 673 LINE",
"44 673 LINE SMOOTH",
"83 673 OFFCURVE",
"103 662 OFFCURVE",
"103 637 CURVE SMOOTH",
"103 62 LINE SMOOTH",
"103 37 OFFCURVE",
"83 26 OFFCURVE",
"44 26 CURVE SMOOTH",
"16 26 LINE",
"16 0 LINE"
);
},
{
closed = 1;
nodes = (
"455 251 LINE",
"455 485 LINE",
"431 485 LINE",
"427 436 OFFCURVE",
"424 388 OFFCURVE",
"379 388 CURVE SMOOTH",
"162 388 LINE",
"162 348 LINE",
"379 348 LINE SMOOTH",
"424 348 OFFCURVE",
"427 300 OFFCURVE",
"431 251 CURVE"
);
},
{
closed = 1;
nodes = (
"425 807 LINE",
"310 913 LINE",
"301 922 OFFCURVE",
"285 937 OFFCURVE",
"265 937 CURVE SMOOTH",
"245 937 OFFCURVE",
"233 924 OFFCURVE",
"233 908 CURVE SMOOTH",
"233 890 OFFCURVE",
"245 876 OFFCURVE",
"264 865 CURVE SMOOTH",
"407 782 LINE"
);
}
);
};
components = (
{
name = E;
},
{
name = gravecomb;
transform = "{1, 0, 0, 1, 224, 280}";
}
);
layerId = "0B1DFD06-3317-40CA-B510-4969A0718C16";
width = 732;
},
{
background = {
paths = (
{
closed = 1;
nodes = (
"554 0 LINE",
"571 179 LINE",
"544 179 LINE",
"538 124 OFFCURVE",
"520 40 OFFCURVE",
"456 40 CURVE SMOOTH",
"201 40 LINE",
"201 659 LINE",
"441 659 LINE SMOOTH",
"516 659 OFFCURVE",
"525 567 OFFCURVE",
"528 527 CURVE",
"555 527 LINE",
"555 700 LINE",
"16 700 LINE",
"16 673 LINE",
"44 673 LINE SMOOTH",
"83 673 OFFCURVE",
"103 662 OFFCURVE",
"103 637 CURVE SMOOTH",
"103 62 LINE SMOOTH",
"103 37 OFFCURVE",
"83 26 OFFCURVE",
"44 26 CURVE SMOOTH",
"16 26 LINE",
"16 0 LINE"
);
},
{
closed = 1;
nodes = (
"455 251 LINE",
"455 485 LINE",
"431 485 LINE",
"427 436 OFFCURVE",
"424 388 OFFCURVE",
"379 388 CURVE SMOOTH",
"162 388 LINE",
"162 348 LINE",
"379 348 LINE SMOOTH",
"424 348 OFFCURVE",
"427 300 OFFCURVE",
"431 251 CURVE"
);
},
{
closed = 1;
nodes = (
"425 807 LINE",
"310 913 LINE",
"301 922 OFFCURVE",
"285 937 OFFCURVE",
"265 937 CURVE SMOOTH",
"245 937 OFFCURVE",
"233 924 OFFCURVE",
"233 908 CURVE SMOOTH",
"233 890 OFFCURVE",
"245 876 OFFCURVE",
"264 865 CURVE SMOOTH",
"407 782 LINE"
);
}
);
};
components = (
{
name = E;
},
{
name = gravecomb;
transform = "{1, 0, 0, 1, 283, 280}";
}
);
layerId = "4C458150-A1D2-4ED7-A293-C8767657F79E";
width = 732;
}
);
note = Egrave;
unicode = 00C8;
},
